<svg width="7220" height="5352" viewBox="0 0 7220 5352" fill="none" xmlns="http://www.w3.org/2000/svg">
<path fill-rule="evenodd" clip-rule="evenodd" d="M2499.72 2981.06C3184.77 3260.5 3958.07 2945.45 4228.8 2281.75C3944.89 2977.77 3191.46 3328.56 2476.87 3037.07C1762.29 2745.59 1413.16 1945.07 1697.07 1249.05C1980.98 553.032 2799.86 242.004 3514.45 533.485C3880.72 682.887 4136.26 960.026 4260.13 1288.43C4124.11 983.622 3820.81 710.715 3482.17 572.582C2797.11 293.148 2023.81 608.194 1753.08 1271.9C1482.35 1935.6 1814.67 2701.63 2499.72 2981.06Z" fill="url(#paint0_linear_154_10)"/>
<path d="M2960.63 1287C2940.16 1287 2919.69 1280.97 2899.22 1268.92C2849.74 1253.43 2825 1216.41 2825 1157.88C2825 1125.17 2836.09 1099.34 2858.27 1080.41C2882.15 1061.47 2905.19 1052 2927.37 1052C2951.25 1052 2974.28 1056.3 2996.46 1064.91C3040.82 1085.57 3063 1121.73 3063 1173.37C3063 1192.31 3058.73 1211.25 3050.2 1230.19C3033.14 1268.06 3003.29 1287 2960.63 1287Z" fill="#21AF9C"/>
<path d="M2209.6 2417.97C2179.28 2408.51 2155.78 2393.29 2137.49 2369.2C2119.19 2345.11 2112.39 2316.73 2117.79 2281.66C2120.32 2256.19 2125.89 2229.05 2135.24 2197.83C2156.81 2125.79 2193.64 2045.39 2243.4 1955.9C2307.16 1836.64 2382.59 1721.03 2468.07 1605.93C2550.5 1492.5 2629.51 1399.01 2700.43 1324C2714.79 1310.1 2730.05 1301.74 2748.54 1299.63C2767.02 1297.52 2781.74 1299.49 2798.06 1304.59C2826.05 1313.33 2849.55 1328.54 2867.85 1352.63C2886.14 1376.72 2890.61 1404.38 2882.7 1430.79L2874.62 1449.27C2869.41 1458.15 2861.15 1468.7 2850.55 1478.52C2781.79 1546.32 2712.66 1632.39 2641.54 1733.6C2568.09 1834.08 2508.46 1930.99 2458.71 2020.49C2428.35 2079.28 2406.97 2125.12 2396.19 2161.14C2386.12 2194.76 2388.08 2213.75 2401.36 2220.52C2417.69 2225.62 2447.48 2211.29 2493.08 2178.26C2535.63 2146.91 2599.19 2087.98 2682.31 2006.28C2728.46 1962.91 2772.27 1918.83 2816.79 1872.34C2989.7 1695.25 3156.13 1539.78 3313.04 1407.6C3467.62 1274.68 3608.71 1195.32 3732.55 1173.59C3774.9 1168.43 3810.43 1169.02 3838.42 1177.76C3882.74 1191.59 3912.69 1219.33 3922.9 1261.9C3933.11 1304.47 3935.06 1357.59 3925.52 1415C3919.39 1452.48 3905.91 1506.03 3885.77 1573.27L3833.11 1740.63C3802.19 1843.88 3777.37 1943.78 3762.43 2036.27C3745.16 2128.03 3753.38 2185.74 3784.77 2208.66L3794.1 2211.58C3836.09 2224.69 3891.37 2210.43 3958.33 2165.7C4024.57 2123.36 4099.07 2070.47 4178.78 2008.71C4269.8 1934.72 4362.61 1871.8 4453.98 1813.67C4544.63 1757.95 4628.27 1734.17 4701.84 1744.01L4735.22 1751.81C4781.87 1766.37 4814.87 1792.43 4834.95 1827.58C4852.7 1862.01 4862.91 1904.58 4866.29 1952.9C4869.68 2001.22 4870.01 2051.21 4867.29 2102.87C4863.86 2156.94 4865.8 2210.06 4868.47 2260.78C4871.13 2311.5 4881.34 2354.08 4903.04 2392.36C4924.01 2433.04 4959.35 2459.83 5013 2476.57C5075.98 2496.24 5173.24 2495.09 5300.84 2469.29C5427.73 2445.88 5597.16 2391.12 5811.47 2305.74C5828.35 2300.5 5841.45 2299.34 5853.11 2302.98C5871.77 2308.81 5878.22 2321.33 5872.47 2340.54L5869.59 2350.14C5863.67 2361.42 5852.36 2373.64 5834.76 2381.28C5571.45 2485.5 5359.84 2553.35 5201.37 2580.02C5042.9 2606.69 4920.15 2607.76 4833.85 2580.81C4761.54 2558.24 4708.98 2520.82 4678.5 2469.3C4648.02 2417.77 4629.03 2361.95 4624.57 2300.17C4617.78 2237.66 4614.94 2179.01 4615.15 2118.68C4621.12 2039.15 4613.61 1979.04 4597.3 1939.81C4589.23 1924.17 4576.68 1914.99 4562.68 1910.63C4527.69 1899.7 4477.08 1915.41 4411.56 1955.35C4346.04 1995.28 4274.59 2046.5 4197.21 2108.99C4101.52 2181.52 4007.28 2249.25 3911.24 2305.91C3815.2 2362.58 3730.85 2388.76 3657.27 2378.92L3623.9 2371.12C3551.59 2348.55 3511.96 2302.04 3500.33 2230.14C3487.98 2160.65 3494.66 2078.71 3514.27 1987.68C3533.88 1896.65 3556.54 1803.95 3583.14 1715.1C3611.36 1629.39 3630.6 1556.62 3641.58 1494.41C3650.22 1431.46 3640.19 1396.82 3612.2 1388.08C3572.55 1375.71 3507.57 1405.31 3415.66 1473.76C3323.02 1544.62 3219.97 1633.23 3106.5 1739.6C2993.03 1845.96 2884.95 1951.38 2779.19 2057.53C2612.22 2223.33 2496.41 2328.97 2434.12 2375.16C2398.4 2400.77 2360.16 2417.71 2320.14 2423.6C2280.12 2429.49 2242.26 2428.17 2209.6 2417.97Z" fill="url(#paint1_linear_154_10)"/>
<path d="M316.601 4524.77H227.334V3554.85H316.601V4524.77Z" fill="#D1126B"/>
<path d="M1484.33 3554.85H1505.38V4524.77H1484.33L871.798 3667.13V4524.77H850.751V3638.04L791.966 3554.85H903.005L1484.33 4366.5V3554.85Z" fill="#D1126B"/>
<path d="M3467.07 4524.77H3377.81L3312.49 3612.34L3043.96 4524.77H3001.87L2685.44 3606.26L2625.93 4524.77H2604.88L2667.3 3554.85H2761.65L3057.75 4406.4L3308.13 3554.85H3398.13L3467.07 4524.77Z" fill="#D1126B"/>
<path d="M4348.86 4538.97C4269.51 4538.97 4198.39 4520.94 4135.49 4484.86C4073.07 4448.79 4023.72 4394 3987.43 4320.5C3951.15 4246.55 3933 4153.21 3933 4040.49C3933 3928.21 3951.15 3835.32 3987.43 3761.82C4023.72 3687.87 4073.07 3632.86 4135.49 3596.79C4198.39 3560.26 4269.51 3542 4348.86 3542C4428.21 3542 4499.33 3560.26 4562.23 3596.79C4625.13 3632.86 4674.72 3687.87 4711.01 3761.82C4747.29 3835.32 4765.44 3928.21 4765.44 4040.49C4765.44 4153.21 4747.29 4246.55 4711.01 4320.5C4674.72 4394 4625.13 4448.79 4562.23 4484.86C4499.33 4520.94 4428.21 4538.97 4348.86 4538.97ZM4348.86 4520.03C4419.5 4520.03 4478.52 4501.1 4525.94 4463.22C4573.36 4424.89 4608.92 4370.1 4632.62 4298.86C4656.82 4227.16 4668.91 4141.04 4668.91 4040.49C4668.91 3940.38 4656.82 3854.71 4632.62 3783.46C4608.92 3711.77 4573.36 3656.98 4525.94 3619.11C4478.52 3580.78 4419.5 3561.61 4348.86 3561.61C4278.22 3561.61 4219.19 3580.78 4171.77 3619.11C4124.36 3656.98 4088.8 3711.77 4065.09 3783.46C4041.38 3854.71 4029.53 3940.38 4029.53 4040.49C4029.53 4141.04 4041.38 4227.16 4065.09 4298.86C4088.8 4370.1 4124.36 4424.89 4171.77 4463.22C4219.19 4501.1 4278.22 4520.03 4348.86 4520.03Z" fill="#D1126B"/>
<path d="M5584.08 4524.77H5553.6L5197.98 3554.85H5298.14L5607.3 4396.93L5901.96 3554.85H5923L5584.08 4524.77Z" fill="#D1126B"/>
<path d="M6484.01 4030.34H6939.05V4049.96H6484.01V4505.15H6989.86V4524.77H6394.74V3554.85H6975.34V3574.47H6484.01V4030.34Z" fill="#D1126B"/>
<path fill-rule="evenodd" clip-rule="evenodd" d="M322.601 4530.77H221.334V3548.85H322.601V4530.77ZM1478.33 3548.85H1511.38V4530.77H1481.24L877.798 3685.85V4530.77H844.751V3639.95L780.379 3548.85H906.088L1478.33 4347.82V3548.85ZM1484.33 4366.5L903.005 3554.85H791.966L850.751 3638.04V4524.77H871.798V3667.13L1484.33 4524.77H1505.38V3554.85H1484.33V4366.5ZM3473.52 4530.77H3372.22L3308.87 3645.88L3048.45 4530.77H2997.59L2689.5 3636.45L2631.56 4530.77H2598.49L2661.67 3548.85H2765.91L3057.27 4386.76L3303.64 3548.85H3403.72L3473.52 4530.77ZM3057.75 4406.4L2761.65 3554.85H2667.3L2604.88 4524.77H2625.93L2685.44 3606.26L3001.87 4524.77H3043.96L3312.49 3612.34L3377.81 4524.77H3467.07L3398.13 3554.85H3308.13L3057.75 4406.4ZM4132.49 4490.06L4132.49 4490.06C4068.91 4453.31 4018.79 4397.57 3982.05 4323.16L3982.05 4323.15C3945.24 4248.13 3927 4153.81 3927 4040.49C3927 3927.61 3945.24 3833.74 3982.05 3759.16C4018.79 3684.31 4068.9 3628.34 4132.49 3591.59C4196.38 3554.49 4268.55 3536 4348.86 3536C4429.17 3536 4501.35 3554.49 4565.24 3591.6C4629.3 3628.34 4679.66 3684.32 4716.39 3759.18C4753.21 3833.75 4771.44 3927.62 4771.44 4040.49C4771.44 4153.81 4753.2 4248.13 4716.39 4323.15L4716.39 4323.16C4679.64 4397.58 4629.28 4453.33 4565.21 4490.07C4501.32 4526.71 4429.15 4544.97 4348.86 4544.97C4268.56 4544.97 4196.39 4526.71 4132.5 4490.07L4132.49 4490.06ZM4711.01 3761.82C4674.72 3687.87 4625.13 3632.86 4562.23 3596.79C4499.33 3560.26 4428.21 3542 4348.86 3542C4269.51 3542 4198.39 3560.26 4135.49 3596.79C4073.07 3632.86 4023.72 3687.87 3987.44 3761.82C3951.15 3835.32 3933 3928.21 3933 4040.49C3933 4153.21 3951.15 4246.55 3987.44 4320.5C4023.72 4394 4073.07 4448.79 4135.49 4484.86C4198.39 4520.94 4269.51 4538.97 4348.86 4538.97C4428.21 4538.97 4499.33 4520.94 4562.23 4484.86C4625.13 4448.79 4674.72 4394 4711.01 4320.5C4747.29 4246.55 4765.44 4153.21 4765.44 4040.49C4765.44 3928.21 4747.29 3835.32 4711.01 3761.82ZM4626.94 4296.94C4650.87 4226.03 4662.91 4140.59 4662.91 4040.49C4662.91 3940.84 4650.87 3855.85 4626.94 3785.39L4626.93 3785.35C4603.5 3714.49 4568.5 3660.79 4522.2 3623.79L4522.18 3623.78L4522.17 3623.77C4475.99 3586.44 4418.35 3567.61 4348.86 3567.61C4279.36 3567.61 4221.73 3586.44 4175.55 3623.77L4175.53 3623.78L4175.52 3623.79C4129.21 3660.79 4094.22 3714.49 4070.79 3785.35L4070.78 3785.36C4047.33 3855.83 4035.53 3940.83 4035.53 4040.49C4035.53 4140.6 4047.33 4226.05 4070.79 4296.98C4094.21 4367.38 4129.21 4421.09 4175.54 4458.55C4221.72 4495.43 4279.35 4514.03 4348.86 4514.03C4418.37 4514.03 4476.01 4495.42 4522.2 4458.53C4568.52 4421.08 4603.51 4367.36 4626.93 4296.97L4626.94 4296.94ZM4525.94 4463.22C4478.52 4501.1 4419.5 4520.03 4348.86 4520.03C4278.22 4520.03 4219.19 4501.1 4171.77 4463.22C4124.36 4424.89 4088.8 4370.1 4065.09 4298.86C4041.38 4227.16 4029.53 4141.04 4029.53 4040.49C4029.53 3940.38 4041.38 3854.71 4065.09 3783.46C4088.8 3711.77 4124.36 3656.98 4171.77 3619.11C4219.19 3580.78 4278.22 3561.61 4348.86 3561.61C4419.5 3561.61 4478.52 3580.78 4525.94 3619.11C4573.36 3656.98 4608.92 3711.77 4632.63 3783.46C4656.82 3854.71 4668.91 3940.38 4668.91 4040.49C4668.91 4141.04 4656.82 4227.16 4632.63 4298.86C4608.92 4370.1 4573.36 4424.89 4525.94 4463.22ZM5588.34 4530.77H5549.41L5189.39 3548.85H5302.32L5607.17 4379.16L5897.7 3548.85H5931.46L5588.34 4530.77ZM5607.3 4396.93L5298.14 3554.85H5197.98L5553.6 4524.77H5584.08L5923.01 3554.85H5901.96L5607.3 4396.93ZM6945.05 4024.34V4055.96H6490.01V4499.15H6995.86V4530.77H6388.74V3548.85H6981.34V3580.47H6490.01V4024.34H6945.05ZM6484.01 3574.47H6975.34V3554.85H6394.74V4524.77H6989.86V4505.15H6484.01V4049.96H6939.05V4030.34H6484.01V3574.47ZM316.601 4524.77V3554.85H227.334V4524.77H316.601Z" fill="#D1126B"/>
<path d="M133.302 5050.22H19.3497V5167.97H112.989V5183.2H19.3497V5346.66H3V5034.52H133.302V5050.22Z" fill="#21AF9C"/>
<path d="M298.521 5346.66H282.171V5034.52H298.521V5346.66Z" fill="#21AF9C"/>
<path d="M532.142 5181.82C540.399 5187.98 548.492 5194.44 556.419 5201.21C564.676 5207.68 571.943 5214.91 578.218 5222.91C584.824 5230.61 590.109 5239.38 594.073 5249.23C598.036 5258.77 600.018 5269.7 600.018 5282.02C600.018 5291.25 598.036 5300.02 594.073 5308.33C590.439 5316.34 585.32 5323.42 578.714 5329.57C572.438 5335.42 565.006 5340.19 556.419 5343.89C547.831 5347.27 538.583 5348.97 528.674 5348.97C518.765 5348.97 509.352 5347.27 500.434 5343.89C491.846 5340.19 484.249 5335.42 477.643 5329.57C471.368 5323.42 466.248 5316.34 462.284 5308.33C458.651 5300.02 456.835 5291.25 456.835 5282.02H473.184C473.184 5289.1 474.67 5295.87 477.643 5302.33C480.616 5308.49 484.579 5313.88 489.534 5318.49C494.488 5323.11 500.268 5326.8 506.874 5329.57C513.811 5332.34 521.077 5333.73 528.674 5333.73C536.271 5333.73 543.372 5332.34 549.978 5329.57C556.584 5326.8 562.364 5323.11 567.319 5318.49C572.273 5313.88 576.237 5308.49 579.209 5302.33C582.182 5295.87 583.668 5289.1 583.668 5282.02C583.668 5271.55 581.852 5262.16 578.218 5253.85C574.915 5245.54 570.291 5238 564.346 5231.22C558.731 5224.14 552.125 5217.68 544.528 5211.83C537.262 5205.68 529.665 5199.67 521.738 5193.82C513.811 5187.98 505.883 5181.97 497.956 5175.82C490.36 5169.35 483.423 5162.43 477.148 5155.04C471.202 5147.65 466.248 5139.49 462.284 5130.57C458.651 5121.64 456.835 5111.33 456.835 5099.63C456.835 5090.39 458.651 5081.78 462.284 5073.77C466.248 5065.46 471.368 5058.38 477.643 5052.53C484.249 5046.38 491.846 5041.6 500.434 5038.22C509.352 5034.52 518.765 5032.68 528.674 5032.68C538.583 5032.68 547.831 5034.52 556.419 5038.22C565.006 5041.6 572.438 5046.38 578.714 5052.53C585.32 5058.38 590.439 5065.46 594.073 5073.77C598.036 5081.78 600.018 5090.39 600.018 5099.63H583.668C583.668 5092.55 582.182 5085.93 579.209 5079.77C576.237 5073.62 572.273 5068.23 567.319 5063.61C562.364 5059 556.584 5055.3 549.978 5052.53C543.372 5049.76 536.271 5048.38 528.674 5048.38C521.077 5048.38 513.811 5049.76 506.874 5052.53C500.268 5055.3 494.488 5059 489.534 5063.61C484.579 5068.23 480.616 5073.62 477.643 5079.77C474.67 5085.93 473.184 5092.55 473.184 5099.63C473.184 5109.48 474.836 5118.25 478.139 5125.95C481.442 5133.34 485.735 5140.26 491.02 5146.73C496.635 5153.19 502.911 5159.35 509.847 5165.2C517.114 5170.74 524.545 5176.28 532.142 5181.82Z" fill="#21AF9C"/>
<path d="M775.095 5346.66H758.746V5034.52H775.095V5346.66Z" fill="#21AF9C"/>
<path d="M1005.25 5348.97C995.34 5348.97 985.926 5347.27 977.008 5343.89C968.421 5340.19 960.824 5335.42 954.218 5329.57C947.942 5323.42 942.823 5316.34 938.859 5308.33C935.226 5300.02 933.409 5291.25 933.409 5282.02V5099.63C933.409 5090.39 935.226 5081.78 938.859 5073.77C942.823 5065.46 947.942 5058.38 954.218 5052.53C960.824 5046.38 968.421 5041.6 977.008 5038.22C985.926 5034.52 995.34 5032.68 1005.25 5032.68C1015.16 5032.68 1024.41 5034.52 1032.99 5038.22C1041.58 5041.6 1049.01 5046.38 1055.29 5052.53C1061.89 5058.38 1067.01 5065.46 1070.65 5073.77C1074.61 5081.78 1076.59 5090.39 1076.59 5099.63V5282.02C1076.59 5291.25 1074.61 5300.02 1070.65 5308.33C1067.01 5316.34 1061.89 5323.42 1055.29 5329.57C1049.01 5335.42 1041.58 5340.19 1032.99 5343.89C1024.41 5347.27 1015.16 5348.97 1005.25 5348.97ZM1005.25 5048.38C997.652 5048.38 990.385 5049.76 983.449 5052.53C976.843 5055.3 971.063 5059 966.108 5063.61C961.154 5068.23 957.19 5073.62 954.218 5079.77C951.245 5085.93 949.759 5092.55 949.759 5099.63V5282.02C949.759 5289.1 951.245 5295.87 954.218 5302.33C957.19 5308.49 961.154 5313.88 966.108 5318.49C971.063 5323.11 976.843 5326.8 983.449 5329.57C990.385 5332.34 997.652 5333.73 1005.25 5333.73C1012.85 5333.73 1019.95 5332.34 1026.55 5329.57C1033.16 5326.8 1038.94 5323.11 1043.89 5318.49C1048.85 5313.88 1052.81 5308.49 1055.78 5302.33C1058.76 5295.87 1060.24 5289.1 1060.24 5282.02V5099.63C1060.24 5092.55 1058.76 5085.93 1055.78 5079.77C1052.81 5073.62 1048.85 5068.23 1043.89 5063.61C1038.94 5059 1033.16 5055.3 1026.55 5052.53C1019.95 5049.76 1012.85 5048.38 1005.25 5048.38Z" fill="#21AF9C"/>
<path d="M1365.62 5034.52V5050.22H1298.74V5346.66H1282.39V5050.22H1215.5V5034.52H1365.62Z" fill="#21AF9C"/>
<path d="M1639.47 5050.22H1525.52V5167.97H1619.16V5183.2H1525.52V5331.42H1639.47V5346.66H1509.17V5034.52H1639.47V5050.22Z" fill="#21AF9C"/>
<path d="M1845.32 5215.06H1804.69V5346.66H1788.34V5034.52H1848.78C1858.69 5034.52 1867.94 5036.22 1876.53 5039.6C1885.45 5042.99 1893.04 5047.76 1899.32 5053.92C1905.93 5059.77 1911.05 5066.69 1914.68 5074.7C1918.64 5082.7 1920.62 5091.32 1920.62 5100.55V5149.04C1920.62 5157.04 1919.14 5164.58 1916.17 5171.66C1913.19 5178.74 1909.06 5185.2 1903.78 5191.05C1898.49 5196.9 1892.38 5201.83 1885.45 5205.83C1878.51 5209.52 1870.91 5212.14 1862.66 5213.68L1923.1 5346.66H1905.27L1845.32 5215.06ZM1804.69 5199.83H1848.78C1856.38 5199.83 1863.48 5198.6 1870.09 5196.13C1876.69 5193.36 1882.47 5189.67 1887.43 5185.05C1892.38 5180.43 1896.35 5175.05 1899.32 5168.89C1902.29 5162.73 1903.78 5156.12 1903.78 5149.04V5100.55C1903.78 5093.78 1902.29 5087.32 1899.32 5081.16C1896.35 5075 1892.38 5069.62 1887.43 5065C1882.47 5060.38 1876.69 5056.69 1870.09 5053.92C1863.48 5051.15 1856.38 5049.76 1848.78 5049.76H1804.69V5199.83Z" fill="#21AF9C"/>
<path d="M2231.17 5346.66L2207.88 5248.77H2111.76L2088.48 5346.66H2071.63L2145.95 5034.52H2173.7L2248.01 5346.66H2231.17ZM2115.23 5233.53H2204.41L2159.82 5046.99L2115.23 5233.53Z" fill="#21AF9C"/>
<path d="M2457.08 5034.52C2466.99 5034.52 2476.07 5036.37 2484.33 5040.07C2492.91 5043.45 2500.35 5048.22 2506.62 5054.38C2513.23 5060.23 2518.35 5067.15 2521.98 5075.16C2525.61 5083.16 2527.43 5091.63 2527.43 5100.55V5164.27C2527.43 5173.2 2525.61 5181.51 2521.98 5189.21C2518.68 5196.9 2513.89 5203.67 2507.61 5209.52C2501.67 5215.37 2494.57 5220.14 2486.31 5223.84C2478.38 5227.53 2469.79 5229.69 2460.55 5230.3H2408.03V5346.66H2391.68V5034.52H2457.08ZM2511.08 5100.55C2511.08 5093.78 2509.59 5087.32 2506.62 5081.16C2503.65 5075 2499.69 5069.62 2494.73 5065C2489.78 5060.38 2484 5056.69 2477.39 5053.92C2470.78 5051.15 2463.68 5049.76 2456.09 5049.76H2408.03V5215.06H2457.08C2464.67 5215.06 2471.78 5213.68 2478.38 5210.91C2484.99 5208.14 2490.6 5204.44 2495.23 5199.83C2500.18 5195.21 2503.98 5189.98 2506.62 5184.13C2509.59 5177.97 2511.08 5171.35 2511.08 5164.27V5100.55Z" fill="#21AF9C"/>
<path d="M2702.2 5346.66H2685.85V5034.52H2702.2V5346.66Z" fill="#21AF9C"/>
<path d="M3010.14 5346.66L2986.85 5248.77H2890.73L2867.45 5346.66H2850.6L2924.92 5034.52H2952.66L3026.98 5346.66H3010.14ZM2894.2 5233.53H2983.38L2938.79 5046.99L2894.2 5233.53Z" fill="#21AF9C"/>
<path d="M3501.74 5050.22H3387.79V5167.97H3481.43V5183.2H3387.79V5331.42H3501.74V5346.66H3371.44V5034.52H3501.74V5050.22Z" fill="#21AF9C"/>
<path d="M4033.23 5034.52H4050.07V5346.66H4033.72V5077.93L3950.98 5289.87L3867.75 5077.93V5346.66H3851.4V5034.52H3868.25L3950.98 5245.08L4033.23 5034.52Z" fill="#21AF9C"/>
<path d="M4358.09 5346.66L4334.81 5248.77H4238.69L4215.4 5346.66H4198.56L4272.88 5034.52H4300.62L4374.94 5346.66H4358.09ZM4242.16 5233.53H4331.34L4286.75 5046.99L4242.16 5233.53Z" fill="#21AF9C"/>
<path d="M4593.91 5181.82C4602.17 5187.98 4610.26 5194.44 4618.19 5201.21C4626.45 5207.68 4633.71 5214.91 4639.99 5222.91C4646.59 5230.61 4651.88 5239.38 4655.84 5249.23C4659.81 5258.77 4661.79 5269.7 4661.79 5282.02C4661.79 5291.25 4659.81 5300.02 4655.84 5308.33C4652.21 5316.34 4647.09 5323.42 4640.48 5329.57C4634.21 5335.42 4626.78 5340.19 4618.19 5343.89C4609.6 5347.27 4600.35 5348.97 4590.44 5348.97C4580.54 5348.97 4571.12 5347.27 4562.2 5343.89C4553.62 5340.19 4546.02 5335.42 4539.41 5329.57C4533.14 5323.42 4528.02 5316.34 4524.05 5308.33C4520.42 5300.02 4518.6 5291.25 4518.6 5282.02H4534.95C4534.95 5289.1 4536.44 5295.87 4539.41 5302.33C4542.39 5308.49 4546.35 5313.88 4551.3 5318.49C4556.26 5323.11 4562.04 5326.8 4568.64 5329.57C4575.58 5332.34 4582.85 5333.73 4590.44 5333.73C4598.04 5333.73 4605.14 5332.34 4611.75 5329.57C4618.35 5326.8 4624.13 5323.11 4629.09 5318.49C4634.04 5313.88 4638.01 5308.49 4640.98 5302.33C4643.95 5295.87 4645.44 5289.1 4645.44 5282.02C4645.44 5271.55 4643.62 5262.16 4639.99 5253.85C4636.69 5245.54 4632.06 5238 4626.12 5231.22C4620.5 5224.14 4613.9 5217.68 4606.3 5211.83C4599.03 5205.68 4591.44 5199.67 4583.51 5193.82C4575.58 5187.98 4567.65 5181.97 4559.73 5175.82C4552.13 5169.35 4545.19 5162.43 4538.92 5155.04C4532.97 5147.65 4528.02 5139.49 4524.05 5130.57C4520.42 5121.64 4518.6 5111.33 4518.6 5099.63C4518.6 5090.39 4520.42 5081.78 4524.05 5073.77C4528.02 5065.46 4533.14 5058.38 4539.41 5052.53C4546.02 5046.38 4553.62 5041.6 4562.2 5038.22C4571.12 5034.52 4580.54 5032.68 4590.44 5032.68C4600.35 5032.68 4609.6 5034.52 4618.19 5038.22C4626.78 5041.6 4634.21 5046.38 4640.48 5052.53C4647.09 5058.38 4652.21 5065.46 4655.84 5073.77C4659.81 5081.78 4661.79 5090.39 4661.79 5099.63H4645.44C4645.44 5092.55 4643.95 5085.93 4640.98 5079.77C4638.01 5073.62 4634.04 5068.23 4629.09 5063.61C4624.13 5059 4618.35 5055.3 4611.75 5052.53C4605.14 5049.76 4598.04 5048.38 4590.44 5048.38C4582.85 5048.38 4575.58 5049.76 4568.64 5052.53C4562.04 5055.3 4556.26 5059 4551.3 5063.61C4546.35 5068.23 4542.39 5073.62 4539.41 5079.77C4536.44 5085.93 4534.95 5092.55 4534.95 5099.63C4534.95 5109.48 4536.61 5118.25 4539.91 5125.95C4543.21 5133.34 4547.51 5140.26 4552.79 5146.73C4558.41 5153.19 4564.68 5159.35 4571.62 5165.2C4578.88 5170.74 4586.32 5176.28 4593.91 5181.82Z" fill="#21AF9C"/>
<path d="M4895.82 5181.82C4904.08 5187.98 4912.17 5194.44 4920.1 5201.21C4928.36 5207.68 4935.62 5214.91 4941.9 5222.91C4948.51 5230.61 4953.79 5239.38 4957.75 5249.23C4961.72 5258.77 4963.7 5269.7 4963.7 5282.02C4963.7 5291.25 4961.72 5300.02 4957.75 5308.33C4954.12 5316.34 4949 5323.42 4942.4 5329.57C4936.12 5335.42 4928.69 5340.19 4920.1 5343.89C4911.51 5347.27 4902.26 5348.97 4892.36 5348.97C4882.45 5348.97 4873.03 5347.27 4864.12 5343.89C4855.53 5340.19 4847.93 5335.42 4841.32 5329.57C4835.05 5323.42 4829.93 5316.34 4825.97 5308.33C4822.33 5300.02 4820.52 5291.25 4820.52 5282.02H4836.87C4836.87 5289.1 4838.35 5295.87 4841.32 5302.33C4844.3 5308.49 4848.26 5313.88 4853.22 5318.49C4858.17 5323.11 4863.95 5326.8 4870.56 5329.57C4877.49 5332.34 4884.76 5333.73 4892.36 5333.73C4899.95 5333.73 4907.05 5332.34 4913.66 5329.57C4920.27 5326.8 4926.05 5323.11 4931 5318.49C4935.95 5313.88 4939.92 5308.49 4942.89 5302.33C4945.86 5295.87 4947.35 5289.1 4947.35 5282.02C4947.35 5271.55 4945.53 5262.16 4941.9 5253.85C4938.6 5245.54 4933.97 5238 4928.03 5231.22C4922.41 5224.14 4915.81 5217.68 4908.21 5211.83C4900.94 5205.68 4893.35 5199.67 4885.42 5193.82C4877.49 5187.98 4869.56 5181.97 4861.64 5175.82C4854.04 5169.35 4847.1 5162.43 4840.83 5155.04C4834.88 5147.65 4829.93 5139.49 4825.97 5130.57C4822.33 5121.64 4820.52 5111.33 4820.52 5099.63C4820.52 5090.39 4822.33 5081.78 4825.97 5073.77C4829.93 5065.46 4835.05 5058.38 4841.32 5052.53C4847.93 5046.38 4855.53 5041.6 4864.12 5038.22C4873.03 5034.52 4882.45 5032.68 4892.36 5032.68C4902.26 5032.68 4911.51 5034.52 4920.1 5038.22C4928.69 5041.6 4936.12 5046.38 4942.4 5052.53C4949 5058.38 4954.12 5065.46 4957.75 5073.77C4961.72 5081.78 4963.7 5090.39 4963.7 5099.63H4947.35C4947.35 5092.55 4945.86 5085.93 4942.89 5079.77C4939.92 5073.62 4935.95 5068.23 4931 5063.61C4926.05 5059 4920.27 5055.3 4913.66 5052.53C4907.05 5049.76 4899.95 5048.38 4892.36 5048.38C4884.76 5048.38 4877.49 5049.76 4870.56 5052.53C4863.95 5055.3 4858.17 5059 4853.22 5063.61C4848.26 5068.23 4844.3 5073.62 4841.32 5079.77C4838.35 5085.93 4836.87 5092.55 4836.87 5099.63C4836.87 5109.48 4838.52 5118.25 4841.82 5125.95C4845.12 5133.34 4849.42 5140.26 4854.7 5146.73C4860.32 5153.19 4866.59 5159.35 4873.53 5165.2C4880.8 5170.74 4888.23 5176.28 4895.82 5181.82Z" fill="#21AF9C"/>
<path d="M5194.27 5348.97C5184.36 5348.97 5174.94 5347.27 5166.03 5343.89C5157.44 5340.19 5149.84 5335.42 5143.24 5329.57C5136.96 5323.42 5131.84 5316.34 5127.88 5308.33C5124.24 5300.02 5122.43 5291.25 5122.43 5282.02V5099.63C5122.43 5090.39 5124.24 5081.78 5127.88 5073.77C5131.84 5065.46 5136.96 5058.38 5143.24 5052.53C5149.84 5046.38 5157.44 5041.6 5166.03 5038.22C5174.94 5034.52 5184.36 5032.68 5194.27 5032.68C5204.18 5032.68 5213.42 5034.52 5222.01 5038.22C5230.6 5041.6 5238.03 5046.38 5244.31 5052.53C5250.91 5058.38 5256.03 5065.46 5259.67 5073.77C5263.63 5081.78 5265.61 5090.39 5265.61 5099.63V5282.02C5265.61 5291.25 5263.63 5300.02 5259.67 5308.33C5256.03 5316.34 5250.91 5323.42 5244.31 5329.57C5238.03 5335.42 5230.6 5340.19 5222.01 5343.89C5213.42 5347.27 5204.18 5348.97 5194.27 5348.97ZM5194.27 5048.38C5186.67 5048.38 5179.4 5049.76 5172.47 5052.53C5165.86 5055.3 5160.08 5059 5155.13 5063.61C5150.17 5068.23 5146.21 5073.62 5143.24 5079.77C5140.26 5085.93 5138.78 5092.55 5138.78 5099.63V5282.02C5138.78 5289.1 5140.26 5295.87 5143.24 5302.33C5146.21 5308.49 5150.17 5313.88 5155.13 5318.49C5160.08 5323.11 5165.86 5326.8 5172.47 5329.57C5179.4 5332.34 5186.67 5333.73 5194.27 5333.73C5201.86 5333.73 5208.97 5332.34 5215.57 5329.57C5222.18 5326.8 5227.96 5323.11 5232.91 5318.49C5237.87 5313.88 5241.83 5308.49 5244.8 5302.33C5247.77 5295.87 5249.26 5289.1 5249.26 5282.02V5099.63C5249.26 5092.55 5247.77 5085.93 5244.8 5079.77C5241.83 5073.62 5237.87 5068.23 5232.91 5063.61C5227.96 5059 5222.18 5055.3 5215.57 5052.53C5208.97 5049.76 5201.86 5048.38 5194.27 5048.38Z" fill="#21AF9C"/>
<path d="M5554.64 5034.52V5050.22H5487.76V5346.66H5471.41V5050.22H5404.52V5034.52H5554.64Z" fill="#21AF9C"/>
<path d="M5828.49 5050.22H5714.54V5167.97H5808.18V5183.2H5714.54V5331.42H5828.49V5346.66H5698.19V5034.52H5828.49V5050.22Z" fill="#21AF9C"/>
<path d="M6034.33 5215.06H5993.71V5346.66H5977.36V5034.52H6037.8C6047.71 5034.52 6056.96 5036.22 6065.55 5039.6C6074.47 5042.99 6082.06 5047.76 6088.34 5053.92C6094.94 5059.77 6100.06 5066.69 6103.7 5074.7C6107.66 5082.7 6109.64 5091.32 6109.64 5100.55V5149.04C6109.64 5157.04 6108.16 5164.58 6105.18 5171.66C6102.21 5178.74 6098.08 5185.2 6092.8 5191.05C6087.51 5196.9 6081.4 5201.83 6074.47 5205.83C6067.53 5209.52 6059.93 5212.14 6051.68 5213.68L6112.12 5346.66H6094.28L6034.33 5215.06ZM5993.71 5199.83H6037.8C6045.4 5199.83 6052.5 5198.6 6059.11 5196.13C6065.71 5193.36 6071.49 5189.67 6076.45 5185.05C6081.4 5180.43 6085.37 5175.05 6088.34 5168.89C6091.31 5162.73 6092.8 5156.12 6092.8 5149.04V5100.55C6092.8 5093.78 6091.31 5087.32 6088.34 5081.16C6085.37 5075 6081.4 5069.62 6076.45 5065C6071.49 5060.38 6065.71 5056.69 6059.11 5053.92C6052.5 5051.15 6045.4 5049.76 6037.8 5049.76H5993.71V5199.83Z" fill="#21AF9C"/>
<path d="M6420.19 5346.66L6396.9 5248.77H6300.78L6277.5 5346.66H6260.65L6334.97 5034.52H6362.71L6437.03 5346.66H6420.19ZM6304.25 5233.53H6393.43L6348.84 5046.99L6304.25 5233.53Z" fill="#21AF9C"/>
<path d="M6646.1 5034.52C6656 5034.52 6665.09 5036.37 6673.35 5040.07C6681.93 5043.45 6689.36 5048.22 6695.64 5054.38C6702.25 5060.23 6707.37 5067.15 6711 5075.16C6714.63 5083.16 6716.45 5091.63 6716.45 5100.55V5164.27C6716.45 5173.2 6714.63 5181.51 6711 5189.21C6707.7 5196.9 6702.91 5203.67 6696.63 5209.52C6690.69 5215.37 6683.58 5220.14 6675.33 5223.84C6667.4 5227.53 6658.81 5229.69 6649.56 5230.3H6597.05V5346.66H6580.7V5034.52H6646.1ZM6700.1 5100.55C6700.1 5093.78 6698.61 5087.32 6695.64 5081.16C6692.67 5075 6688.7 5069.62 6683.75 5065C6678.8 5060.38 6673.02 5056.69 6666.41 5053.92C6659.8 5051.15 6652.7 5049.76 6645.1 5049.76H6597.05V5215.06H6646.1C6653.69 5215.06 6660.79 5213.68 6667.4 5210.91C6674.01 5208.14 6679.62 5204.44 6684.25 5199.83C6689.2 5195.21 6693 5189.98 6695.64 5184.13C6698.61 5177.97 6700.1 5171.35 6700.1 5164.27V5100.55Z" fill="#21AF9C"/>
<path d="M6891.22 5346.66H6874.87V5034.52H6891.22V5346.66Z" fill="#21AF9C"/>
<path d="M7199.15 5346.66L7175.87 5248.77H7079.75L7056.47 5346.66H7039.62L7113.94 5034.52H7141.68L7216 5346.66H7199.15ZM7083.22 5233.53H7172.4L7127.81 5046.99L7083.22 5233.53Z" fill="#21AF9C"/>
<path fill-rule="evenodd" clip-rule="evenodd" d="M136.302 5053.22H22.3497V5164.97H115.989V5186.2H22.3497V5349.66H0V5031.52H136.302V5053.22ZM19.3497 5183.2H112.989V5167.97H19.3497V5050.22H133.302V5034.52H3V5346.66H19.3497V5183.2ZM301.521 5349.66H279.171V5031.52H301.521V5349.66ZM533.923 5179.4L533.935 5179.41C542.23 5185.6 550.357 5192.09 558.319 5198.89C566.722 5205.47 574.131 5212.85 580.539 5221.01C587.344 5228.95 592.779 5237.99 596.85 5248.1C600.987 5258.06 603.018 5269.39 603.018 5282.02C603.018 5291.69 600.941 5300.89 596.791 5309.6C592.991 5317.97 587.639 5325.36 580.759 5331.77C574.21 5337.87 566.48 5342.83 557.604 5346.64L557.562 5346.66L557.519 5346.68C548.556 5350.21 538.932 5351.97 528.674 5351.97C518.416 5351.97 508.64 5350.21 499.369 5346.69L499.308 5346.67L499.248 5346.64C490.385 5342.83 482.513 5337.89 475.655 5331.82L475.597 5331.77L475.542 5331.72C469.023 5325.32 463.706 5317.97 459.596 5309.67L459.564 5309.6L459.536 5309.54C455.734 5300.84 453.835 5291.66 453.835 5282.02V5279.02H476.184V5282.02C476.184 5288.65 477.572 5294.99 480.358 5301.05C483.169 5306.87 486.907 5311.94 491.579 5316.3C496.254 5320.65 501.722 5324.16 508.011 5326.8C514.58 5329.42 521.46 5330.73 528.674 5330.73C535.897 5330.73 542.601 5329.42 548.818 5326.81C555.116 5324.17 560.592 5320.66 565.273 5316.3C569.946 5311.94 573.684 5306.87 576.495 5301.05C579.28 5294.99 580.668 5288.65 580.668 5282.02C580.668 5271.9 578.914 5262.93 575.47 5255.05L575.449 5255L575.43 5254.96C572.255 5246.97 567.812 5239.72 562.091 5233.2L562.042 5233.15L561.995 5233.09C556.541 5226.21 550.113 5219.92 542.698 5214.21L542.642 5214.17L542.589 5214.12C535.375 5208.01 527.831 5202.05 519.957 5196.24C512.009 5190.37 504.062 5184.36 496.116 5178.19L496.063 5178.14L496.012 5178.1C488.296 5171.53 481.245 5164.49 474.861 5156.98L474.836 5156.95L474.811 5156.92C468.697 5149.32 463.608 5140.94 459.543 5131.78L459.523 5131.74L459.506 5131.7C455.699 5122.34 453.835 5111.63 453.835 5099.63C453.835 5089.99 455.734 5080.94 459.553 5072.53L459.564 5072.51L459.577 5072.48C463.69 5063.85 469.027 5056.46 475.598 5050.34C482.479 5043.93 490.39 5038.96 499.309 5035.44C508.594 5031.59 518.391 5029.68 528.674 5029.68C538.949 5029.68 548.59 5031.59 557.562 5035.44C566.461 5038.96 574.206 5043.92 580.76 5050.34C587.656 5056.46 593.002 5063.86 596.793 5072.5C600.947 5080.92 603.018 5089.97 603.018 5099.63V5102.63H580.668V5099.63C580.668 5092.98 579.277 5086.81 576.508 5081.08C573.695 5075.25 569.953 5070.17 565.273 5065.81C560.592 5061.45 555.116 5057.94 548.818 5055.3C542.601 5052.69 535.897 5051.38 528.674 5051.38C521.46 5051.38 514.58 5052.69 508.011 5055.31C501.722 5057.95 496.254 5061.45 491.579 5065.81C486.899 5070.17 483.157 5075.25 480.345 5081.08C477.576 5086.81 476.184 5092.98 476.184 5099.63C476.184 5109.13 477.775 5117.49 480.886 5124.74C484.07 5131.86 488.21 5138.54 493.315 5144.79C498.799 5151.1 504.935 5157.13 511.725 5162.86C518.955 5168.37 526.35 5173.88 533.91 5179.39L533.923 5179.4ZM509.847 5165.2C502.911 5159.35 496.635 5153.19 491.02 5146.73C485.735 5140.26 481.442 5133.34 478.139 5125.95C474.836 5118.25 473.184 5109.48 473.184 5099.63C473.184 5092.55 474.671 5085.93 477.643 5079.77C480.616 5073.62 484.579 5068.23 489.534 5063.61C494.488 5059 500.268 5055.3 506.874 5052.53C513.811 5049.76 521.077 5048.38 528.674 5048.38C536.271 5048.38 543.372 5049.76 549.978 5052.53C556.584 5055.3 562.364 5059 567.319 5063.61C572.273 5068.23 576.237 5073.62 579.209 5079.77C582.182 5085.93 583.668 5092.55 583.668 5099.63H600.018C600.018 5098.62 599.994 5097.62 599.947 5096.63C599.562 5088.52 597.604 5080.9 594.073 5073.77C590.439 5065.46 585.32 5058.38 578.714 5052.53C572.438 5046.38 565.007 5041.6 556.419 5038.22C547.831 5034.52 538.583 5032.68 528.674 5032.68C518.765 5032.68 509.352 5034.52 500.434 5038.22C491.846 5041.6 484.249 5046.38 477.643 5052.53C471.368 5058.38 466.248 5065.46 462.284 5073.77C458.651 5081.78 456.835 5090.39 456.835 5099.63C456.835 5111.33 458.651 5121.64 462.284 5130.57C466.248 5139.49 471.202 5147.65 477.148 5155.04C483.423 5162.43 490.36 5169.35 497.956 5175.82C505.884 5181.97 513.811 5187.98 521.738 5193.82C529.665 5199.67 537.262 5205.68 544.528 5211.83C552.125 5217.68 558.731 5224.14 564.346 5231.22C570.291 5238 574.915 5245.54 578.218 5253.85C581.852 5262.16 583.668 5271.55 583.668 5282.02C583.668 5289.1 582.182 5295.87 579.209 5302.33C576.237 5308.49 572.273 5313.88 567.319 5318.49C562.364 5323.11 556.584 5326.8 549.978 5329.57C543.372 5332.34 536.271 5333.73 528.674 5333.73C521.077 5333.73 513.811 5332.34 506.874 5329.57C500.268 5326.8 494.488 5323.11 489.534 5318.49C484.579 5313.88 480.616 5308.49 477.643 5302.33C474.671 5295.87 473.184 5289.1 473.184 5282.02H456.835C456.835 5283.02 456.856 5284.02 456.899 5285.02C457.252 5293.16 459.047 5300.93 462.284 5308.33C466.248 5316.34 471.368 5323.42 477.643 5329.57C484.249 5335.42 491.846 5340.19 500.434 5343.89C509.352 5347.27 518.765 5348.97 528.674 5348.97C538.583 5348.97 547.831 5347.27 556.419 5343.89C565.007 5340.19 572.438 5335.42 578.714 5329.57C585.32 5323.42 590.439 5316.34 594.073 5308.33C598.036 5300.02 600.018 5291.25 600.018 5282.02C600.018 5269.7 598.036 5258.77 594.073 5249.23C590.109 5239.38 584.824 5230.61 578.218 5222.91C571.943 5214.91 564.676 5207.68 556.419 5201.21C548.492 5194.44 540.399 5187.98 532.142 5181.82C524.545 5176.28 517.114 5170.74 509.847 5165.2ZM778.095 5349.66H755.746V5031.52H778.095V5349.66ZM975.883 5346.67L975.823 5346.64C966.96 5342.83 959.088 5337.89 952.229 5331.82L952.172 5331.77L952.117 5331.72C945.598 5325.32 940.281 5317.97 936.171 5309.67L936.139 5309.6L936.11 5309.54C932.308 5300.84 930.409 5291.66 930.409 5282.02V5099.63C930.409 5089.99 932.308 5080.94 936.127 5072.53L936.139 5072.51L936.151 5072.48C940.265 5063.85 945.602 5056.46 952.172 5050.34C959.054 5043.92 966.965 5038.96 975.885 5035.44C985.169 5031.59 994.966 5029.68 1005.25 5029.68C1015.52 5029.68 1025.16 5031.59 1034.14 5035.44C1043.04 5038.96 1050.78 5043.92 1057.34 5050.34C1064.23 5056.46 1069.58 5063.86 1073.37 5072.5C1077.52 5080.92 1079.59 5089.97 1079.59 5099.63V5282.02C1079.59 5291.69 1077.52 5300.89 1073.37 5309.6C1069.57 5317.97 1064.21 5325.36 1057.33 5331.77C1050.78 5337.87 1043.05 5342.83 1034.18 5346.64L1034.14 5346.66L1034.09 5346.68C1025.13 5350.21 1015.51 5351.97 1005.25 5351.97C994.99 5351.97 985.215 5350.21 975.943 5346.69L975.883 5346.67ZM1070.65 5308.33C1074.61 5300.02 1076.59 5291.25 1076.59 5282.02V5099.63C1076.59 5090.39 1074.61 5081.78 1070.65 5073.77C1067.01 5065.46 1061.89 5058.38 1055.29 5052.53C1049.01 5046.38 1041.58 5041.6 1032.99 5038.22C1024.41 5034.52 1015.16 5032.68 1005.25 5032.68C995.34 5032.68 985.926 5034.52 977.008 5038.22C968.421 5041.6 960.824 5046.38 954.218 5052.53C947.942 5058.38 942.823 5065.46 938.859 5073.77C935.226 5081.78 933.409 5090.39 933.409 5099.63V5282.02C933.409 5291.25 935.226 5300.02 938.859 5308.33C942.823 5316.34 947.942 5323.42 954.218 5329.57C960.824 5335.42 968.421 5340.19 977.008 5343.89C985.926 5347.27 995.34 5348.97 1005.25 5348.97C1015.16 5348.97 1024.41 5347.27 1032.99 5343.89C1041.58 5340.19 1049.01 5335.42 1055.29 5329.57C1061.89 5323.42 1067.01 5316.34 1070.65 5308.33ZM1368.62 5031.52V5053.22H1301.74V5349.66H1279.39V5053.22H1212.5V5031.52H1368.62ZM1282.39 5050.22V5346.66H1298.74V5050.22H1365.62V5034.52H1215.5V5050.22H1282.39ZM1642.47 5053.22H1528.52V5164.97H1622.16V5186.2H1528.52V5328.42H1642.47V5349.66H1506.17V5031.52H1642.47V5053.22ZM1525.52 5331.42V5183.2H1619.16V5167.97H1525.52V5050.22H1639.47V5034.52H1509.17V5346.66H1639.47V5331.42H1525.52ZM1905.27 5346.66L1845.32 5215.06H1804.69V5346.66H1788.34V5034.52H1848.78C1858.69 5034.52 1867.94 5036.22 1876.53 5039.6C1885.45 5042.99 1893.04 5047.76 1899.32 5053.92C1905.93 5059.77 1911.05 5066.69 1914.68 5074.7C1918.64 5082.7 1920.62 5091.32 1920.62 5100.55V5149.04C1920.62 5157.04 1919.14 5164.58 1916.17 5171.66C1913.19 5178.74 1909.06 5185.2 1903.78 5191.05C1898.49 5196.9 1892.38 5201.83 1885.45 5205.83C1879.36 5209.07 1872.77 5211.48 1865.67 5213.06C1864.68 5213.28 1863.67 5213.49 1862.66 5213.68L1923.1 5346.66H1905.27ZM1866.94 5215.85L1927.76 5349.66H1903.34L1843.39 5218.06H1807.69V5349.66H1785.34V5031.52H1848.78C1859.04 5031.52 1868.65 5033.28 1877.61 5036.81C1886.85 5040.32 1894.78 5045.28 1901.37 5051.72C1908.25 5057.83 1913.59 5065.06 1917.39 5073.41C1921.55 5081.83 1923.62 5090.89 1923.62 5100.55V5149.04C1923.62 5157.42 1922.06 5165.36 1918.93 5172.82C1915.82 5180.22 1911.51 5186.97 1906 5193.06C1900.51 5199.15 1894.15 5204.27 1886.95 5208.43L1886.9 5208.45L1886.86 5208.48C1880.7 5211.76 1874.06 5214.21 1866.94 5215.85ZM2228.8 5349.66L2205.51 5251.77H2114.14L2090.85 5349.66H2067.84L2143.58 5031.52H2176.07L2251.81 5349.66H2228.8ZM2111.76 5248.77H2207.88L2231.17 5346.66H2248.01L2173.7 5034.52H2145.95L2071.63 5346.66H2088.48L2111.76 5248.77ZM2460.65 5233.3H2411.03V5349.66H2388.68V5031.52H2457.08C2467.34 5031.52 2476.83 5033.44 2485.49 5037.3C2494.38 5040.81 2502.12 5045.77 2508.67 5052.18C2515.56 5058.3 2520.91 5065.55 2524.71 5073.92C2528.53 5082.32 2530.43 5091.21 2530.43 5100.55V5164.27C2530.43 5173.6 2528.53 5182.34 2524.72 5190.44C2521.25 5198.49 2516.23 5205.58 2509.69 5211.69C2503.48 5217.79 2496.09 5222.75 2487.55 5226.57C2479.28 5230.42 2470.33 5232.66 2460.75 5233.29L2460.65 5233.3ZM2486.31 5223.84C2478.38 5227.53 2469.79 5229.69 2460.55 5230.3H2408.03V5346.66H2391.68V5034.52H2457.08C2466.99 5034.52 2476.07 5036.37 2484.33 5040.07C2492.92 5043.45 2500.35 5048.22 2506.62 5054.38C2513.23 5060.23 2518.35 5067.15 2521.98 5075.16C2525.61 5083.16 2527.43 5091.63 2527.43 5100.55V5164.27C2527.43 5173.2 2525.61 5181.51 2521.98 5189.21C2518.68 5196.9 2513.89 5203.67 2507.61 5209.52C2501.67 5215.37 2494.57 5220.14 2486.31 5223.84ZM2493.14 5197.67L2493.18 5197.63C2497.86 5193.27 2501.42 5188.36 2503.89 5182.89L2503.9 5182.86L2503.92 5182.82C2506.69 5177.09 2508.08 5170.92 2508.08 5164.27V5100.55C2508.08 5094.24 2506.7 5088.22 2503.92 5082.46C2501.11 5076.64 2497.37 5071.56 2492.69 5067.19C2488.01 5062.83 2482.53 5059.33 2476.23 5056.68C2470.01 5054.08 2463.31 5052.76 2456.09 5052.76H2411.03V5212.06H2457.08C2464.3 5212.06 2471.01 5210.75 2477.22 5208.14C2483.5 5205.51 2488.78 5202.02 2493.11 5197.7L2493.14 5197.67ZM2457.08 5215.06C2464.67 5215.06 2471.78 5213.68 2478.38 5210.91C2484.99 5208.14 2490.6 5204.44 2495.23 5199.83C2500.18 5195.21 2503.98 5189.98 2506.62 5184.13C2509.59 5177.97 2511.08 5171.35 2511.08 5164.27V5100.55C2511.08 5093.78 2509.59 5087.32 2506.62 5081.16C2503.65 5075 2499.69 5069.62 2494.73 5065C2489.78 5060.38 2484 5056.69 2477.39 5053.92C2470.79 5051.15 2463.68 5049.76 2456.09 5049.76H2408.03V5215.06H2457.08ZM2705.2 5349.66H2682.85V5031.52H2705.2V5349.66ZM3007.77 5349.66L2984.48 5251.77H2893.1L2869.82 5349.66H2846.81L2922.55 5031.52H2955.03L3030.78 5349.66H3007.77ZM2890.73 5248.77H2986.85L3010.14 5346.66H3026.98L2952.67 5034.52H2924.92L2850.6 5346.66H2867.45L2890.73 5248.77ZM3504.74 5053.22H3390.79V5164.97H3484.43V5186.2H3390.79V5328.42H3504.74V5349.66H3368.44V5031.52H3504.74V5053.22ZM3387.79 5331.42V5183.2H3481.43V5167.97H3387.79V5050.22H3501.74V5034.52H3371.44V5346.66H3501.74V5331.42H3387.79ZM4031.18 5031.52H4053.07V5349.66H4030.72V5093.86L3950.99 5298.09L3870.75 5093.77V5349.66H3848.4V5031.52H3870.29L3950.98 5236.85L4031.18 5031.52ZM3950.98 5245.08L3868.25 5034.52H3851.4V5346.66H3867.75V5077.93L3950.98 5289.87L4033.72 5077.93V5346.66H4050.07V5034.52H4033.23L3950.98 5245.08ZM4355.72 5349.66L4332.44 5251.77H4241.06L4217.78 5349.66H4194.76L4270.51 5031.52H4302.99L4378.74 5349.66H4355.72ZM4238.69 5248.77H4334.81L4358.09 5346.66H4374.94L4300.62 5034.52H4272.88L4198.56 5346.66H4215.41L4238.69 5248.77ZM4595.69 5179.4L4595.71 5179.41C4604 5185.6 4612.13 5192.09 4620.09 5198.89C4628.49 5205.48 4635.9 5212.85 4642.31 5221.01C4649.12 5228.95 4654.55 5237.99 4658.62 5248.1C4662.76 5258.07 4664.79 5269.39 4664.79 5282.02C4664.79 5291.69 4662.71 5300.89 4658.56 5309.6C4654.76 5317.96 4649.41 5325.36 4642.53 5331.77C4635.98 5337.87 4628.25 5342.83 4619.38 5346.64L4619.33 5346.66L4619.29 5346.68C4610.33 5350.21 4600.7 5351.97 4590.44 5351.97C4580.19 5351.97 4570.41 5350.21 4561.14 5346.69L4561.08 5346.67L4561.02 5346.64C4552.16 5342.83 4544.28 5337.89 4537.43 5331.82L4537.37 5331.77L4537.31 5331.72C4530.79 5325.32 4525.48 5317.97 4521.37 5309.67L4521.33 5309.6L4521.31 5309.54C4517.5 5300.84 4515.61 5291.66 4515.61 5282.02V5279.02H4537.96V5282.02C4537.96 5288.65 4539.34 5294.98 4542.13 5301.05C4544.94 5306.86 4548.68 5311.94 4553.35 5316.3C4558.02 5320.65 4563.49 5324.16 4569.78 5326.8C4576.35 5329.42 4583.23 5330.73 4590.44 5330.73C4597.67 5330.73 4604.37 5329.42 4610.59 5326.81C4616.89 5324.17 4622.36 5320.66 4627.04 5316.3C4631.72 5311.94 4635.46 5306.86 4638.27 5301.05C4641.05 5294.98 4642.44 5288.65 4642.44 5282.02C4642.44 5271.9 4640.68 5262.93 4637.24 5255.05L4637.22 5255L4637.2 5254.96C4634.03 5246.97 4629.58 5239.72 4623.86 5233.2L4623.81 5233.15L4623.77 5233.09C4618.31 5226.21 4611.88 5219.92 4604.47 5214.21L4604.41 5214.17L4604.36 5214.12C4597.15 5208.01 4589.6 5202.05 4581.73 5196.24C4573.78 5190.37 4565.83 5184.36 4557.89 5178.19L4557.83 5178.14L4557.78 5178.1C4550.07 5171.53 4543.02 5164.49 4536.63 5156.98L4536.61 5156.95L4536.58 5156.92C4530.47 5149.32 4525.38 5140.94 4521.31 5131.78L4521.29 5131.74L4521.28 5131.7C4517.47 5122.34 4515.61 5111.63 4515.61 5099.63C4515.61 5089.99 4517.5 5080.94 4521.32 5072.53L4521.33 5072.51L4521.35 5072.48C4525.46 5063.85 4530.8 5056.46 4537.37 5050.34C4544.25 5043.93 4552.16 5038.96 4561.07 5035.44C4570.36 5031.6 4580.16 5029.68 4590.44 5029.68C4600.72 5029.68 4610.36 5031.59 4619.33 5035.44C4628.23 5038.96 4635.98 5043.92 4642.53 5050.34C4649.43 5056.46 4654.77 5063.86 4658.56 5072.51C4662.72 5080.92 4664.79 5089.97 4664.79 5099.63V5102.63H4642.44V5099.63C4642.44 5092.98 4641.05 5086.81 4638.28 5081.08C4635.47 5075.25 4631.72 5070.17 4627.04 5065.81C4622.36 5061.45 4616.89 5057.94 4610.59 5055.3C4604.37 5052.69 4597.67 5051.38 4590.44 5051.38C4583.23 5051.38 4576.35 5052.69 4569.78 5055.31C4563.49 5057.95 4558.02 5061.45 4553.35 5065.81C4548.67 5070.17 4544.93 5075.25 4542.12 5081.08C4539.35 5086.81 4537.96 5092.98 4537.96 5099.63C4537.96 5109.13 4539.55 5117.49 4542.66 5124.75C4545.84 5131.86 4549.98 5138.54 4555.08 5144.79C4560.57 5151.1 4566.7 5157.12 4573.5 5162.85C4580.73 5168.37 4588.12 5173.88 4595.68 5179.39L4595.69 5179.4ZM4571.62 5165.2C4564.68 5159.35 4558.41 5153.19 4552.79 5146.73C4547.51 5140.26 4543.21 5133.34 4539.91 5125.95C4536.61 5118.25 4534.96 5109.48 4534.96 5099.63C4534.96 5092.55 4536.44 5085.93 4539.41 5079.77C4542.39 5073.62 4546.35 5068.23 4551.3 5063.61C4556.26 5059 4562.04 5055.3 4568.65 5052.53C4575.58 5049.76 4582.85 5048.38 4590.44 5048.38C4598.04 5048.38 4605.14 5049.76 4611.75 5052.53C4618.35 5055.3 4624.13 5059 4629.09 5063.61C4634.04 5068.23 4638.01 5073.62 4640.98 5079.77C4643.95 5085.93 4645.44 5092.55 4645.44 5099.63H4661.79C4661.79 5098.62 4661.77 5097.62 4661.72 5096.63C4661.33 5088.52 4659.37 5080.9 4655.84 5073.77C4652.21 5065.46 4647.09 5058.38 4640.48 5052.53C4634.21 5046.38 4626.78 5041.6 4618.19 5038.22C4609.6 5034.52 4600.35 5032.68 4590.44 5032.68C4580.54 5032.68 4571.12 5034.52 4562.2 5038.22C4553.62 5041.6 4546.02 5046.38 4539.41 5052.53C4533.14 5058.38 4528.02 5065.46 4524.06 5073.77C4520.42 5081.78 4518.61 5090.39 4518.61 5099.63C4518.61 5111.33 4520.42 5121.64 4524.06 5130.57C4528.02 5139.49 4532.97 5147.65 4538.92 5155.04C4545.19 5162.43 4552.13 5169.35 4559.73 5175.82C4567.65 5181.97 4575.58 5187.98 4583.51 5193.82C4591.44 5199.67 4599.03 5205.68 4606.3 5211.83C4613.9 5217.68 4620.5 5224.14 4626.12 5231.22C4632.06 5238 4636.69 5245.54 4639.99 5253.85C4643.62 5262.16 4645.44 5271.55 4645.44 5282.02C4645.44 5289.1 4643.95 5295.87 4640.98 5302.33C4638.01 5308.49 4634.04 5313.88 4629.09 5318.49C4624.13 5323.11 4618.35 5326.8 4611.75 5329.57C4605.14 5332.34 4598.04 5333.73 4590.44 5333.73C4582.85 5333.73 4575.58 5332.34 4568.65 5329.57C4562.04 5326.8 4556.26 5323.11 4551.3 5318.49C4546.35 5313.88 4542.39 5308.49 4539.41 5302.33C4536.44 5295.87 4534.96 5289.1 4534.96 5282.02H4518.61C4518.61 5283.02 4518.63 5284.02 4518.67 5285.02C4519.02 5293.16 4520.82 5300.93 4524.06 5308.33C4528.02 5316.34 4533.14 5323.42 4539.41 5329.57C4546.02 5335.42 4553.62 5340.19 4562.2 5343.89C4571.12 5347.27 4580.54 5348.97 4590.44 5348.97C4600.35 5348.97 4609.6 5347.27 4618.19 5343.89C4626.78 5340.19 4634.21 5335.42 4640.48 5329.57C4647.09 5323.42 4652.21 5316.34 4655.84 5308.33C4659.81 5300.02 4661.79 5291.25 4661.79 5282.02C4661.79 5269.7 4659.81 5258.77 4655.84 5249.23C4651.88 5239.38 4646.6 5230.61 4639.99 5222.91C4633.71 5214.91 4626.45 5207.68 4618.19 5201.21C4610.26 5194.44 4602.17 5187.98 4593.91 5181.82C4586.32 5176.28 4578.88 5170.74 4571.62 5165.2ZM4897.6 5179.4L4897.62 5179.41C4905.91 5185.6 4914.04 5192.09 4922 5198.89C4930.4 5205.47 4937.81 5212.85 4944.22 5221.01C4951.02 5228.95 4956.46 5237.98 4960.53 5248.08C4964.67 5258.05 4966.7 5269.38 4966.7 5282.02C4966.7 5291.69 4964.62 5300.89 4960.48 5309.6C4956.68 5317.96 4951.32 5325.36 4944.44 5331.77C4937.89 5337.87 4930.16 5342.83 4921.29 5346.64L4921.24 5346.66L4921.2 5346.68C4912.24 5350.21 4902.61 5351.97 4892.36 5351.97C4882.1 5351.97 4872.32 5350.21 4863.05 5346.69L4862.99 5346.67L4862.93 5346.64C4854.07 5342.83 4846.2 5337.89 4839.34 5331.82L4839.28 5331.77L4839.22 5331.72C4832.71 5325.32 4827.39 5317.97 4823.28 5309.67L4823.25 5309.6L4823.22 5309.54C4819.42 5300.84 4817.52 5291.66 4817.52 5282.02V5279.02H4839.87V5282.02C4839.87 5288.65 4841.25 5294.98 4844.04 5301.05C4846.85 5306.86 4850.59 5311.94 4855.26 5316.3C4859.94 5320.66 4865.41 5324.16 4871.7 5326.8C4878.27 5329.42 4885.15 5330.73 4892.36 5330.73C4899.58 5330.73 4906.28 5329.42 4912.5 5326.81C4918.8 5324.17 4924.27 5320.66 4928.96 5316.3C4933.62 5311.95 4937.36 5306.88 4940.17 5301.07C4942.96 5295 4944.35 5288.66 4944.35 5282.02C4944.35 5271.9 4942.6 5262.93 4939.15 5255.05L4939.13 5255L4939.11 5254.96C4935.94 5246.97 4931.49 5239.72 4925.77 5233.2L4925.72 5233.15L4925.68 5233.09C4920.22 5226.21 4913.79 5219.92 4906.38 5214.21L4906.32 5214.17L4906.27 5214.12C4899.06 5208.01 4891.51 5202.05 4883.64 5196.24C4875.69 5190.37 4867.74 5184.36 4859.8 5178.19L4859.75 5178.14L4859.69 5178.1C4851.98 5171.53 4844.93 5164.49 4838.54 5156.98L4838.52 5156.95L4838.49 5156.92C4832.38 5149.32 4827.29 5140.94 4823.22 5131.78L4823.21 5131.74L4823.19 5131.7C4819.38 5122.34 4817.52 5111.63 4817.52 5099.63C4817.52 5089.99 4819.42 5080.94 4823.23 5072.53L4823.25 5072.51L4823.26 5072.48C4827.37 5063.85 4832.71 5056.46 4839.28 5050.34C4846.16 5043.92 4854.08 5038.96 4863 5035.44C4872.28 5031.59 4882.07 5029.68 4892.36 5029.68C4902.63 5029.68 4912.27 5031.59 4921.24 5035.44C4930.14 5038.96 4937.89 5043.92 4944.44 5050.34C4951.34 5056.46 4956.69 5063.86 4960.48 5072.51C4964.63 5080.92 4966.7 5089.97 4966.7 5099.63V5102.63H4944.35V5099.63C4944.35 5092.98 4942.96 5086.81 4940.19 5081.08C4937.38 5075.25 4933.64 5070.17 4928.96 5065.81C4924.27 5061.45 4918.8 5057.94 4912.5 5055.3C4906.28 5052.69 4899.58 5051.38 4892.36 5051.38C4885.15 5051.38 4878.27 5052.69 4871.7 5055.31C4865.41 5057.95 4859.94 5061.45 4855.26 5065.81C4850.58 5070.17 4846.84 5075.25 4844.03 5081.08C4841.26 5086.81 4839.87 5092.98 4839.87 5099.63C4839.87 5109.13 4841.46 5117.49 4844.57 5124.75C4847.75 5131.86 4851.89 5138.54 4856.99 5144.79C4862.48 5151.1 4868.62 5157.12 4875.41 5162.85C4882.64 5168.37 4890.03 5173.88 4897.59 5179.39L4897.6 5179.4ZM4873.53 5165.2C4866.59 5159.35 4860.32 5153.19 4854.7 5146.73C4849.42 5140.26 4845.12 5133.34 4841.82 5125.95C4838.52 5118.25 4836.87 5109.48 4836.87 5099.63C4836.87 5092.55 4838.35 5085.93 4841.33 5079.77C4844.3 5073.62 4848.26 5068.23 4853.22 5063.61C4858.17 5059 4863.95 5055.3 4870.56 5052.53C4877.49 5049.76 4884.76 5048.38 4892.36 5048.38C4899.95 5048.38 4907.05 5049.76 4913.66 5052.53C4920.27 5055.3 4926.05 5059 4931 5063.61C4935.96 5068.23 4939.92 5073.62 4942.89 5079.77C4945.86 5085.93 4947.35 5092.55 4947.35 5099.63H4963.7C4963.7 5098.62 4963.68 5097.62 4963.63 5096.63C4963.24 5088.52 4961.29 5080.9 4957.75 5073.77C4954.12 5065.46 4949 5058.38 4942.4 5052.53C4936.12 5046.38 4928.69 5041.6 4920.1 5038.22C4911.51 5034.52 4902.26 5032.68 4892.36 5032.68C4882.45 5032.68 4873.03 5034.52 4864.12 5038.22C4855.53 5041.6 4847.93 5046.38 4841.33 5052.53C4835.05 5058.38 4829.93 5065.46 4825.97 5073.77C4822.33 5081.78 4820.52 5090.39 4820.52 5099.63C4820.52 5111.33 4822.33 5121.64 4825.97 5130.57C4829.93 5139.49 4834.88 5147.65 4840.83 5155.04C4847.11 5162.43 4854.04 5169.35 4861.64 5175.82C4869.57 5181.97 4877.49 5187.98 4885.42 5193.82C4893.35 5199.67 4900.94 5205.68 4908.21 5211.83C4915.81 5217.68 4922.41 5224.14 4928.03 5231.22C4933.97 5238 4938.6 5245.54 4941.9 5253.85C4945.53 5262.16 4947.35 5271.55 4947.35 5282.02C4947.35 5289.1 4945.86 5295.87 4942.89 5302.33C4939.92 5308.49 4935.96 5313.88 4931 5318.49C4926.05 5323.11 4920.27 5326.8 4913.66 5329.57C4907.05 5332.34 4899.95 5333.73 4892.36 5333.73C4884.76 5333.73 4877.49 5332.34 4870.56 5329.57C4863.95 5326.8 4858.17 5323.11 4853.22 5318.49C4848.26 5313.88 4844.3 5308.49 4841.33 5302.33C4838.35 5295.87 4836.87 5289.1 4836.87 5282.02H4820.52C4820.52 5283.02 4820.54 5284.02 4820.58 5285.02C4820.93 5293.16 4822.73 5300.93 4825.97 5308.33C4829.93 5316.34 4835.05 5323.42 4841.33 5329.57C4847.93 5335.42 4855.53 5340.19 4864.12 5343.89C4873.03 5347.27 4882.45 5348.97 4892.36 5348.97C4902.26 5348.97 4911.51 5347.27 4920.1 5343.89C4928.69 5340.19 4936.12 5335.42 4942.4 5329.57C4949 5323.42 4954.12 5316.34 4957.75 5308.33C4961.72 5300.02 4963.7 5291.25 4963.7 5282.02C4963.7 5269.7 4961.72 5258.77 4957.75 5249.23C4953.79 5239.38 4948.51 5230.61 4941.9 5222.91C4935.62 5214.91 4928.36 5207.68 4920.1 5201.21C4912.17 5194.44 4904.08 5187.98 4895.82 5181.82C4888.23 5176.28 4880.8 5170.74 4873.53 5165.2ZM5164.9 5346.67L5164.84 5346.64C5155.98 5342.83 5148.11 5337.89 5141.25 5331.82L5141.19 5331.77L5141.14 5331.72C5134.62 5325.32 5129.3 5317.97 5125.19 5309.67L5125.16 5309.6L5125.13 5309.54C5121.33 5300.84 5119.43 5291.66 5119.43 5282.02V5099.63C5119.43 5089.99 5121.33 5080.94 5125.15 5072.53L5125.16 5072.51L5125.17 5072.48C5129.28 5063.85 5134.62 5056.46 5141.19 5050.34C5148.07 5043.93 5155.98 5038.96 5164.9 5035.44C5174.18 5031.6 5183.98 5029.68 5194.27 5029.68C5204.54 5029.68 5214.18 5031.59 5223.15 5035.44C5232.05 5038.96 5239.8 5043.92 5246.35 5050.34C5253.25 5056.46 5258.6 5063.86 5262.39 5072.51C5266.54 5080.92 5268.61 5089.97 5268.61 5099.63V5282.02C5268.61 5291.69 5266.53 5300.89 5262.39 5309.6C5258.59 5317.96 5253.23 5325.36 5246.35 5331.77C5239.8 5337.87 5232.07 5342.83 5223.2 5346.64L5223.16 5346.66L5223.11 5346.68C5214.15 5350.21 5204.52 5351.97 5194.27 5351.97C5184.01 5351.97 5174.23 5350.21 5164.96 5346.69L5164.9 5346.67ZM5259.67 5308.33C5263.63 5300.02 5265.61 5291.25 5265.61 5282.02V5099.63C5265.61 5090.39 5263.63 5081.78 5259.67 5073.77C5256.03 5065.46 5250.91 5058.38 5244.31 5052.53C5238.03 5046.38 5230.6 5041.6 5222.01 5038.22C5213.42 5034.52 5204.18 5032.68 5194.27 5032.68C5184.36 5032.68 5174.95 5034.52 5166.03 5038.22C5157.44 5041.6 5149.84 5046.38 5143.24 5052.53C5136.96 5058.38 5131.84 5065.46 5127.88 5073.77C5124.24 5081.78 5122.43 5090.39 5122.43 5099.63V5282.02C5122.43 5291.25 5124.24 5300.02 5127.88 5308.33C5131.84 5316.34 5136.96 5323.42 5143.24 5329.57C5149.84 5335.42 5157.44 5340.19 5166.03 5343.89C5174.95 5347.27 5184.36 5348.97 5194.27 5348.97C5204.18 5348.97 5213.42 5347.27 5222.01 5343.89C5230.6 5340.19 5238.03 5335.42 5244.31 5329.57C5250.91 5323.42 5256.03 5316.34 5259.67 5308.33ZM5557.64 5031.52V5053.22H5490.76V5349.66H5468.41V5053.22H5401.52V5031.52H5557.64ZM5471.41 5050.22V5346.66H5487.76V5050.22H5554.64V5034.52H5404.52V5050.22H5471.41ZM5831.49 5053.22H5717.54V5164.97H5811.18V5186.2H5717.54V5328.42H5831.49V5349.66H5695.19V5031.52H5831.49V5053.22ZM5714.54 5331.42V5183.2H5808.18V5167.97H5714.54V5050.22H5828.49V5034.52H5698.19V5346.66H5828.49V5331.42H5714.54ZM6094.28 5346.66L6034.34 5215.06H5993.71V5346.66H5977.36V5034.52H6037.8C6047.71 5034.52 6056.96 5036.22 6065.55 5039.6C6074.47 5042.99 6082.06 5047.76 6088.34 5053.92C6094.94 5059.77 6100.06 5066.69 6103.7 5074.7C6107.66 5082.7 6109.64 5091.32 6109.64 5100.55V5149.04C6109.64 5157.04 6108.16 5164.58 6105.18 5171.66C6102.21 5178.74 6098.08 5185.2 6092.8 5191.05C6087.51 5196.9 6081.4 5201.83 6074.47 5205.83C6068.38 5209.07 6061.79 5211.48 6054.69 5213.06C6053.7 5213.28 6052.69 5213.49 6051.68 5213.68L6112.12 5346.66H6094.28ZM6055.96 5215.85L6116.78 5349.66H6092.35L6032.41 5218.06H5996.71V5349.66H5974.36V5031.52H6037.8C6048.06 5031.52 6057.68 5033.28 6066.63 5036.81C6075.87 5040.32 6083.81 5045.28 6090.39 5051.72C6097.27 5057.83 6102.61 5065.07 6106.41 5073.41C6110.57 5081.83 6112.64 5090.89 6112.64 5100.55V5149.04C6112.64 5157.42 6111.08 5165.36 6107.95 5172.82C6104.84 5180.22 6100.53 5186.97 6095.02 5193.06C6089.53 5199.15 6083.17 5204.27 6075.97 5208.43L6075.92 5208.45L6075.88 5208.48C6069.72 5211.76 6063.07 5214.21 6055.96 5215.85ZM6417.82 5349.66L6394.53 5251.77H6303.15L6279.87 5349.66H6256.85L6332.6 5031.52H6365.08L6440.83 5349.66H6417.82ZM6300.78 5248.77H6396.9L6420.19 5346.66H6437.03L6362.71 5034.52H6334.97L6260.65 5346.66H6277.5L6300.78 5248.77ZM6649.66 5233.3H6600.05V5349.66H6577.7V5031.52H6646.1C6656.36 5031.52 6665.85 5033.44 6674.51 5037.3C6683.4 5040.81 6691.14 5045.77 6697.69 5052.18C6704.58 5058.3 6709.93 5065.55 6713.73 5073.92C6717.54 5082.32 6719.45 5091.21 6719.45 5100.55V5164.27C6719.45 5173.6 6717.55 5182.34 6713.74 5190.44C6710.27 5198.49 6705.25 5205.58 6698.71 5211.69C6692.5 5217.79 6685.11 5222.75 6676.57 5226.57C6668.29 5230.42 6659.35 5232.66 6649.76 5233.29L6649.66 5233.3ZM6675.33 5223.84C6683.58 5220.14 6690.69 5215.37 6696.63 5209.52C6702.91 5203.67 6707.7 5196.9 6711 5189.21C6714.63 5181.51 6716.45 5173.2 6716.45 5164.27V5100.55C6716.45 5091.63 6714.63 5083.16 6711 5075.16C6707.37 5067.15 6702.25 5060.23 6695.64 5054.38C6689.37 5048.22 6681.93 5043.45 6673.35 5040.07C6665.09 5036.37 6656.01 5034.52 6646.1 5034.52H6580.7V5346.66H6597.05V5230.3H6649.56C6658.81 5229.69 6667.4 5227.53 6675.33 5223.84ZM6682.16 5197.67L6682.2 5197.63C6686.88 5193.27 6690.44 5188.36 6692.91 5182.89L6692.92 5182.86L6692.94 5182.82C6695.71 5177.09 6697.1 5170.92 6697.1 5164.27V5100.55C6697.1 5094.24 6695.72 5088.22 6692.94 5082.46C6690.13 5076.64 6686.38 5071.56 6681.71 5067.19C6677.02 5062.83 6671.55 5059.33 6665.25 5056.68C6659.03 5054.08 6652.33 5052.76 6645.11 5052.76H6600.05V5212.06H6646.1C6653.32 5212.06 6660.02 5210.75 6666.24 5208.14C6672.52 5205.51 6677.8 5202.02 6682.13 5197.7L6682.16 5197.67ZM6646.1 5215.06C6653.69 5215.06 6660.79 5213.68 6667.4 5210.91C6674.01 5208.14 6679.62 5204.44 6684.25 5199.83C6689.2 5195.21 6693 5189.98 6695.64 5184.13C6698.61 5177.97 6700.1 5171.35 6700.1 5164.27V5100.55C6700.1 5093.78 6698.61 5087.32 6695.64 5081.16C6692.67 5075 6688.71 5069.62 6683.75 5065C6678.8 5060.38 6673.02 5056.69 6666.41 5053.92C6659.8 5051.15 6652.7 5049.76 6645.11 5049.76H6597.05V5215.06H6646.1ZM6894.22 5349.66H6871.87V5031.52H6894.22V5349.66ZM7196.79 5349.66L7173.5 5251.77H7082.12L7058.84 5349.66H7035.82L7111.57 5031.52H7144.05L7219.8 5349.66H7196.79ZM7079.75 5248.77H7175.87L7199.16 5346.66H7216L7141.68 5034.52H7113.94L7039.62 5346.66H7056.47L7079.75 5248.77ZM983.449 5052.53C976.843 5055.3 971.063 5059 966.109 5063.61C961.154 5068.23 957.19 5073.62 954.218 5079.77C951.245 5085.93 949.759 5092.55 949.759 5099.63V5282.02C949.759 5289.1 951.245 5295.87 954.218 5302.33C957.19 5308.49 961.154 5313.88 966.109 5318.49C971.063 5323.11 976.843 5326.8 983.449 5329.57C990.385 5332.34 997.652 5333.73 1005.25 5333.73C1012.85 5333.73 1019.95 5332.34 1026.55 5329.57C1033.16 5326.8 1038.94 5323.11 1043.89 5318.49C1048.85 5313.88 1052.81 5308.49 1055.78 5302.33C1058.76 5295.87 1060.24 5289.1 1060.24 5282.02V5099.63C1060.24 5092.55 1058.76 5085.93 1055.78 5079.77C1052.81 5073.62 1048.85 5068.23 1043.89 5063.61C1038.94 5059 1033.16 5055.3 1026.55 5052.53C1019.95 5049.76 1012.85 5048.38 1005.25 5048.38C997.652 5048.38 990.385 5049.76 983.449 5052.53ZM1053.07 5301.05C1055.85 5294.99 1057.24 5288.65 1057.24 5282.02V5099.63C1057.24 5092.98 1055.85 5086.81 1053.08 5081.08C1050.27 5075.25 1046.53 5070.17 1041.85 5065.81C1037.17 5061.45 1031.69 5057.94 1025.39 5055.3C1019.18 5052.69 1012.47 5051.38 1005.25 5051.38C998.035 5051.38 991.155 5052.69 984.586 5055.31C978.297 5057.95 972.829 5061.45 968.154 5065.81C963.474 5070.17 959.732 5075.25 956.919 5081.08C954.15 5086.81 952.759 5092.98 952.759 5099.63V5282.02C952.759 5288.65 954.147 5294.99 956.933 5301.06C959.744 5306.87 963.482 5311.94 968.154 5316.3C972.829 5320.65 978.297 5324.16 984.586 5326.8C991.154 5329.42 998.035 5330.73 1005.25 5330.73C1012.47 5330.73 1019.18 5329.42 1025.39 5326.81C1031.69 5324.17 1037.17 5320.66 1041.85 5316.3C1046.52 5311.94 1050.26 5306.87 1053.07 5301.05ZM1807.69 5196.83H1848.78C1856.03 5196.83 1862.75 5195.66 1868.98 5193.34C1875.26 5190.7 1880.72 5187.21 1885.38 5182.86C1890.06 5178.49 1893.81 5173.41 1896.62 5167.59C1899.39 5161.85 1900.78 5155.68 1900.78 5149.04V5100.55C1900.78 5094.24 1899.4 5088.22 1896.62 5082.46C1893.81 5076.64 1890.06 5071.56 1885.38 5067.19C1880.7 5062.83 1875.23 5059.33 1868.93 5056.68C1862.71 5054.08 1856.01 5052.76 1848.78 5052.76H1807.69V5196.83ZM1848.78 5199.83C1856.38 5199.83 1863.48 5198.6 1870.09 5196.13C1876.69 5193.36 1882.47 5189.67 1887.43 5185.05C1892.38 5180.43 1896.35 5175.05 1899.32 5168.89C1902.29 5162.73 1903.78 5156.12 1903.78 5149.04V5100.55C1903.78 5093.78 1902.29 5087.32 1899.32 5081.16C1896.35 5075 1892.38 5069.62 1887.43 5065C1882.47 5060.38 1876.69 5056.69 1870.09 5053.92C1863.48 5051.15 1856.38 5049.76 1848.78 5049.76H1804.69V5199.83H1848.78ZM2204.41 5233.53L2159.82 5046.99L2115.23 5233.53H2204.41ZM2119.03 5230.53L2159.82 5059.9L2200.61 5230.53H2119.03ZM2983.38 5233.53L2938.79 5046.99L2894.2 5233.53H2983.38ZM2898 5230.53L2938.79 5059.9L2979.58 5230.53H2898ZM4331.34 5233.53L4286.75 5046.99L4242.16 5233.53H4331.34ZM4245.96 5230.53L4286.75 5059.9L4327.54 5230.53H4245.96ZM5173.6 5055.31C5180.17 5052.69 5187.05 5051.38 5194.27 5051.38C5201.49 5051.38 5208.19 5052.69 5214.41 5055.3C5220.71 5057.94 5226.19 5061.45 5230.87 5065.81C5235.55 5070.17 5239.29 5075.25 5242.1 5081.08C5244.87 5086.81 5246.26 5092.98 5246.26 5099.63V5282.02C5246.26 5288.65 5244.87 5294.98 5242.09 5301.05C5239.28 5306.86 5235.54 5311.94 5230.87 5316.3C5226.19 5320.66 5220.71 5324.17 5214.41 5326.81C5208.19 5329.42 5201.49 5330.73 5194.27 5330.73C5187.05 5330.73 5180.17 5329.42 5173.6 5326.8C5167.31 5324.16 5161.85 5320.65 5157.17 5316.3C5152.5 5311.94 5148.76 5306.86 5145.95 5301.05C5143.16 5294.98 5141.78 5288.65 5141.78 5282.02V5099.63C5141.78 5092.98 5143.17 5086.81 5145.94 5081.08C5148.75 5075.25 5152.49 5070.17 5157.17 5065.81C5161.85 5061.45 5167.31 5057.95 5173.6 5055.31ZM5143.24 5302.33C5146.21 5308.49 5150.17 5313.88 5155.13 5318.49C5160.08 5323.11 5165.86 5326.8 5172.47 5329.57C5179.4 5332.34 5186.67 5333.73 5194.27 5333.73C5201.86 5333.73 5208.97 5332.34 5215.57 5329.57C5222.18 5326.8 5227.96 5323.11 5232.91 5318.49C5237.87 5313.88 5241.83 5308.49 5244.8 5302.33C5247.77 5295.87 5249.26 5289.1 5249.26 5282.02V5099.63C5249.26 5092.55 5247.77 5085.93 5244.8 5079.77C5241.83 5073.62 5237.87 5068.23 5232.91 5063.61C5227.96 5059 5222.18 5055.3 5215.57 5052.53C5208.97 5049.76 5201.86 5048.38 5194.27 5048.38C5186.67 5048.38 5179.4 5049.76 5172.47 5052.53C5165.86 5055.3 5160.08 5059 5155.13 5063.61C5150.17 5068.23 5146.21 5073.62 5143.24 5079.77C5140.26 5085.93 5138.78 5092.55 5138.78 5099.63V5282.02C5138.78 5289.1 5140.26 5295.87 5143.24 5302.33ZM5996.71 5196.83H6037.8C6045.05 5196.83 6051.77 5195.66 6058 5193.34C6064.28 5190.7 6069.74 5187.21 6074.4 5182.86C6079.08 5178.49 6082.82 5173.41 6085.64 5167.59C6088.41 5161.85 6089.8 5155.68 6089.8 5149.04V5100.55C6089.8 5094.24 6088.42 5088.22 6085.64 5082.46C6082.82 5076.64 6079.08 5071.56 6074.4 5067.19C6069.72 5062.83 6064.25 5059.33 6057.95 5056.68C6051.73 5054.08 6045.03 5052.76 6037.8 5052.76H5996.71V5196.83ZM5993.71 5199.83V5049.76H6037.8C6045.4 5049.76 6052.5 5051.15 6059.11 5053.92C6065.71 5056.69 6071.49 5060.38 6076.45 5065C6081.4 5069.62 6085.37 5075 6088.34 5081.16C6091.31 5087.32 6092.8 5093.78 6092.8 5100.55V5149.04C6092.8 5156.12 6091.31 5162.73 6088.34 5168.89C6085.37 5175.05 6081.4 5180.43 6076.45 5185.05C6071.49 5189.67 6065.71 5193.36 6059.11 5196.13C6052.5 5198.6 6045.4 5199.83 6037.8 5199.83H5993.71ZM6393.43 5233.53L6348.84 5046.99L6304.25 5233.53H6393.43ZM6308.05 5230.53H6389.63L6348.84 5059.9L6308.05 5230.53ZM7172.4 5233.53L7127.81 5046.99L7083.22 5233.53H7172.4ZM7087.02 5230.53H7168.6L7127.81 5059.9L7087.02 5230.53ZM282.171 5346.66V5034.52H298.521V5346.66H282.171ZM758.746 5346.66V5034.52H775.095V5346.66H758.746ZM2702.2 5346.66V5034.52H2685.85V5346.66H2702.2ZM6874.87 5346.66V5034.52H6891.22V5346.66H6874.87Z" fill="#21AF9C"/>
<defs>
<linearGradient id="paint0_linear_154_10" x1="1294.72" y1="1660.73" x2="4165.04" y2="1970.11" gradientUnits="userSpaceOnUse">
<stop stop-color="#21AF9C"/>
<stop offset="1" stop-color="#D1126B"/>
</linearGradient>
<linearGradient id="paint1_linear_154_10" x1="1739.45" y1="1120.4" x2="3853.45" y2="2119.36" gradientUnits="userSpaceOnUse">
<stop offset="0.44" stop-color="#21AF9C"/>
<stop offset="1" stop-color="#D1126B"/>
</linearGradient>
</defs>
</svg>
