<svg width="7235" height="4925" viewBox="0 0 7235 4925" fill="none" xmlns="http://www.w3.org/2000/svg">
<path fill-rule="evenodd" clip-rule="evenodd" d="M2380.46 2556.81C3065.55 2836.26 3838.89 2521.2 4109.64 1857.45C3825.71 2553.52 3072.23 2904.33 2357.61 2612.83C1642.98 2321.33 1293.83 1520.75 1577.76 824.681C1861.69 128.615 2680.61 -182.434 3395.24 109.066C3761.53 258.479 4017.09 535.637 4140.96 864.064C4004.94 559.235 3701.62 286.309 3362.96 148.166C2677.87 -131.286 1904.52 183.781 1633.77 847.53C1363.03 1511.28 1695.37 2277.36 2380.46 2556.81Z" fill="url(#paint0_linear_128_83)"/>
<path d="M2841.29 862.545C2820.82 862.545 2800.35 856.52 2779.88 844.468C2730.4 828.974 2705.66 791.959 2705.66 733.424C2705.66 700.714 2716.75 674.89 2738.93 655.952C2762.81 637.014 2785.85 627.545 2808.03 627.545C2831.91 627.545 2854.94 631.849 2877.12 640.457C2921.48 661.117 2943.66 697.271 2943.66 748.919C2943.66 767.857 2939.39 786.794 2930.86 805.732C2913.8 843.607 2883.95 862.545 2841.29 862.545Z" fill="#21AF9C"/>
<path d="M2090.32 1993.68C2060 1984.22 2036.49 1969 2018.2 1944.91C1999.91 1920.82 1993.1 1892.44 1998.51 1857.36C2001.03 1831.89 2006.61 1804.75 2015.96 1773.53C2037.53 1701.49 2074.36 1621.08 2124.12 1531.58C2187.89 1412.31 2263.32 1296.69 2348.81 1181.58C2431.24 1068.15 2510.25 974.649 2581.18 899.634C2595.54 885.738 2610.8 877.372 2629.29 875.266C2647.77 873.159 2662.49 875.127 2678.82 880.225C2706.81 888.964 2730.31 904.179 2748.6 928.271C2766.9 952.363 2771.37 980.018 2763.46 1006.43L2755.37 1024.92C2750.16 1033.79 2741.9 1044.34 2731.31 1054.17C2662.54 1121.98 2593.4 1208.05 2522.28 1309.27C2448.83 1409.75 2389.2 1506.67 2339.44 1596.17C2309.08 1654.97 2287.7 1700.81 2276.92 1736.83C2266.85 1770.45 2268.81 1789.45 2282.09 1796.22C2298.42 1801.32 2328.22 1786.99 2373.82 1753.96C2416.37 1722.6 2479.93 1663.67 2563.06 1581.96C2609.21 1538.6 2653.02 1494.5 2697.55 1448.01C2870.46 1270.92 3036.91 1115.43 3193.83 983.238C3348.41 850.313 3489.51 770.948 3613.35 749.215C3655.71 744.057 3691.24 744.647 3719.24 753.386C3763.56 767.222 3793.51 794.956 3803.72 837.531C3813.93 880.106 3815.87 933.231 3806.33 990.648C3800.21 1028.12 3786.72 1081.68 3766.59 1148.92L3713.92 1316.29C3683 1419.55 3658.18 1519.46 3643.24 1611.96C3625.96 1703.72 3634.19 1761.43 3665.58 1784.36L3674.91 1787.28C3716.9 1800.38 3772.18 1786.13 3839.15 1741.39C3905.39 1699.05 3979.9 1646.16 4059.61 1584.39C4150.64 1510.4 4243.45 1447.47 4334.83 1389.34C4425.49 1333.62 4509.13 1309.84 4582.7 1319.68L4616.08 1327.47C4662.73 1342.04 4695.74 1368.1 4715.82 1403.25C4733.57 1437.68 4743.78 1480.25 4747.17 1528.58C4750.55 1576.9 4750.88 1626.9 4748.17 1678.56C4744.73 1732.63 4746.67 1785.76 4749.34 1836.48C4752.01 1887.21 4762.21 1929.78 4783.91 1968.07C4804.89 2008.75 4840.23 2035.54 4893.88 2052.29C4956.86 2071.95 5054.13 2070.81 5181.74 2045C5308.63 2021.6 5478.08 1966.83 5692.4 1881.44C5709.27 1876.21 5722.37 1875.05 5734.04 1878.69C5752.7 1884.51 5759.15 1897.03 5753.4 1916.24L5750.52 1925.85C5744.6 1937.13 5733.28 1949.35 5715.69 1956.99C5452.36 2061.22 5240.74 2129.07 5082.26 2155.74C4923.78 2182.42 4801.03 2183.48 4714.72 2156.54C4642.41 2133.96 4589.84 2096.54 4559.36 2045.01C4528.88 1993.48 4509.88 1937.66 4505.43 1875.88C4498.64 1813.36 4495.8 1754.7 4496.01 1694.37C4501.97 1614.83 4494.47 1554.72 4478.16 1515.49C4470.09 1499.84 4457.53 1490.67 4443.53 1486.3C4408.54 1475.38 4357.93 1491.09 4292.4 1531.03C4226.88 1570.96 4155.42 1622.18 4078.04 1684.68C3982.35 1757.21 3888.1 1824.95 3792.06 1881.62C3696.01 1938.29 3611.65 1964.47 3538.08 1954.63L3504.7 1946.83C3432.39 1924.26 3392.75 1877.75 3381.12 1805.84C3368.78 1736.34 3375.46 1654.4 3395.07 1563.36C3414.67 1472.33 3437.33 1379.62 3463.94 1290.77C3492.16 1205.04 3511.4 1132.27 3522.38 1070.06C3531.03 1007.11 3520.99 972.465 3493 963.727C3453.35 951.346 3388.37 980.951 3296.45 1049.41C3203.81 1120.27 3100.75 1208.89 2987.27 1315.26C2873.8 1421.63 2765.7 1527.06 2659.95 1633.21C2492.96 1799.03 2377.15 1904.67 2314.85 1950.87C2279.13 1976.48 2240.89 1993.43 2200.87 1999.31C2160.84 2005.2 2122.98 2003.88 2090.32 1993.68Z" fill="url(#paint1_angular_128_83)"/>
<path d="M339.788 4138.67H342.788V4135.67V3088.87V3085.87H339.788H250H247V3088.87V4135.67V4138.67H250H339.788ZM1514.33 3085.87H1511.33V3088.87V3954.96L932.111 3087.2L931.22 3085.87H929.616H817.928H812.361L815.423 3090.52L874.057 3179.56V4135.67V4138.67H877.057H898.227H901.227V4135.67V3219.97L1511.84 4137.33L1512.73 4138.67H1514.33H1535.5H1538.5V4135.67V3088.87V3085.87H1535.5H1514.33ZM3508.65 4138.67H3511.86L3511.65 4135.47L3442.3 3088.67L3442.11 3085.87H3439.3H3348.79H3346.5L3345.89 3088.08L3096.7 3997.45L2801.96 3087.94L2801.29 3085.87H2799.11H2704.21H2701.38L2701.21 3088.69L2638.44 4135.49L2638.25 4138.67H2641.43H2662.6H2665.42L2665.59 4135.85L2724.49 3160.49L3037.88 4136.59L3038.54 4138.67H3040.73H3083.07H3085.36L3085.96 4136.46L3351.36 3168.86L3415.87 4135.87L3416.06 4138.67H3418.86H3508.65ZM4179.39 4095.15L4179.4 4095.16C4243.17 4134.4 4315.26 4154 4395.58 4154C4475.91 4154 4548 4134.4 4611.77 4095.16C4675.63 4055.86 4725.87 3996.24 4762.57 3916.47L4762.58 3916.46C4799.31 3836.14 4817.6 3734.94 4817.6 3613C4817.6 3491.55 4799.31 3390.83 4762.57 3310.99C4725.87 3230.74 4675.63 3170.87 4611.78 3131.58C4548 3091.84 4475.91 3072 4395.58 3072C4315.25 3072 4243.16 3091.85 4179.39 3131.58C4116.02 3170.88 4066.02 3230.75 4029.32 3311C3992.59 3390.84 3974.3 3491.55 3974.3 3613C3974.3 3734.94 3992.59 3836.14 4029.32 3916.46L4029.33 3916.47C4066.03 3996.23 4116.02 4055.85 4179.39 4095.15ZM4678.15 3890.95L4678.14 3890.97C4654.42 3967.46 4618.91 4026.05 4571.75 4066.96C4524.67 4107.32 4466.02 4127.56 4395.58 4127.56C4325.16 4127.56 4266.51 4107.32 4219.43 4066.98C4172.27 4026.06 4136.75 3967.47 4113.03 3890.97C4089.29 3813.96 4077.39 3721.32 4077.39 3613C4077.39 3505.17 4089.29 3413.02 4113.03 3336.49L4113.03 3336.49C4136.75 3259.5 4172.27 3200.91 4219.42 3160.5L4219.43 3160.49L4219.43 3160.48C4266.51 3119.65 4325.16 3099.17 4395.58 3099.17C4466.01 3099.17 4524.66 3119.65 4571.74 3160.48L4571.74 3160.49L4571.75 3160.5C4618.9 3200.91 4654.42 3259.5 4678.14 3336.49L4678.15 3336.5L4678.15 3336.51C4702.36 3413.03 4714.51 3505.17 4714.51 3613C4714.51 3721.32 4702.36 3813.95 4678.15 3890.95ZM5638.02 4138.67H5640.2L5640.87 4136.6L5981.77 3089.8L5983.05 3085.87H5978.92H5957.75H5955.58L5954.9 3087.94L5661.31 3988.24L5353.24 3087.9L5352.55 3085.87H5350.41H5249.67H5245.47L5246.83 3089.84L5604.52 4136.64L5605.21 4138.67H5607.36H5638.02ZM7003.9 3602.05V3599.05H7000.9H6546.2V3113.04H7037.4H7040.4V3110.04V3088.87V3085.87H7037.4H6453.41H6450.41V3088.87V4135.67V4138.67H6453.41H7052H7055V4135.67V4114.5V4111.5H7052H6546.2V3626.22H7000.9H7003.9V3623.22V3602.05Z" fill="#A93AC1" stroke="#A93AC1" stroke-width="6"/>
<mask id="path-3-outside-1_128_83" maskUnits="userSpaceOnUse" x="0" y="4579" width="7235" height="346" fill="black">
<rect fill="white" y="4579" width="7235" height="346"/>
<path d="M133.573 4600.86H19.3837V4727.43H113.217V4743.81H19.3837V4919.52H3V4583.99H133.573V4600.86Z"/>
<path d="M299.135 4919.52H282.752V4583.99H299.135V4919.52Z"/>
<path d="M533.242 4742.32C541.517 4748.94 549.626 4755.89 557.57 4763.17C565.844 4770.12 573.126 4777.89 579.415 4786.5C586.034 4794.77 591.33 4804.2 595.302 4814.79C599.274 4825.05 601.259 4836.79 601.259 4850.03C601.259 4859.96 599.274 4869.39 595.302 4878.32C591.661 4886.92 586.531 4894.54 579.911 4901.15C573.622 4907.44 566.175 4912.57 557.57 4916.54C548.964 4920.18 539.697 4922 529.767 4922C519.838 4922 510.405 4920.18 501.468 4916.54C492.863 4912.57 485.25 4907.44 478.63 4901.15C472.342 4894.54 467.211 4886.92 463.24 4878.32C459.599 4869.39 457.778 4859.96 457.778 4850.03H474.162C474.162 4857.64 475.651 4864.92 478.63 4871.87C481.609 4878.49 485.581 4884.28 490.546 4889.24C495.51 4894.2 501.303 4898.18 507.922 4901.15C514.873 4904.13 522.154 4905.62 529.767 4905.62C537.38 4905.62 544.496 4904.13 551.116 4901.15C557.735 4898.18 563.527 4894.2 568.492 4889.24C573.457 4884.28 577.429 4878.49 580.408 4871.87C583.386 4864.92 584.876 4857.64 584.876 4850.03C584.876 4838.78 583.055 4828.69 579.415 4819.75C576.105 4810.82 571.471 4802.71 565.513 4795.43C559.887 4787.82 553.267 4780.87 545.654 4774.58C538.373 4767.97 530.76 4761.51 522.816 4755.23C514.873 4748.94 506.929 4742.49 498.986 4735.87C491.373 4728.92 484.422 4721.47 478.134 4713.53C472.176 4705.59 467.211 4696.82 463.24 4687.23C459.599 4677.63 457.778 4666.55 457.778 4653.97C457.778 4644.04 459.599 4634.78 463.24 4626.18C467.211 4617.24 472.342 4609.63 478.63 4603.34C485.25 4596.73 492.863 4591.6 501.468 4587.96C510.405 4583.99 519.838 4582 529.767 4582C539.697 4582 548.964 4583.99 557.57 4587.96C566.175 4591.6 573.622 4596.73 579.911 4603.34C586.531 4609.63 591.661 4617.24 595.302 4626.18C599.274 4634.78 601.259 4644.04 601.259 4653.97H584.876C584.876 4646.36 583.386 4639.25 580.408 4632.63C577.429 4626.01 573.457 4620.22 568.492 4615.26C563.527 4610.29 557.735 4606.32 551.116 4603.34C544.496 4600.36 537.38 4598.88 529.767 4598.88C522.154 4598.88 514.873 4600.36 507.922 4603.34C501.303 4606.32 495.51 4610.29 490.546 4615.26C485.581 4620.22 481.609 4626.01 478.63 4632.63C475.651 4639.25 474.162 4646.36 474.162 4653.97C474.162 4664.56 475.817 4673.99 479.127 4682.26C482.437 4690.2 486.739 4697.65 492.035 4704.6C497.662 4711.55 503.95 4718.17 510.901 4724.45C518.183 4730.41 525.63 4736.36 533.242 4742.32Z"/>
<path d="M776.701 4919.52H760.317V4583.99H776.701V4919.52Z"/>
<path d="M1007.33 4922C997.403 4922 987.97 4920.18 979.034 4916.54C970.428 4912.57 962.816 4907.44 956.196 4901.15C949.907 4894.54 944.777 4886.92 940.805 4878.32C937.164 4869.39 935.344 4859.96 935.344 4850.03V4653.97C935.344 4644.04 937.164 4634.78 940.805 4626.18C944.777 4617.24 949.907 4609.63 956.196 4603.34C962.816 4596.73 970.428 4591.6 979.034 4587.96C987.97 4583.99 997.403 4582 1007.33 4582C1017.26 4582 1026.53 4583.99 1035.14 4587.96C1043.74 4591.6 1051.19 4596.73 1057.48 4603.34C1064.1 4609.63 1069.23 4617.24 1072.87 4626.18C1076.84 4634.78 1078.83 4644.04 1078.83 4653.97V4850.03C1078.83 4859.96 1076.84 4869.39 1072.87 4878.32C1069.23 4886.92 1064.1 4894.54 1057.48 4901.15C1051.19 4907.44 1043.74 4912.57 1035.14 4916.54C1026.53 4920.18 1017.26 4922 1007.33 4922ZM1007.33 4598.88C999.72 4598.88 992.439 4600.36 985.488 4603.34C978.868 4606.32 973.076 4610.29 968.111 4615.26C963.147 4620.22 959.175 4626.01 956.196 4632.63C953.217 4639.25 951.728 4646.36 951.728 4653.97V4850.03C951.728 4857.64 953.217 4864.92 956.196 4871.87C959.175 4878.49 963.147 4884.28 968.111 4889.24C973.076 4894.2 978.868 4898.18 985.488 4901.15C992.439 4904.13 999.72 4905.62 1007.33 4905.62C1014.95 4905.62 1022.06 4904.13 1028.68 4901.15C1035.3 4898.18 1041.09 4894.2 1046.06 4889.24C1051.02 4884.28 1054.99 4878.49 1057.97 4871.87C1060.95 4864.92 1062.44 4857.64 1062.44 4850.03V4653.97C1062.44 4646.36 1060.95 4639.25 1057.97 4632.63C1054.99 4626.01 1051.02 4620.22 1046.06 4615.26C1041.09 4610.29 1035.3 4606.32 1028.68 4603.34C1022.06 4600.36 1014.95 4598.88 1007.33 4598.88Z"/>
<path d="M1368.46 4583.99V4600.86H1301.43V4919.52H1285.05V4600.86H1218.02V4583.99H1368.46Z"/>
<path d="M1642.87 4600.86H1528.69V4727.43H1622.52V4743.81H1528.69V4903.14H1642.87V4919.52H1512.3V4583.99H1642.87V4600.86Z"/>
<path d="M1849.15 4778.06H1808.44V4919.52H1792.05V4583.99H1852.62C1862.55 4583.99 1871.82 4585.81 1880.43 4589.45C1889.36 4593.09 1896.97 4598.21 1903.26 4604.83C1909.88 4611.12 1915.01 4618.56 1918.65 4627.17C1922.63 4635.77 1924.61 4645.04 1924.61 4654.96V4707.08C1924.61 4715.68 1923.12 4723.79 1920.14 4731.4C1917.16 4739.01 1913.03 4745.96 1907.73 4752.25C1902.44 4758.54 1896.31 4763.83 1889.36 4768.13C1882.41 4772.1 1874.8 4774.91 1866.52 4776.57L1927.09 4919.52H1909.22L1849.15 4778.06ZM1808.44 4761.68H1852.62C1860.24 4761.68 1867.35 4760.36 1873.97 4757.71C1880.59 4754.73 1886.38 4750.76 1891.35 4745.8C1896.31 4740.83 1900.28 4735.04 1903.26 4728.42C1906.24 4721.81 1907.73 4714.69 1907.73 4707.08V4654.96C1907.73 4647.68 1906.24 4640.73 1903.26 4634.12C1900.28 4627.5 1896.31 4621.71 1891.35 4616.74C1886.38 4611.78 1880.59 4607.81 1873.97 4604.83C1867.35 4601.85 1860.24 4600.36 1852.62 4600.36H1808.44V4761.68Z"/>
<path d="M2235.8 4919.52L2212.47 4814.29H2116.15L2092.82 4919.52H2075.94L2150.41 4583.99H2178.21L2252.68 4919.52H2235.8ZM2119.63 4797.91H2208.99L2164.31 4597.39L2119.63 4797.91Z"/>
<path d="M2462.18 4583.99C2472.11 4583.99 2481.21 4585.97 2489.49 4589.94C2498.09 4593.58 2505.54 4598.71 2511.83 4605.33C2518.45 4611.62 2523.58 4619.06 2527.22 4627.66C2530.86 4636.27 2532.68 4645.37 2532.68 4654.96V4723.46C2532.68 4733.06 2530.86 4741.99 2527.22 4750.26C2523.91 4758.54 2519.11 4765.82 2512.82 4772.1C2506.86 4778.39 2499.75 4783.52 2491.47 4787.49C2483.53 4791.46 2474.92 4793.78 2465.66 4794.44H2413.03V4919.52H2396.65V4583.99H2462.18ZM2516.3 4654.96C2516.3 4647.68 2514.81 4640.73 2511.83 4634.12C2508.85 4627.5 2504.88 4621.71 2499.91 4616.74C2494.95 4611.78 2489.16 4607.81 2482.54 4604.83C2475.92 4601.85 2468.8 4600.36 2461.19 4600.36H2413.03V4778.06H2462.18C2469.79 4778.06 2476.91 4776.57 2483.53 4773.59C2490.15 4770.61 2495.78 4766.64 2500.41 4761.68C2505.37 4756.72 2509.18 4751.09 2511.83 4744.8C2514.81 4738.18 2516.3 4731.07 2516.3 4723.46V4654.96Z"/>
<path d="M2707.81 4919.52H2691.43V4583.99H2707.81V4919.52Z"/>
<path d="M3016.39 4919.52L2993.06 4814.29H2896.74L2873.41 4919.52H2856.53L2931 4583.99H2958.8L3033.27 4919.52H3016.39ZM2900.22 4797.91H2989.58L2944.9 4597.39L2900.22 4797.91Z"/>
<path d="M3509.02 4600.86H3394.83V4727.43H3488.66V4743.81H3394.83V4903.14H3509.02V4919.52H3378.44V4583.99H3509.02V4600.86Z"/>
<path d="M4041.61 4583.99H4058.49V4919.52H4042.11V4630.64L3959.19 4858.47L3875.79 4630.64V4919.52H3859.4V4583.99H3876.28L3959.19 4810.32L4041.61 4583.99Z"/>
<path d="M4367.15 4919.52L4343.82 4814.29H4247.5L4224.17 4919.52H4207.28L4281.76 4583.99H4309.56L4384.03 4919.52H4367.15ZM4250.97 4797.91H4340.34L4295.66 4597.39L4250.97 4797.91Z"/>
<path d="M4603.46 4742.32C4611.73 4748.94 4619.84 4755.89 4627.79 4763.17C4636.06 4770.12 4643.34 4777.89 4649.63 4786.5C4656.25 4794.77 4661.55 4804.2 4665.52 4814.79C4669.49 4825.05 4671.48 4836.79 4671.48 4850.03C4671.48 4859.96 4669.49 4869.39 4665.52 4878.32C4661.88 4886.92 4656.75 4894.54 4650.13 4901.15C4643.84 4907.44 4636.39 4912.57 4627.79 4916.54C4619.18 4920.18 4609.91 4922 4599.98 4922C4590.06 4922 4580.62 4920.18 4571.69 4916.54C4563.08 4912.57 4555.47 4907.44 4548.85 4901.15C4542.56 4894.54 4537.43 4886.92 4533.46 4878.32C4529.82 4869.39 4528 4859.96 4528 4850.03H4544.38C4544.38 4857.64 4545.87 4864.92 4548.85 4871.87C4551.83 4878.49 4555.8 4884.28 4560.76 4889.24C4565.73 4894.2 4571.52 4898.18 4578.14 4901.15C4585.09 4904.13 4592.37 4905.62 4599.98 4905.62C4607.6 4905.62 4614.71 4904.13 4621.33 4901.15C4627.95 4898.18 4633.74 4894.2 4638.71 4889.24C4643.67 4884.28 4647.65 4878.49 4650.63 4871.87C4653.6 4864.92 4655.09 4857.64 4655.09 4850.03C4655.09 4838.78 4653.27 4828.69 4649.63 4819.75C4646.32 4810.82 4641.69 4802.71 4635.73 4795.43C4630.1 4787.82 4623.48 4780.87 4615.87 4774.58C4608.59 4767.97 4600.98 4761.51 4593.03 4755.23C4585.09 4748.94 4577.15 4742.49 4569.2 4735.87C4561.59 4728.92 4554.64 4721.47 4548.35 4713.53C4542.39 4705.59 4537.43 4696.82 4533.46 4687.23C4529.82 4677.63 4528 4666.55 4528 4653.97C4528 4644.04 4529.82 4634.78 4533.46 4626.18C4537.43 4617.24 4542.56 4609.63 4548.85 4603.34C4555.47 4596.73 4563.08 4591.6 4571.69 4587.96C4580.62 4583.99 4590.06 4582 4599.98 4582C4609.91 4582 4619.18 4583.99 4627.79 4587.96C4636.39 4591.6 4643.84 4596.73 4650.13 4603.34C4656.75 4609.63 4661.88 4617.24 4665.52 4626.18C4669.49 4634.78 4671.48 4644.04 4671.48 4653.97H4655.09C4655.09 4646.36 4653.6 4639.25 4650.63 4632.63C4647.65 4626.01 4643.67 4620.22 4638.71 4615.26C4633.74 4610.29 4627.95 4606.32 4621.33 4603.34C4614.71 4600.36 4607.6 4598.88 4599.98 4598.88C4592.37 4598.88 4585.09 4600.36 4578.14 4603.34C4571.52 4606.32 4565.73 4610.29 4560.76 4615.26C4555.8 4620.22 4551.83 4626.01 4548.85 4632.63C4545.87 4639.25 4544.38 4646.36 4544.38 4653.97C4544.38 4664.56 4546.03 4673.99 4549.34 4682.26C4552.65 4690.2 4556.96 4697.65 4562.25 4704.6C4567.88 4711.55 4574.17 4718.17 4581.12 4724.45C4588.4 4730.41 4595.85 4736.36 4603.46 4742.32Z"/>
<path d="M4906 4742.32C4914.27 4748.94 4922.38 4755.89 4930.33 4763.17C4938.6 4770.12 4945.88 4777.89 4952.17 4786.5C4958.79 4794.77 4964.09 4804.2 4968.06 4814.79C4972.03 4825.05 4974.02 4836.79 4974.02 4850.03C4974.02 4859.96 4972.03 4869.39 4968.06 4878.32C4964.42 4886.92 4959.29 4894.54 4952.67 4901.15C4946.38 4907.44 4938.93 4912.57 4930.33 4916.54C4921.72 4920.18 4912.45 4922 4902.52 4922C4892.59 4922 4883.16 4920.18 4874.22 4916.54C4865.62 4912.57 4858.01 4907.44 4851.39 4901.15C4845.1 4894.54 4839.97 4886.92 4836 4878.32C4832.36 4869.39 4830.53 4859.96 4830.53 4850.03H4846.92C4846.92 4857.64 4848.41 4864.92 4851.39 4871.87C4854.37 4878.49 4858.34 4884.28 4863.3 4889.24C4868.27 4894.2 4874.06 4898.18 4880.68 4901.15C4887.63 4904.13 4894.91 4905.62 4902.52 4905.62C4910.14 4905.62 4917.25 4904.13 4923.87 4901.15C4930.49 4898.18 4936.28 4894.2 4941.25 4889.24C4946.21 4884.28 4950.19 4878.49 4953.16 4871.87C4956.14 4864.92 4957.63 4857.64 4957.63 4850.03C4957.63 4838.78 4955.81 4828.69 4952.17 4819.75C4948.86 4810.82 4944.23 4802.71 4938.27 4795.43C4932.64 4787.82 4926.02 4780.87 4918.41 4774.58C4911.13 4767.97 4903.52 4761.51 4895.57 4755.23C4887.63 4748.94 4879.69 4742.49 4871.74 4735.87C4864.13 4728.92 4857.18 4721.47 4850.89 4713.53C4844.93 4705.59 4839.97 4696.82 4836 4687.23C4832.36 4677.63 4830.53 4666.55 4830.53 4653.97C4830.53 4644.04 4832.36 4634.78 4836 4626.18C4839.97 4617.24 4845.1 4609.63 4851.39 4603.34C4858.01 4596.73 4865.62 4591.6 4874.22 4587.96C4883.16 4583.99 4892.59 4582 4902.52 4582C4912.45 4582 4921.72 4583.99 4930.33 4587.96C4938.93 4591.6 4946.38 4596.73 4952.67 4603.34C4959.29 4609.63 4964.42 4617.24 4968.06 4626.18C4972.03 4634.78 4974.02 4644.04 4974.02 4653.97H4957.63C4957.63 4646.36 4956.14 4639.25 4953.16 4632.63C4950.19 4626.01 4946.21 4620.22 4941.25 4615.26C4936.28 4610.29 4930.49 4606.32 4923.87 4603.34C4917.25 4600.36 4910.14 4598.88 4902.52 4598.88C4894.91 4598.88 4887.63 4600.36 4880.68 4603.34C4874.06 4606.32 4868.27 4610.29 4863.3 4615.26C4858.34 4620.22 4854.37 4626.01 4851.39 4632.63C4848.41 4639.25 4846.92 4646.36 4846.92 4653.97C4846.92 4664.56 4848.57 4673.99 4851.88 4682.26C4855.19 4690.2 4859.5 4697.65 4864.79 4704.6C4870.42 4711.55 4876.71 4718.17 4883.66 4724.45C4890.94 4730.41 4898.39 4736.36 4906 4742.32Z"/>
<path d="M5205.06 4922C5195.13 4922 5185.7 4920.18 5176.76 4916.54C5168.16 4912.57 5160.55 4907.44 5153.93 4901.15C5147.64 4894.54 5142.51 4886.92 5138.54 4878.32C5134.89 4869.39 5133.07 4859.96 5133.07 4850.03V4653.97C5133.07 4644.04 5134.89 4634.78 5138.54 4626.18C5142.51 4617.24 5147.64 4609.63 5153.93 4603.34C5160.55 4596.73 5168.16 4591.6 5176.76 4587.96C5185.7 4583.99 5195.13 4582 5205.06 4582C5214.99 4582 5224.26 4583.99 5232.87 4587.96C5241.47 4591.6 5248.92 4596.73 5255.21 4603.34C5261.83 4609.63 5266.96 4617.24 5270.6 4626.18C5274.57 4634.78 5276.56 4644.04 5276.56 4653.97V4850.03C5276.56 4859.96 5274.57 4869.39 5270.6 4878.32C5266.96 4886.92 5261.83 4894.54 5255.21 4901.15C5248.92 4907.44 5241.47 4912.57 5232.87 4916.54C5224.26 4920.18 5214.99 4922 5205.06 4922ZM5205.06 4598.88C5197.45 4598.88 5190.17 4600.36 5183.22 4603.34C5176.6 4606.32 5170.81 4610.29 5165.84 4615.26C5160.88 4620.22 5156.9 4626.01 5153.93 4632.63C5150.95 4639.25 5149.46 4646.36 5149.46 4653.97V4850.03C5149.46 4857.64 5150.95 4864.92 5153.93 4871.87C5156.9 4878.49 5160.88 4884.28 5165.84 4889.24C5170.81 4894.2 5176.6 4898.18 5183.22 4901.15C5190.17 4904.13 5197.45 4905.62 5205.06 4905.62C5212.68 4905.62 5219.79 4904.13 5226.41 4901.15C5233.03 4898.18 5238.82 4894.2 5243.79 4889.24C5248.75 4884.28 5252.72 4878.49 5255.7 4871.87C5258.68 4864.92 5260.17 4857.64 5260.17 4850.03V4653.97C5260.17 4646.36 5258.68 4639.25 5255.7 4632.63C5252.72 4626.01 5248.75 4620.22 5243.79 4615.26C5238.82 4610.29 5233.03 4606.32 5226.41 4603.34C5219.79 4600.36 5212.68 4598.88 5205.06 4598.88Z"/>
<path d="M5566.19 4583.99V4600.86H5499.16V4919.52H5482.78V4600.86H5415.75V4583.99H5566.19Z"/>
<path d="M5840.6 4600.86H5726.42V4727.43H5820.25V4743.81H5726.42V4903.14H5840.6V4919.52H5710.03V4583.99H5840.6V4600.86Z"/>
<path d="M6046.88 4778.06H6006.17V4919.52H5989.78V4583.99H6050.35C6060.28 4583.99 6069.55 4585.81 6078.16 4589.45C6087.09 4593.09 6094.7 4598.21 6100.99 4604.83C6107.61 4611.12 6112.74 4618.56 6116.38 4627.17C6120.36 4635.77 6122.34 4645.04 6122.34 4654.96V4707.08C6122.34 4715.68 6120.85 4723.79 6117.87 4731.4C6114.89 4739.01 6110.76 4745.96 6105.46 4752.25C6100.17 4758.54 6094.04 4763.83 6087.09 4768.13C6080.14 4772.1 6072.53 4774.91 6064.25 4776.57L6124.82 4919.52H6106.95L6046.88 4778.06ZM6006.17 4761.68H6050.35C6057.97 4761.68 6065.08 4760.36 6071.7 4757.71C6078.32 4754.73 6084.11 4750.76 6089.08 4745.8C6094.04 4740.83 6098.01 4735.04 6100.99 4728.42C6103.97 4721.81 6105.46 4714.69 6105.46 4707.08V4654.96C6105.46 4647.68 6103.97 4640.73 6100.99 4634.12C6098.01 4627.5 6094.04 4621.71 6089.08 4616.74C6084.11 4611.78 6078.32 4607.81 6071.7 4604.83C6065.08 4601.85 6057.97 4600.36 6050.35 4600.36H6006.17V4761.68Z"/>
<path d="M6433.53 4919.52L6410.2 4814.29H6313.88L6290.55 4919.52H6273.67L6348.14 4583.99H6375.94L6450.41 4919.52H6433.53ZM6317.36 4797.91H6406.72L6362.04 4597.39L6317.36 4797.91Z"/>
<path d="M6659.91 4583.99C6669.84 4583.99 6678.94 4585.97 6687.22 4589.94C6695.82 4593.58 6703.27 4598.71 6709.56 4605.33C6716.18 4611.62 6721.31 4619.06 6724.95 4627.66C6728.59 4636.27 6730.41 4645.37 6730.41 4654.96V4723.46C6730.41 4733.06 6728.59 4741.99 6724.95 4750.26C6721.64 4758.54 6716.84 4765.82 6710.55 4772.1C6704.59 4778.39 6697.48 4783.52 6689.2 4787.49C6681.26 4791.46 6672.65 4793.78 6663.39 4794.44H6610.76V4919.52H6594.38V4583.99H6659.91ZM6714.03 4654.96C6714.03 4647.68 6712.54 4640.73 6709.56 4634.12C6706.58 4627.5 6702.61 4621.71 6697.64 4616.74C6692.68 4611.78 6686.89 4607.81 6680.27 4604.83C6673.65 4601.85 6666.53 4600.36 6658.92 4600.36H6610.76V4778.06H6659.91C6667.52 4778.06 6674.64 4776.57 6681.26 4773.59C6687.88 4770.61 6693.51 4766.64 6698.14 4761.68C6703.1 4756.72 6706.91 4751.09 6709.56 4744.8C6712.54 4738.18 6714.03 4731.07 6714.03 4723.46V4654.96Z"/>
<path d="M6905.54 4919.52H6889.16V4583.99H6905.54V4919.52Z"/>
<path d="M7214.12 4919.52L7190.79 4814.29H7094.47L7071.14 4919.52H7054.26L7128.73 4583.99H7156.53L7231 4919.52H7214.12ZM7097.95 4797.91H7187.31L7142.63 4597.39L7097.95 4797.91Z"/>
</mask>
<path d="M133.573 4600.86H19.3837V4727.43H113.217V4743.81H19.3837V4919.52H3V4583.99H133.573V4600.86Z" fill="#21AF9C"/>
<path d="M299.135 4919.52H282.752V4583.99H299.135V4919.52Z" fill="#21AF9C"/>
<path d="M533.242 4742.32C541.517 4748.94 549.626 4755.89 557.57 4763.17C565.844 4770.12 573.126 4777.89 579.415 4786.5C586.034 4794.77 591.33 4804.2 595.302 4814.79C599.274 4825.05 601.259 4836.79 601.259 4850.03C601.259 4859.96 599.274 4869.39 595.302 4878.32C591.661 4886.92 586.531 4894.54 579.911 4901.15C573.622 4907.44 566.175 4912.57 557.57 4916.54C548.964 4920.18 539.697 4922 529.767 4922C519.838 4922 510.405 4920.18 501.468 4916.54C492.863 4912.57 485.25 4907.44 478.63 4901.15C472.342 4894.54 467.211 4886.92 463.24 4878.32C459.599 4869.39 457.778 4859.96 457.778 4850.03H474.162C474.162 4857.64 475.651 4864.92 478.63 4871.87C481.609 4878.49 485.581 4884.28 490.546 4889.24C495.51 4894.2 501.303 4898.18 507.922 4901.15C514.873 4904.13 522.154 4905.62 529.767 4905.62C537.38 4905.62 544.496 4904.13 551.116 4901.15C557.735 4898.18 563.527 4894.2 568.492 4889.24C573.457 4884.28 577.429 4878.49 580.408 4871.87C583.386 4864.92 584.876 4857.64 584.876 4850.03C584.876 4838.78 583.055 4828.69 579.415 4819.75C576.105 4810.82 571.471 4802.71 565.513 4795.43C559.887 4787.82 553.267 4780.87 545.654 4774.58C538.373 4767.97 530.76 4761.51 522.816 4755.23C514.873 4748.94 506.929 4742.49 498.986 4735.87C491.373 4728.92 484.422 4721.47 478.134 4713.53C472.176 4705.59 467.211 4696.82 463.24 4687.23C459.599 4677.63 457.778 4666.55 457.778 4653.97C457.778 4644.04 459.599 4634.78 463.24 4626.18C467.211 4617.24 472.342 4609.63 478.63 4603.34C485.25 4596.73 492.863 4591.6 501.468 4587.96C510.405 4583.99 519.838 4582 529.767 4582C539.697 4582 548.964 4583.99 557.57 4587.96C566.175 4591.6 573.622 4596.73 579.911 4603.34C586.531 4609.63 591.661 4617.24 595.302 4626.18C599.274 4634.78 601.259 4644.04 601.259 4653.97H584.876C584.876 4646.36 583.386 4639.25 580.408 4632.63C577.429 4626.01 573.457 4620.22 568.492 4615.26C563.527 4610.29 557.735 4606.32 551.116 4603.34C544.496 4600.36 537.38 4598.88 529.767 4598.88C522.154 4598.88 514.873 4600.36 507.922 4603.34C501.303 4606.32 495.51 4610.29 490.546 4615.26C485.581 4620.22 481.609 4626.01 478.63 4632.63C475.651 4639.25 474.162 4646.36 474.162 4653.97C474.162 4664.56 475.817 4673.99 479.127 4682.26C482.437 4690.2 486.739 4697.65 492.035 4704.6C497.662 4711.55 503.95 4718.17 510.901 4724.45C518.183 4730.41 525.63 4736.36 533.242 4742.32Z" fill="#21AF9C"/>
<path d="M776.701 4919.52H760.317V4583.99H776.701V4919.52Z" fill="#21AF9C"/>
<path d="M1007.33 4922C997.403 4922 987.97 4920.18 979.034 4916.54C970.428 4912.57 962.816 4907.44 956.196 4901.15C949.907 4894.54 944.777 4886.92 940.805 4878.32C937.164 4869.39 935.344 4859.96 935.344 4850.03V4653.97C935.344 4644.04 937.164 4634.78 940.805 4626.18C944.777 4617.24 949.907 4609.63 956.196 4603.34C962.816 4596.73 970.428 4591.6 979.034 4587.96C987.97 4583.99 997.403 4582 1007.33 4582C1017.26 4582 1026.53 4583.99 1035.14 4587.96C1043.74 4591.6 1051.19 4596.73 1057.48 4603.34C1064.1 4609.63 1069.23 4617.24 1072.87 4626.18C1076.84 4634.78 1078.83 4644.04 1078.83 4653.97V4850.03C1078.83 4859.96 1076.84 4869.39 1072.87 4878.32C1069.23 4886.92 1064.1 4894.54 1057.48 4901.15C1051.19 4907.44 1043.74 4912.57 1035.14 4916.54C1026.53 4920.18 1017.26 4922 1007.33 4922ZM1007.33 4598.88C999.72 4598.88 992.439 4600.36 985.488 4603.34C978.868 4606.32 973.076 4610.29 968.111 4615.26C963.147 4620.22 959.175 4626.01 956.196 4632.63C953.217 4639.25 951.728 4646.36 951.728 4653.97V4850.03C951.728 4857.64 953.217 4864.92 956.196 4871.87C959.175 4878.49 963.147 4884.28 968.111 4889.24C973.076 4894.2 978.868 4898.18 985.488 4901.15C992.439 4904.13 999.72 4905.62 1007.33 4905.62C1014.95 4905.62 1022.06 4904.13 1028.68 4901.15C1035.3 4898.18 1041.09 4894.2 1046.06 4889.24C1051.02 4884.28 1054.99 4878.49 1057.97 4871.87C1060.95 4864.92 1062.44 4857.64 1062.44 4850.03V4653.97C1062.44 4646.36 1060.95 4639.25 1057.97 4632.63C1054.99 4626.01 1051.02 4620.22 1046.06 4615.26C1041.09 4610.29 1035.3 4606.32 1028.68 4603.34C1022.06 4600.36 1014.95 4598.88 1007.33 4598.88Z" fill="#21AF9C"/>
<path d="M1368.46 4583.99V4600.86H1301.43V4919.52H1285.05V4600.86H1218.02V4583.99H1368.46Z" fill="#21AF9C"/>
<path d="M1642.87 4600.86H1528.69V4727.43H1622.52V4743.81H1528.69V4903.14H1642.87V4919.52H1512.3V4583.99H1642.87V4600.86Z" fill="#21AF9C"/>
<path d="M1849.15 4778.06H1808.44V4919.52H1792.05V4583.99H1852.62C1862.55 4583.99 1871.82 4585.81 1880.43 4589.45C1889.36 4593.09 1896.97 4598.21 1903.26 4604.83C1909.88 4611.12 1915.01 4618.56 1918.65 4627.17C1922.63 4635.77 1924.61 4645.04 1924.61 4654.96V4707.08C1924.61 4715.68 1923.12 4723.79 1920.14 4731.4C1917.16 4739.01 1913.03 4745.96 1907.73 4752.25C1902.44 4758.54 1896.31 4763.83 1889.36 4768.13C1882.41 4772.1 1874.8 4774.91 1866.52 4776.57L1927.09 4919.52H1909.22L1849.15 4778.06ZM1808.44 4761.68H1852.62C1860.24 4761.68 1867.35 4760.36 1873.97 4757.71C1880.59 4754.73 1886.38 4750.76 1891.35 4745.8C1896.31 4740.83 1900.28 4735.04 1903.26 4728.42C1906.24 4721.81 1907.73 4714.69 1907.73 4707.08V4654.96C1907.73 4647.68 1906.24 4640.73 1903.26 4634.12C1900.28 4627.5 1896.31 4621.71 1891.35 4616.74C1886.38 4611.78 1880.59 4607.81 1873.97 4604.83C1867.35 4601.85 1860.24 4600.36 1852.62 4600.36H1808.44V4761.68Z" fill="#21AF9C"/>
<path d="M2235.8 4919.52L2212.47 4814.29H2116.15L2092.82 4919.52H2075.94L2150.41 4583.99H2178.21L2252.68 4919.52H2235.8ZM2119.63 4797.91H2208.99L2164.31 4597.39L2119.63 4797.91Z" fill="#21AF9C"/>
<path d="M2462.18 4583.99C2472.11 4583.99 2481.21 4585.97 2489.49 4589.94C2498.09 4593.58 2505.54 4598.71 2511.83 4605.33C2518.45 4611.62 2523.58 4619.06 2527.22 4627.66C2530.86 4636.27 2532.68 4645.37 2532.68 4654.96V4723.46C2532.68 4733.06 2530.86 4741.99 2527.22 4750.26C2523.91 4758.54 2519.11 4765.82 2512.82 4772.1C2506.86 4778.39 2499.75 4783.52 2491.47 4787.49C2483.53 4791.46 2474.92 4793.78 2465.66 4794.44H2413.03V4919.52H2396.65V4583.99H2462.18ZM2516.3 4654.96C2516.3 4647.68 2514.81 4640.73 2511.83 4634.12C2508.85 4627.5 2504.88 4621.71 2499.91 4616.74C2494.95 4611.78 2489.16 4607.81 2482.54 4604.83C2475.92 4601.85 2468.8 4600.36 2461.19 4600.36H2413.03V4778.06H2462.18C2469.79 4778.06 2476.91 4776.57 2483.53 4773.59C2490.15 4770.61 2495.78 4766.64 2500.41 4761.68C2505.37 4756.72 2509.18 4751.09 2511.83 4744.8C2514.81 4738.18 2516.3 4731.07 2516.3 4723.46V4654.96Z" fill="#21AF9C"/>
<path d="M2707.81 4919.52H2691.43V4583.99H2707.81V4919.52Z" fill="#21AF9C"/>
<path d="M3016.39 4919.52L2993.06 4814.29H2896.74L2873.41 4919.52H2856.53L2931 4583.99H2958.8L3033.27 4919.52H3016.39ZM2900.22 4797.91H2989.58L2944.9 4597.39L2900.22 4797.91Z" fill="#21AF9C"/>
<path d="M3509.02 4600.86H3394.83V4727.43H3488.66V4743.81H3394.83V4903.14H3509.02V4919.52H3378.44V4583.99H3509.02V4600.86Z" fill="#21AF9C"/>
<path d="M4041.61 4583.99H4058.49V4919.52H4042.11V4630.64L3959.19 4858.47L3875.79 4630.64V4919.52H3859.4V4583.99H3876.28L3959.19 4810.32L4041.61 4583.99Z" fill="#21AF9C"/>
<path d="M4367.15 4919.52L4343.82 4814.29H4247.5L4224.17 4919.52H4207.28L4281.76 4583.99H4309.56L4384.03 4919.52H4367.15ZM4250.97 4797.91H4340.34L4295.66 4597.39L4250.97 4797.91Z" fill="#21AF9C"/>
<path d="M4603.46 4742.32C4611.73 4748.94 4619.84 4755.89 4627.79 4763.17C4636.06 4770.12 4643.34 4777.89 4649.63 4786.5C4656.25 4794.77 4661.55 4804.2 4665.52 4814.79C4669.49 4825.05 4671.48 4836.79 4671.48 4850.03C4671.48 4859.96 4669.49 4869.39 4665.52 4878.32C4661.88 4886.92 4656.75 4894.54 4650.13 4901.15C4643.84 4907.44 4636.39 4912.57 4627.79 4916.54C4619.18 4920.18 4609.91 4922 4599.98 4922C4590.06 4922 4580.62 4920.18 4571.69 4916.54C4563.08 4912.57 4555.47 4907.44 4548.85 4901.15C4542.56 4894.54 4537.43 4886.92 4533.46 4878.32C4529.82 4869.39 4528 4859.96 4528 4850.03H4544.38C4544.38 4857.64 4545.87 4864.92 4548.85 4871.87C4551.83 4878.49 4555.8 4884.28 4560.76 4889.24C4565.73 4894.2 4571.52 4898.18 4578.14 4901.15C4585.09 4904.13 4592.37 4905.62 4599.98 4905.62C4607.6 4905.62 4614.71 4904.13 4621.33 4901.15C4627.95 4898.18 4633.74 4894.2 4638.71 4889.24C4643.67 4884.28 4647.65 4878.49 4650.63 4871.87C4653.6 4864.92 4655.09 4857.64 4655.09 4850.03C4655.09 4838.78 4653.27 4828.69 4649.63 4819.75C4646.32 4810.82 4641.69 4802.71 4635.73 4795.43C4630.1 4787.82 4623.48 4780.87 4615.87 4774.58C4608.59 4767.97 4600.98 4761.51 4593.03 4755.23C4585.09 4748.94 4577.15 4742.49 4569.2 4735.87C4561.59 4728.92 4554.64 4721.47 4548.35 4713.53C4542.39 4705.59 4537.43 4696.82 4533.46 4687.23C4529.82 4677.63 4528 4666.55 4528 4653.97C4528 4644.04 4529.82 4634.78 4533.46 4626.18C4537.43 4617.24 4542.56 4609.63 4548.85 4603.34C4555.47 4596.73 4563.08 4591.6 4571.69 4587.96C4580.62 4583.99 4590.06 4582 4599.98 4582C4609.91 4582 4619.18 4583.99 4627.79 4587.96C4636.39 4591.6 4643.84 4596.73 4650.13 4603.34C4656.75 4609.63 4661.88 4617.24 4665.52 4626.18C4669.49 4634.78 4671.48 4644.04 4671.48 4653.97H4655.09C4655.09 4646.36 4653.6 4639.25 4650.63 4632.63C4647.65 4626.01 4643.67 4620.22 4638.71 4615.26C4633.74 4610.29 4627.95 4606.32 4621.33 4603.34C4614.71 4600.36 4607.6 4598.88 4599.98 4598.88C4592.37 4598.88 4585.09 4600.36 4578.14 4603.34C4571.52 4606.32 4565.73 4610.29 4560.76 4615.26C4555.8 4620.22 4551.83 4626.01 4548.85 4632.63C4545.87 4639.25 4544.38 4646.36 4544.38 4653.97C4544.38 4664.56 4546.03 4673.99 4549.34 4682.26C4552.65 4690.2 4556.96 4697.65 4562.25 4704.6C4567.88 4711.55 4574.17 4718.17 4581.12 4724.45C4588.4 4730.41 4595.85 4736.36 4603.46 4742.32Z" fill="#21AF9C"/>
<path d="M4906 4742.32C4914.27 4748.94 4922.38 4755.89 4930.33 4763.17C4938.6 4770.12 4945.88 4777.89 4952.17 4786.5C4958.79 4794.77 4964.09 4804.2 4968.06 4814.79C4972.03 4825.05 4974.02 4836.79 4974.02 4850.03C4974.02 4859.96 4972.03 4869.39 4968.06 4878.32C4964.42 4886.92 4959.29 4894.54 4952.67 4901.15C4946.38 4907.44 4938.93 4912.57 4930.33 4916.54C4921.72 4920.18 4912.45 4922 4902.52 4922C4892.59 4922 4883.16 4920.18 4874.22 4916.54C4865.62 4912.57 4858.01 4907.44 4851.39 4901.15C4845.1 4894.54 4839.97 4886.92 4836 4878.32C4832.36 4869.39 4830.53 4859.96 4830.53 4850.03H4846.92C4846.92 4857.64 4848.41 4864.92 4851.39 4871.87C4854.37 4878.49 4858.34 4884.28 4863.3 4889.24C4868.27 4894.2 4874.06 4898.18 4880.68 4901.15C4887.63 4904.13 4894.91 4905.62 4902.52 4905.62C4910.14 4905.62 4917.25 4904.13 4923.87 4901.15C4930.49 4898.18 4936.28 4894.2 4941.25 4889.24C4946.21 4884.28 4950.19 4878.49 4953.16 4871.87C4956.14 4864.92 4957.63 4857.64 4957.63 4850.03C4957.63 4838.78 4955.81 4828.69 4952.17 4819.75C4948.86 4810.82 4944.23 4802.71 4938.27 4795.43C4932.64 4787.82 4926.02 4780.87 4918.41 4774.58C4911.13 4767.97 4903.52 4761.51 4895.57 4755.23C4887.63 4748.94 4879.69 4742.49 4871.74 4735.87C4864.13 4728.92 4857.18 4721.47 4850.89 4713.53C4844.93 4705.59 4839.97 4696.82 4836 4687.23C4832.36 4677.63 4830.53 4666.55 4830.53 4653.97C4830.53 4644.04 4832.36 4634.78 4836 4626.18C4839.97 4617.24 4845.1 4609.63 4851.39 4603.34C4858.01 4596.73 4865.62 4591.6 4874.22 4587.96C4883.16 4583.99 4892.59 4582 4902.52 4582C4912.45 4582 4921.72 4583.99 4930.33 4587.96C4938.93 4591.6 4946.38 4596.73 4952.67 4603.34C4959.29 4609.63 4964.42 4617.24 4968.06 4626.18C4972.03 4634.78 4974.02 4644.04 4974.02 4653.97H4957.63C4957.63 4646.36 4956.14 4639.25 4953.16 4632.63C4950.19 4626.01 4946.21 4620.22 4941.25 4615.26C4936.28 4610.29 4930.49 4606.32 4923.87 4603.34C4917.25 4600.36 4910.14 4598.88 4902.52 4598.88C4894.91 4598.88 4887.63 4600.36 4880.68 4603.34C4874.06 4606.32 4868.27 4610.29 4863.3 4615.26C4858.34 4620.22 4854.37 4626.01 4851.39 4632.63C4848.41 4639.25 4846.92 4646.36 4846.92 4653.97C4846.92 4664.56 4848.57 4673.99 4851.88 4682.26C4855.19 4690.2 4859.5 4697.65 4864.79 4704.6C4870.42 4711.55 4876.71 4718.17 4883.66 4724.45C4890.94 4730.41 4898.39 4736.36 4906 4742.32Z" fill="#21AF9C"/>
<path d="M5205.06 4922C5195.13 4922 5185.7 4920.18 5176.76 4916.54C5168.16 4912.57 5160.55 4907.44 5153.93 4901.15C5147.64 4894.54 5142.51 4886.92 5138.54 4878.32C5134.89 4869.39 5133.07 4859.96 5133.07 4850.03V4653.97C5133.07 4644.04 5134.89 4634.78 5138.54 4626.18C5142.51 4617.24 5147.64 4609.63 5153.93 4603.34C5160.55 4596.73 5168.16 4591.6 5176.76 4587.96C5185.7 4583.99 5195.13 4582 5205.06 4582C5214.99 4582 5224.26 4583.99 5232.87 4587.96C5241.47 4591.6 5248.92 4596.73 5255.21 4603.34C5261.83 4609.63 5266.96 4617.24 5270.6 4626.18C5274.57 4634.78 5276.56 4644.04 5276.56 4653.97V4850.03C5276.56 4859.96 5274.57 4869.39 5270.6 4878.32C5266.96 4886.92 5261.83 4894.54 5255.21 4901.15C5248.92 4907.44 5241.47 4912.57 5232.87 4916.54C5224.26 4920.18 5214.99 4922 5205.06 4922ZM5205.06 4598.88C5197.45 4598.88 5190.17 4600.36 5183.22 4603.34C5176.6 4606.32 5170.81 4610.29 5165.84 4615.26C5160.88 4620.22 5156.9 4626.01 5153.93 4632.63C5150.95 4639.25 5149.46 4646.36 5149.46 4653.97V4850.03C5149.46 4857.64 5150.95 4864.92 5153.93 4871.87C5156.9 4878.49 5160.88 4884.28 5165.84 4889.24C5170.81 4894.2 5176.6 4898.18 5183.22 4901.15C5190.17 4904.13 5197.45 4905.62 5205.06 4905.62C5212.68 4905.62 5219.79 4904.13 5226.41 4901.15C5233.03 4898.18 5238.82 4894.2 5243.79 4889.24C5248.75 4884.28 5252.72 4878.49 5255.7 4871.87C5258.68 4864.92 5260.17 4857.64 5260.17 4850.03V4653.97C5260.17 4646.36 5258.68 4639.25 5255.7 4632.63C5252.72 4626.01 5248.75 4620.22 5243.79 4615.26C5238.82 4610.29 5233.03 4606.32 5226.41 4603.34C5219.79 4600.36 5212.68 4598.88 5205.06 4598.88Z" fill="#21AF9C"/>
<path d="M5566.19 4583.99V4600.86H5499.16V4919.52H5482.78V4600.86H5415.75V4583.99H5566.19Z" fill="#21AF9C"/>
<path d="M5840.6 4600.86H5726.42V4727.43H5820.25V4743.81H5726.42V4903.14H5840.6V4919.52H5710.03V4583.99H5840.6V4600.86Z" fill="#21AF9C"/>
<path d="M6046.88 4778.06H6006.17V4919.52H5989.78V4583.99H6050.35C6060.28 4583.99 6069.55 4585.81 6078.16 4589.45C6087.09 4593.09 6094.7 4598.21 6100.99 4604.83C6107.61 4611.12 6112.74 4618.56 6116.38 4627.17C6120.36 4635.77 6122.34 4645.04 6122.34 4654.96V4707.08C6122.34 4715.68 6120.85 4723.79 6117.87 4731.4C6114.89 4739.01 6110.76 4745.96 6105.46 4752.25C6100.17 4758.54 6094.04 4763.83 6087.09 4768.13C6080.14 4772.1 6072.53 4774.91 6064.25 4776.57L6124.82 4919.52H6106.95L6046.88 4778.06ZM6006.17 4761.68H6050.35C6057.97 4761.68 6065.08 4760.36 6071.7 4757.71C6078.32 4754.73 6084.11 4750.76 6089.08 4745.8C6094.04 4740.83 6098.01 4735.04 6100.99 4728.42C6103.97 4721.81 6105.46 4714.69 6105.46 4707.08V4654.96C6105.46 4647.68 6103.97 4640.73 6100.99 4634.12C6098.01 4627.5 6094.04 4621.71 6089.08 4616.74C6084.11 4611.78 6078.32 4607.81 6071.7 4604.83C6065.08 4601.85 6057.97 4600.36 6050.35 4600.36H6006.17V4761.68Z" fill="#21AF9C"/>
<path d="M6433.53 4919.52L6410.2 4814.29H6313.88L6290.55 4919.52H6273.67L6348.14 4583.99H6375.94L6450.41 4919.52H6433.53ZM6317.36 4797.91H6406.72L6362.04 4597.39L6317.36 4797.91Z" fill="#21AF9C"/>
<path d="M6659.91 4583.99C6669.84 4583.99 6678.94 4585.97 6687.22 4589.94C6695.82 4593.58 6703.27 4598.71 6709.56 4605.33C6716.18 4611.62 6721.31 4619.06 6724.95 4627.66C6728.59 4636.27 6730.41 4645.37 6730.41 4654.96V4723.46C6730.41 4733.06 6728.59 4741.99 6724.95 4750.26C6721.64 4758.54 6716.84 4765.82 6710.55 4772.1C6704.59 4778.39 6697.48 4783.52 6689.2 4787.49C6681.26 4791.46 6672.65 4793.78 6663.39 4794.44H6610.76V4919.52H6594.38V4583.99H6659.91ZM6714.03 4654.96C6714.03 4647.68 6712.54 4640.73 6709.56 4634.12C6706.58 4627.5 6702.61 4621.71 6697.64 4616.74C6692.68 4611.78 6686.89 4607.81 6680.27 4604.83C6673.65 4601.85 6666.53 4600.36 6658.92 4600.36H6610.76V4778.06H6659.91C6667.52 4778.06 6674.64 4776.57 6681.26 4773.59C6687.88 4770.61 6693.51 4766.64 6698.14 4761.68C6703.1 4756.72 6706.91 4751.09 6709.56 4744.8C6712.54 4738.18 6714.03 4731.07 6714.03 4723.46V4654.96Z" fill="#21AF9C"/>
<path d="M6905.54 4919.52H6889.16V4583.99H6905.54V4919.52Z" fill="#21AF9C"/>
<path d="M7214.12 4919.52L7190.79 4814.29H7094.47L7071.14 4919.52H7054.26L7128.73 4583.99H7156.53L7231 4919.52H7214.12ZM7097.95 4797.91H7187.31L7142.63 4597.39L7097.95 4797.91Z" fill="#21AF9C"/>
<path d="M133.573 4600.86H19.3837V4727.43H113.217V4743.81H19.3837V4919.52H3V4583.99H133.573V4600.86Z" stroke="#21AF9C" stroke-width="6" mask="url(#path-3-outside-1_128_83)"/>
<path d="M299.135 4919.52H282.752V4583.99H299.135V4919.52Z" stroke="#21AF9C" stroke-width="6" mask="url(#path-3-outside-1_128_83)"/>
<path d="M533.242 4742.32C541.517 4748.94 549.626 4755.89 557.57 4763.17C565.844 4770.12 573.126 4777.89 579.415 4786.5C586.034 4794.77 591.33 4804.2 595.302 4814.79C599.274 4825.05 601.259 4836.79 601.259 4850.03C601.259 4859.96 599.274 4869.39 595.302 4878.32C591.661 4886.92 586.531 4894.54 579.911 4901.15C573.622 4907.44 566.175 4912.57 557.57 4916.54C548.964 4920.18 539.697 4922 529.767 4922C519.838 4922 510.405 4920.18 501.468 4916.54C492.863 4912.57 485.25 4907.44 478.63 4901.15C472.342 4894.54 467.211 4886.92 463.24 4878.32C459.599 4869.39 457.778 4859.96 457.778 4850.03H474.162C474.162 4857.64 475.651 4864.92 478.63 4871.87C481.609 4878.49 485.581 4884.28 490.546 4889.24C495.51 4894.2 501.303 4898.18 507.922 4901.15C514.873 4904.13 522.154 4905.62 529.767 4905.62C537.38 4905.62 544.496 4904.13 551.116 4901.15C557.735 4898.18 563.527 4894.2 568.492 4889.24C573.457 4884.28 577.429 4878.49 580.408 4871.87C583.386 4864.92 584.876 4857.64 584.876 4850.03C584.876 4838.78 583.055 4828.69 579.415 4819.75C576.105 4810.82 571.471 4802.71 565.513 4795.43C559.887 4787.82 553.267 4780.87 545.654 4774.58C538.373 4767.97 530.76 4761.51 522.816 4755.23C514.873 4748.94 506.929 4742.49 498.986 4735.87C491.373 4728.92 484.422 4721.47 478.134 4713.53C472.176 4705.59 467.211 4696.82 463.24 4687.23C459.599 4677.63 457.778 4666.55 457.778 4653.97C457.778 4644.04 459.599 4634.78 463.24 4626.18C467.211 4617.24 472.342 4609.63 478.63 4603.34C485.25 4596.73 492.863 4591.6 501.468 4587.96C510.405 4583.99 519.838 4582 529.767 4582C539.697 4582 548.964 4583.99 557.57 4587.96C566.175 4591.6 573.622 4596.73 579.911 4603.34C586.531 4609.63 591.661 4617.24 595.302 4626.18C599.274 4634.78 601.259 4644.04 601.259 4653.97H584.876C584.876 4646.36 583.386 4639.25 580.408 4632.63C577.429 4626.01 573.457 4620.22 568.492 4615.26C563.527 4610.29 557.735 4606.32 551.116 4603.34C544.496 4600.36 537.38 4598.88 529.767 4598.88C522.154 4598.88 514.873 4600.36 507.922 4603.34C501.303 4606.32 495.51 4610.29 490.546 4615.26C485.581 4620.22 481.609 4626.01 478.63 4632.63C475.651 4639.25 474.162 4646.36 474.162 4653.97C474.162 4664.56 475.817 4673.99 479.127 4682.26C482.437 4690.2 486.739 4697.65 492.035 4704.6C497.662 4711.55 503.95 4718.17 510.901 4724.45C518.183 4730.41 525.63 4736.36 533.242 4742.32Z" stroke="#21AF9C" stroke-width="6" mask="url(#path-3-outside-1_128_83)"/>
<path d="M776.701 4919.52H760.317V4583.99H776.701V4919.52Z" stroke="#21AF9C" stroke-width="6" mask="url(#path-3-outside-1_128_83)"/>
<path d="M1007.33 4922C997.403 4922 987.97 4920.18 979.034 4916.54C970.428 4912.57 962.816 4907.44 956.196 4901.15C949.907 4894.54 944.777 4886.92 940.805 4878.32C937.164 4869.39 935.344 4859.96 935.344 4850.03V4653.97C935.344 4644.04 937.164 4634.78 940.805 4626.18C944.777 4617.24 949.907 4609.63 956.196 4603.34C962.816 4596.73 970.428 4591.6 979.034 4587.96C987.97 4583.99 997.403 4582 1007.33 4582C1017.26 4582 1026.53 4583.99 1035.14 4587.96C1043.74 4591.6 1051.19 4596.73 1057.48 4603.34C1064.1 4609.63 1069.23 4617.24 1072.87 4626.18C1076.84 4634.78 1078.83 4644.04 1078.83 4653.97V4850.03C1078.83 4859.96 1076.84 4869.39 1072.87 4878.32C1069.23 4886.92 1064.1 4894.54 1057.48 4901.15C1051.19 4907.44 1043.74 4912.57 1035.14 4916.54C1026.53 4920.18 1017.26 4922 1007.33 4922ZM1007.33 4598.88C999.72 4598.88 992.439 4600.36 985.488 4603.34C978.868 4606.32 973.076 4610.29 968.111 4615.26C963.147 4620.22 959.175 4626.01 956.196 4632.63C953.217 4639.25 951.728 4646.36 951.728 4653.97V4850.03C951.728 4857.64 953.217 4864.92 956.196 4871.87C959.175 4878.49 963.147 4884.28 968.111 4889.24C973.076 4894.2 978.868 4898.18 985.488 4901.15C992.439 4904.13 999.72 4905.62 1007.33 4905.62C1014.95 4905.62 1022.06 4904.13 1028.68 4901.15C1035.3 4898.18 1041.09 4894.2 1046.06 4889.24C1051.02 4884.28 1054.99 4878.49 1057.97 4871.87C1060.95 4864.92 1062.44 4857.64 1062.44 4850.03V4653.97C1062.44 4646.36 1060.95 4639.25 1057.97 4632.63C1054.99 4626.01 1051.02 4620.22 1046.06 4615.26C1041.09 4610.29 1035.3 4606.32 1028.68 4603.34C1022.06 4600.36 1014.95 4598.88 1007.33 4598.88Z" stroke="#21AF9C" stroke-width="6" mask="url(#path-3-outside-1_128_83)"/>
<path d="M1368.46 4583.99V4600.86H1301.43V4919.52H1285.05V4600.86H1218.02V4583.99H1368.46Z" stroke="#21AF9C" stroke-width="6" mask="url(#path-3-outside-1_128_83)"/>
<path d="M1642.87 4600.86H1528.69V4727.43H1622.52V4743.81H1528.69V4903.14H1642.87V4919.52H1512.3V4583.99H1642.87V4600.86Z" stroke="#21AF9C" stroke-width="6" mask="url(#path-3-outside-1_128_83)"/>
<path d="M1849.15 4778.06H1808.44V4919.52H1792.05V4583.99H1852.62C1862.55 4583.99 1871.82 4585.81 1880.43 4589.45C1889.36 4593.09 1896.97 4598.21 1903.26 4604.83C1909.88 4611.12 1915.01 4618.56 1918.65 4627.17C1922.63 4635.77 1924.61 4645.04 1924.61 4654.96V4707.08C1924.61 4715.68 1923.12 4723.79 1920.14 4731.4C1917.16 4739.01 1913.03 4745.96 1907.73 4752.25C1902.44 4758.54 1896.31 4763.83 1889.36 4768.13C1882.41 4772.1 1874.8 4774.91 1866.52 4776.57L1927.09 4919.52H1909.22L1849.15 4778.06ZM1808.44 4761.68H1852.62C1860.24 4761.68 1867.35 4760.36 1873.97 4757.71C1880.59 4754.73 1886.38 4750.76 1891.35 4745.8C1896.31 4740.83 1900.28 4735.04 1903.26 4728.42C1906.24 4721.81 1907.73 4714.69 1907.73 4707.08V4654.96C1907.73 4647.68 1906.24 4640.73 1903.26 4634.12C1900.28 4627.5 1896.31 4621.71 1891.35 4616.74C1886.38 4611.78 1880.59 4607.81 1873.97 4604.83C1867.35 4601.85 1860.24 4600.36 1852.62 4600.36H1808.44V4761.68Z" stroke="#21AF9C" stroke-width="6" mask="url(#path-3-outside-1_128_83)"/>
<path d="M2235.8 4919.52L2212.47 4814.29H2116.15L2092.82 4919.52H2075.94L2150.41 4583.99H2178.21L2252.68 4919.52H2235.8ZM2119.63 4797.91H2208.99L2164.31 4597.39L2119.63 4797.91Z" stroke="#21AF9C" stroke-width="6" mask="url(#path-3-outside-1_128_83)"/>
<path d="M2462.18 4583.99C2472.11 4583.99 2481.21 4585.97 2489.49 4589.94C2498.09 4593.58 2505.54 4598.71 2511.83 4605.33C2518.45 4611.62 2523.58 4619.06 2527.22 4627.66C2530.86 4636.27 2532.68 4645.37 2532.68 4654.96V4723.46C2532.68 4733.06 2530.86 4741.99 2527.22 4750.26C2523.91 4758.54 2519.11 4765.82 2512.82 4772.1C2506.86 4778.39 2499.75 4783.52 2491.47 4787.49C2483.53 4791.46 2474.92 4793.78 2465.66 4794.44H2413.03V4919.52H2396.65V4583.99H2462.18ZM2516.3 4654.96C2516.3 4647.68 2514.81 4640.73 2511.83 4634.12C2508.85 4627.5 2504.88 4621.71 2499.91 4616.74C2494.95 4611.78 2489.16 4607.81 2482.54 4604.83C2475.92 4601.85 2468.8 4600.36 2461.19 4600.36H2413.03V4778.06H2462.18C2469.79 4778.06 2476.91 4776.57 2483.53 4773.59C2490.15 4770.61 2495.78 4766.64 2500.41 4761.68C2505.37 4756.72 2509.18 4751.09 2511.83 4744.8C2514.81 4738.18 2516.3 4731.07 2516.3 4723.46V4654.96Z" stroke="#21AF9C" stroke-width="6" mask="url(#path-3-outside-1_128_83)"/>
<path d="M2707.81 4919.52H2691.43V4583.99H2707.81V4919.52Z" stroke="#21AF9C" stroke-width="6" mask="url(#path-3-outside-1_128_83)"/>
<path d="M3016.39 4919.52L2993.06 4814.29H2896.74L2873.41 4919.52H2856.53L2931 4583.99H2958.8L3033.27 4919.52H3016.39ZM2900.22 4797.91H2989.58L2944.9 4597.39L2900.22 4797.91Z" stroke="#21AF9C" stroke-width="6" mask="url(#path-3-outside-1_128_83)"/>
<path d="M3509.02 4600.86H3394.83V4727.43H3488.66V4743.81H3394.83V4903.14H3509.02V4919.52H3378.44V4583.99H3509.02V4600.86Z" stroke="#21AF9C" stroke-width="6" mask="url(#path-3-outside-1_128_83)"/>
<path d="M4041.61 4583.99H4058.49V4919.52H4042.11V4630.64L3959.19 4858.47L3875.79 4630.64V4919.52H3859.4V4583.99H3876.28L3959.19 4810.32L4041.61 4583.99Z" stroke="#21AF9C" stroke-width="6" mask="url(#path-3-outside-1_128_83)"/>
<path d="M4367.15 4919.52L4343.82 4814.29H4247.5L4224.17 4919.52H4207.28L4281.76 4583.99H4309.56L4384.03 4919.52H4367.15ZM4250.97 4797.91H4340.34L4295.66 4597.39L4250.97 4797.91Z" stroke="#21AF9C" stroke-width="6" mask="url(#path-3-outside-1_128_83)"/>
<path d="M4603.46 4742.32C4611.73 4748.94 4619.84 4755.89 4627.79 4763.17C4636.06 4770.12 4643.34 4777.89 4649.63 4786.5C4656.25 4794.77 4661.55 4804.2 4665.52 4814.79C4669.49 4825.05 4671.48 4836.79 4671.48 4850.03C4671.48 4859.96 4669.49 4869.39 4665.52 4878.32C4661.88 4886.92 4656.75 4894.54 4650.13 4901.15C4643.84 4907.44 4636.39 4912.57 4627.79 4916.54C4619.18 4920.18 4609.91 4922 4599.98 4922C4590.06 4922 4580.62 4920.18 4571.69 4916.54C4563.08 4912.57 4555.47 4907.44 4548.85 4901.15C4542.56 4894.54 4537.43 4886.92 4533.46 4878.32C4529.82 4869.39 4528 4859.96 4528 4850.03H4544.38C4544.38 4857.64 4545.87 4864.92 4548.85 4871.87C4551.83 4878.49 4555.8 4884.28 4560.76 4889.24C4565.73 4894.2 4571.52 4898.18 4578.14 4901.15C4585.09 4904.13 4592.37 4905.62 4599.98 4905.62C4607.6 4905.62 4614.71 4904.13 4621.33 4901.15C4627.95 4898.18 4633.74 4894.2 4638.71 4889.24C4643.67 4884.28 4647.65 4878.49 4650.63 4871.87C4653.6 4864.92 4655.09 4857.64 4655.09 4850.03C4655.09 4838.78 4653.27 4828.69 4649.63 4819.75C4646.32 4810.82 4641.69 4802.71 4635.73 4795.43C4630.1 4787.82 4623.48 4780.87 4615.87 4774.58C4608.59 4767.97 4600.98 4761.51 4593.03 4755.23C4585.09 4748.94 4577.15 4742.49 4569.2 4735.87C4561.59 4728.92 4554.64 4721.47 4548.35 4713.53C4542.39 4705.59 4537.43 4696.82 4533.46 4687.23C4529.82 4677.63 4528 4666.55 4528 4653.97C4528 4644.04 4529.82 4634.78 4533.46 4626.18C4537.43 4617.24 4542.56 4609.63 4548.85 4603.34C4555.47 4596.73 4563.08 4591.6 4571.69 4587.96C4580.62 4583.99 4590.06 4582 4599.98 4582C4609.91 4582 4619.18 4583.99 4627.79 4587.96C4636.39 4591.6 4643.84 4596.73 4650.13 4603.34C4656.75 4609.63 4661.88 4617.24 4665.52 4626.18C4669.49 4634.78 4671.48 4644.04 4671.48 4653.97H4655.09C4655.09 4646.36 4653.6 4639.25 4650.63 4632.63C4647.65 4626.01 4643.67 4620.22 4638.71 4615.26C4633.74 4610.29 4627.95 4606.32 4621.33 4603.34C4614.71 4600.36 4607.6 4598.88 4599.98 4598.88C4592.37 4598.88 4585.09 4600.36 4578.14 4603.34C4571.52 4606.32 4565.73 4610.29 4560.76 4615.26C4555.8 4620.22 4551.83 4626.01 4548.85 4632.63C4545.87 4639.25 4544.38 4646.36 4544.38 4653.97C4544.38 4664.56 4546.03 4673.99 4549.34 4682.26C4552.65 4690.2 4556.96 4697.65 4562.25 4704.6C4567.88 4711.55 4574.17 4718.17 4581.12 4724.45C4588.4 4730.41 4595.85 4736.36 4603.46 4742.32Z" stroke="#21AF9C" stroke-width="6" mask="url(#path-3-outside-1_128_83)"/>
<path d="M4906 4742.32C4914.27 4748.94 4922.38 4755.89 4930.33 4763.17C4938.6 4770.12 4945.88 4777.89 4952.17 4786.5C4958.79 4794.77 4964.09 4804.2 4968.06 4814.79C4972.03 4825.05 4974.02 4836.79 4974.02 4850.03C4974.02 4859.96 4972.03 4869.39 4968.06 4878.32C4964.42 4886.92 4959.29 4894.54 4952.67 4901.15C4946.38 4907.44 4938.93 4912.57 4930.33 4916.54C4921.72 4920.18 4912.45 4922 4902.52 4922C4892.59 4922 4883.16 4920.18 4874.22 4916.54C4865.62 4912.57 4858.01 4907.44 4851.39 4901.15C4845.1 4894.54 4839.97 4886.92 4836 4878.32C4832.36 4869.39 4830.53 4859.96 4830.53 4850.03H4846.92C4846.92 4857.64 4848.41 4864.92 4851.39 4871.87C4854.37 4878.49 4858.34 4884.28 4863.3 4889.24C4868.27 4894.2 4874.06 4898.18 4880.68 4901.15C4887.63 4904.13 4894.91 4905.62 4902.52 4905.62C4910.14 4905.62 4917.25 4904.13 4923.87 4901.15C4930.49 4898.18 4936.28 4894.2 4941.25 4889.24C4946.21 4884.28 4950.19 4878.49 4953.16 4871.87C4956.14 4864.92 4957.63 4857.64 4957.63 4850.03C4957.63 4838.78 4955.81 4828.69 4952.17 4819.75C4948.86 4810.82 4944.23 4802.71 4938.27 4795.43C4932.64 4787.82 4926.02 4780.87 4918.41 4774.58C4911.13 4767.97 4903.52 4761.51 4895.57 4755.23C4887.63 4748.94 4879.69 4742.49 4871.74 4735.87C4864.13 4728.92 4857.18 4721.47 4850.89 4713.53C4844.93 4705.59 4839.97 4696.82 4836 4687.23C4832.36 4677.63 4830.53 4666.55 4830.53 4653.97C4830.53 4644.04 4832.36 4634.78 4836 4626.18C4839.97 4617.24 4845.1 4609.63 4851.39 4603.34C4858.01 4596.73 4865.62 4591.6 4874.22 4587.96C4883.16 4583.99 4892.59 4582 4902.52 4582C4912.45 4582 4921.72 4583.99 4930.33 4587.96C4938.93 4591.6 4946.38 4596.73 4952.67 4603.34C4959.29 4609.63 4964.42 4617.24 4968.06 4626.18C4972.03 4634.78 4974.02 4644.04 4974.02 4653.97H4957.63C4957.63 4646.36 4956.14 4639.25 4953.16 4632.63C4950.19 4626.01 4946.21 4620.22 4941.25 4615.26C4936.28 4610.29 4930.49 4606.32 4923.87 4603.34C4917.25 4600.36 4910.14 4598.88 4902.52 4598.88C4894.91 4598.88 4887.63 4600.36 4880.68 4603.34C4874.06 4606.32 4868.27 4610.29 4863.3 4615.26C4858.34 4620.22 4854.37 4626.01 4851.39 4632.63C4848.41 4639.25 4846.92 4646.36 4846.92 4653.97C4846.92 4664.56 4848.57 4673.99 4851.88 4682.26C4855.19 4690.2 4859.5 4697.65 4864.79 4704.6C4870.42 4711.55 4876.71 4718.17 4883.66 4724.45C4890.94 4730.41 4898.39 4736.36 4906 4742.32Z" stroke="#21AF9C" stroke-width="6" mask="url(#path-3-outside-1_128_83)"/>
<path d="M5205.06 4922C5195.13 4922 5185.7 4920.18 5176.76 4916.54C5168.16 4912.57 5160.55 4907.44 5153.93 4901.15C5147.64 4894.54 5142.51 4886.92 5138.54 4878.32C5134.89 4869.39 5133.07 4859.96 5133.07 4850.03V4653.97C5133.07 4644.04 5134.89 4634.78 5138.54 4626.18C5142.51 4617.24 5147.64 4609.63 5153.93 4603.34C5160.55 4596.73 5168.16 4591.6 5176.76 4587.96C5185.7 4583.99 5195.13 4582 5205.06 4582C5214.99 4582 5224.26 4583.99 5232.87 4587.96C5241.47 4591.6 5248.92 4596.73 5255.21 4603.34C5261.83 4609.63 5266.96 4617.24 5270.6 4626.18C5274.57 4634.78 5276.56 4644.04 5276.56 4653.97V4850.03C5276.56 4859.96 5274.57 4869.39 5270.6 4878.32C5266.96 4886.92 5261.83 4894.54 5255.21 4901.15C5248.92 4907.44 5241.47 4912.57 5232.87 4916.54C5224.26 4920.18 5214.99 4922 5205.06 4922ZM5205.06 4598.88C5197.45 4598.88 5190.17 4600.36 5183.22 4603.34C5176.6 4606.32 5170.81 4610.29 5165.84 4615.26C5160.88 4620.22 5156.9 4626.01 5153.93 4632.63C5150.95 4639.25 5149.46 4646.36 5149.46 4653.97V4850.03C5149.46 4857.64 5150.95 4864.92 5153.93 4871.87C5156.9 4878.49 5160.88 4884.28 5165.84 4889.24C5170.81 4894.2 5176.6 4898.18 5183.22 4901.15C5190.17 4904.13 5197.45 4905.62 5205.06 4905.62C5212.68 4905.62 5219.79 4904.13 5226.41 4901.15C5233.03 4898.18 5238.82 4894.2 5243.79 4889.24C5248.75 4884.28 5252.72 4878.49 5255.7 4871.87C5258.68 4864.92 5260.17 4857.64 5260.17 4850.03V4653.97C5260.17 4646.36 5258.68 4639.25 5255.7 4632.63C5252.72 4626.01 5248.75 4620.22 5243.79 4615.26C5238.82 4610.29 5233.03 4606.32 5226.41 4603.34C5219.79 4600.36 5212.68 4598.88 5205.06 4598.88Z" stroke="#21AF9C" stroke-width="6" mask="url(#path-3-outside-1_128_83)"/>
<path d="M5566.19 4583.99V4600.86H5499.16V4919.52H5482.78V4600.86H5415.75V4583.99H5566.19Z" stroke="#21AF9C" stroke-width="6" mask="url(#path-3-outside-1_128_83)"/>
<path d="M5840.6 4600.86H5726.42V4727.43H5820.25V4743.81H5726.42V4903.14H5840.6V4919.52H5710.03V4583.99H5840.6V4600.86Z" stroke="#21AF9C" stroke-width="6" mask="url(#path-3-outside-1_128_83)"/>
<path d="M6046.88 4778.06H6006.17V4919.52H5989.78V4583.99H6050.35C6060.28 4583.99 6069.55 4585.81 6078.16 4589.45C6087.09 4593.09 6094.7 4598.21 6100.99 4604.83C6107.61 4611.12 6112.74 4618.56 6116.38 4627.17C6120.36 4635.77 6122.34 4645.04 6122.34 4654.96V4707.08C6122.34 4715.68 6120.85 4723.79 6117.87 4731.4C6114.89 4739.01 6110.76 4745.96 6105.46 4752.25C6100.17 4758.54 6094.04 4763.83 6087.09 4768.13C6080.14 4772.1 6072.53 4774.91 6064.25 4776.57L6124.82 4919.52H6106.95L6046.88 4778.06ZM6006.17 4761.68H6050.35C6057.97 4761.68 6065.08 4760.36 6071.7 4757.71C6078.32 4754.73 6084.11 4750.76 6089.08 4745.8C6094.04 4740.83 6098.01 4735.04 6100.99 4728.42C6103.97 4721.81 6105.46 4714.69 6105.46 4707.08V4654.96C6105.46 4647.68 6103.97 4640.73 6100.99 4634.12C6098.01 4627.5 6094.04 4621.71 6089.08 4616.74C6084.11 4611.78 6078.32 4607.81 6071.7 4604.83C6065.08 4601.85 6057.97 4600.36 6050.35 4600.36H6006.17V4761.68Z" stroke="#21AF9C" stroke-width="6" mask="url(#path-3-outside-1_128_83)"/>
<path d="M6433.53 4919.52L6410.2 4814.29H6313.88L6290.55 4919.52H6273.67L6348.14 4583.99H6375.94L6450.41 4919.52H6433.53ZM6317.36 4797.91H6406.72L6362.04 4597.39L6317.36 4797.91Z" stroke="#21AF9C" stroke-width="6" mask="url(#path-3-outside-1_128_83)"/>
<path d="M6659.91 4583.99C6669.84 4583.99 6678.94 4585.97 6687.22 4589.94C6695.82 4593.58 6703.27 4598.71 6709.56 4605.33C6716.18 4611.62 6721.31 4619.06 6724.95 4627.66C6728.59 4636.27 6730.41 4645.37 6730.41 4654.96V4723.46C6730.41 4733.06 6728.59 4741.99 6724.95 4750.26C6721.64 4758.54 6716.84 4765.82 6710.55 4772.1C6704.59 4778.39 6697.48 4783.52 6689.2 4787.49C6681.26 4791.46 6672.65 4793.78 6663.39 4794.44H6610.76V4919.52H6594.38V4583.99H6659.91ZM6714.03 4654.96C6714.03 4647.68 6712.54 4640.73 6709.56 4634.12C6706.58 4627.5 6702.61 4621.71 6697.64 4616.74C6692.68 4611.78 6686.89 4607.81 6680.27 4604.83C6673.65 4601.85 6666.53 4600.36 6658.92 4600.36H6610.76V4778.06H6659.91C6667.52 4778.06 6674.64 4776.57 6681.26 4773.59C6687.88 4770.61 6693.51 4766.64 6698.14 4761.68C6703.1 4756.72 6706.91 4751.09 6709.56 4744.8C6712.54 4738.18 6714.03 4731.07 6714.03 4723.46V4654.96Z" stroke="#21AF9C" stroke-width="6" mask="url(#path-3-outside-1_128_83)"/>
<path d="M6905.54 4919.52H6889.16V4583.99H6905.54V4919.52Z" stroke="#21AF9C" stroke-width="6" mask="url(#path-3-outside-1_128_83)"/>
<path d="M7214.12 4919.52L7190.79 4814.29H7094.47L7071.14 4919.52H7054.26L7128.73 4583.99H7156.53L7231 4919.52H7214.12ZM7097.95 4797.91H7187.31L7142.63 4597.39L7097.95 4797.91Z" stroke="#21AF9C" stroke-width="6" mask="url(#path-3-outside-1_128_83)"/>
<defs>
<linearGradient id="paint0_linear_128_83" x1="1895.89" y1="1660.55" x2="5137" y2="1210.16" gradientUnits="userSpaceOnUse">
<stop stop-color="#21AF9C"/>
<stop offset="1" stop-color="#A93AC1"/>
</linearGradient>
<radialGradient id="paint1_angular_128_83" cx="0" cy="0" r="1" gradientUnits="userSpaceOnUse" gradientTransform="translate(3440.54 1036.8) rotate(102.19) scale(1219.43 2575.65)">
<stop stop-color="#21AF9C"/>
<stop offset="1" stop-color="#A93AC1"/>
</radialGradient>
</defs>
</svg>
