<svg width="7235" height="5226" viewBox="0 0 7235 5226" fill="none" xmlns="http://www.w3.org/2000/svg">
<path fill-rule="evenodd" clip-rule="evenodd" d="M3265.72 2981.06C3950.77 3260.5 4724.07 2945.45 4994.8 2281.75C4710.89 2977.77 3957.46 3328.56 3242.87 3037.07C2528.29 2745.59 2179.16 1945.07 2463.07 1249.05C2746.98 553.032 3565.86 242.004 4280.45 533.485C4646.72 682.887 4902.26 960.026 5026.13 1288.43C4890.11 983.622 4586.81 710.715 4248.17 572.582C3563.11 293.148 2789.81 608.194 2519.08 1271.9C2248.35 1935.6 2580.67 2701.63 3265.72 2981.06Z" fill="url(#paint0_linear_126_42)"/>
<path d="M3726.63 1287C3706.16 1287 3685.69 1280.97 3665.22 1268.92C3615.74 1253.43 3591 1216.41 3591 1157.88C3591 1125.17 3602.09 1099.34 3624.27 1080.41C3648.15 1061.47 3671.19 1052 3693.37 1052C3717.25 1052 3740.28 1056.3 3762.46 1064.91C3806.82 1085.57 3829 1121.73 3829 1173.37C3829 1192.31 3824.73 1211.25 3816.2 1230.19C3799.14 1268.06 3769.29 1287 3726.63 1287Z" fill="#21AF9C"/>
<path d="M2975.6 2417.97C2945.28 2408.51 2921.78 2393.29 2903.49 2369.2C2885.19 2345.11 2878.39 2316.73 2883.79 2281.66C2886.32 2256.19 2891.89 2229.05 2901.24 2197.83C2922.81 2125.79 2959.64 2045.39 3009.4 1955.9C3073.16 1836.64 3148.59 1721.03 3234.07 1605.93C3316.5 1492.5 3395.51 1399.01 3466.43 1324C3480.79 1310.1 3496.05 1301.74 3514.54 1299.63C3533.02 1297.52 3547.74 1299.49 3564.06 1304.59C3592.05 1313.33 3615.55 1328.54 3633.85 1352.63C3652.14 1376.72 3656.61 1404.38 3648.7 1430.79L3640.62 1449.27C3635.41 1458.15 3627.15 1468.7 3616.55 1478.52C3547.79 1546.32 3478.66 1632.39 3407.54 1733.6C3334.09 1834.08 3274.46 1930.99 3224.71 2020.49C3194.35 2079.28 3172.97 2125.12 3162.19 2161.14C3152.12 2194.76 3154.08 2213.75 3167.36 2220.52C3183.69 2225.62 3213.48 2211.29 3259.08 2178.26C3301.63 2146.91 3365.19 2087.98 3448.31 2006.28C3494.46 1962.91 3538.27 1918.83 3582.79 1872.34C3755.7 1695.25 3922.13 1539.78 4079.04 1407.6C4233.62 1274.68 4374.71 1195.32 4498.55 1173.59C4540.9 1168.43 4576.43 1169.02 4604.42 1177.76C4648.74 1191.59 4678.69 1219.33 4688.9 1261.9C4699.11 1304.47 4701.06 1357.59 4691.52 1415C4685.39 1452.48 4671.91 1506.03 4651.77 1573.27L4599.11 1740.63C4568.19 1843.88 4543.37 1943.78 4528.43 2036.27C4511.16 2128.03 4519.38 2185.74 4550.77 2208.66L4560.1 2211.58C4602.09 2224.69 4657.37 2210.43 4724.33 2165.7C4790.57 2123.36 4865.07 2070.47 4944.78 2008.71C5035.8 1934.72 5128.61 1871.8 5219.98 1813.67C5310.63 1757.95 5394.27 1734.17 5467.84 1744.01L5501.22 1751.81C5547.87 1766.37 5580.87 1792.43 5600.95 1827.58C5618.7 1862.01 5628.91 1904.58 5632.29 1952.9C5635.68 2001.22 5636.01 2051.21 5633.29 2102.87C5629.86 2156.94 5631.8 2210.06 5634.47 2260.78C5637.13 2311.5 5647.34 2354.08 5669.04 2392.36C5690.01 2433.04 5725.35 2459.83 5779 2476.57C5841.98 2496.24 5939.24 2495.09 6066.84 2469.29C6193.73 2445.88 6363.16 2391.12 6577.47 2305.74C6594.35 2300.5 6607.45 2299.34 6619.11 2302.98C6637.77 2308.81 6644.22 2321.33 6638.47 2340.54L6635.59 2350.14C6629.67 2361.42 6618.36 2373.64 6600.76 2381.28C6337.45 2485.5 6125.84 2553.35 5967.37 2580.02C5808.9 2606.69 5686.15 2607.76 5599.85 2580.81C5527.54 2558.24 5474.98 2520.82 5444.5 2469.3C5414.02 2417.77 5395.03 2361.95 5390.57 2300.17C5383.78 2237.66 5380.94 2179.01 5381.15 2118.68C5387.12 2039.15 5379.61 1979.04 5363.3 1939.81C5355.23 1924.17 5342.68 1914.99 5328.68 1910.63C5293.69 1899.7 5243.08 1915.41 5177.56 1955.35C5112.04 1995.28 5040.59 2046.5 4963.21 2108.99C4867.52 2181.52 4773.28 2249.25 4677.24 2305.91C4581.2 2362.58 4496.85 2388.76 4423.27 2378.92L4389.9 2371.12C4317.59 2348.55 4277.96 2302.04 4266.33 2230.14C4253.98 2160.65 4260.66 2078.71 4280.27 1987.68C4299.88 1896.65 4322.54 1803.95 4349.14 1715.1C4377.36 1629.39 4396.6 1556.62 4407.58 1494.41C4416.22 1431.46 4406.19 1396.82 4378.2 1388.08C4338.55 1375.71 4273.57 1405.31 4181.66 1473.76C4089.02 1544.62 3985.97 1633.23 3872.5 1739.6C3759.03 1845.96 3650.95 1951.38 3545.19 2057.53C3378.22 2223.33 3262.41 2328.97 3200.12 2375.16C3164.4 2400.77 3126.16 2417.71 3086.14 2423.6C3046.12 2429.49 3008.26 2428.17 2975.6 2417.97Z" fill="url(#paint1_linear_126_42)"/>
<path d="M361.935 4398.28H272.483V3441.67H361.935V4398.28Z" fill="#D1126B"/>
<path d="M1532.09 3441.67H1553.18V4398.28H1532.09L918.287 3552.41V4398.28H897.197V3523.73L838.289 3441.67H949.56L1532.09 4242.18V3441.67Z" fill="#D1126B"/>
<path d="M3518.96 4398.28H3429.51L3364.05 3498.38L3094.97 4398.28H3052.79L2735.7 3492.37L2676.07 4398.28H2654.98L2717.52 3441.67H2812.07L3108.79 4281.54L3359.69 3441.67H3449.87L3518.96 4398.28Z" fill="#D1126B"/>
<path d="M4402.58 4412.28C4323.06 4412.28 4251.79 4394.5 4188.76 4358.92C4126.22 4323.34 4076.77 4269.31 4040.4 4196.82C4004.04 4123.88 3985.86 4031.82 3985.86 3920.64C3985.86 3809.91 4004.04 3718.29 4040.4 3645.8C4076.77 3572.87 4126.22 3518.61 4188.76 3483.03C4251.79 3447.01 4323.06 3429 4402.58 3429C4482.09 3429 4553.36 3447.01 4616.39 3483.03C4679.42 3518.61 4729.12 3572.87 4765.48 3645.8C4801.84 3718.29 4820.02 3809.91 4820.02 3920.64C4820.02 4031.82 4801.84 4123.88 4765.48 4196.82C4729.12 4269.31 4679.42 4323.34 4616.39 4358.92C4553.36 4394.5 4482.09 4412.28 4402.58 4412.28ZM4402.58 4393.61C4473.36 4393.61 4532.51 4374.93 4580.03 4337.57C4627.54 4299.77 4663.18 4245.74 4686.94 4175.47C4711.18 4104.76 4723.3 4019.82 4723.3 3920.64C4723.3 3821.91 4711.18 3737.42 4686.94 3667.15C4663.18 3596.44 4627.54 3542.4 4580.03 3505.05C4532.51 3467.25 4473.36 3448.35 4402.58 3448.35C4331.79 3448.35 4272.64 3467.25 4225.13 3505.05C4177.61 3542.4 4141.98 3596.44 4118.22 3667.15C4094.46 3737.42 4082.58 3821.91 4082.58 3920.64C4082.58 4019.82 4094.46 4104.76 4118.22 4175.47C4141.98 4245.74 4177.61 4299.77 4225.13 4337.57C4272.64 4374.93 4331.79 4393.61 4402.58 4393.61Z" fill="#D1126B"/>
<path d="M5640.37 4398.28H5609.83L5253.47 3441.67H5353.83L5663.64 4272.2L5958.91 3441.67H5980L5640.37 4398.28Z" fill="#D1126B"/>
<path d="M6542.17 3910.64H6998.16V3929.98H6542.17V4378.93H7049.07V4398.28H6452.72V3441.67H7034.52V3461.02H6542.17V3910.64Z" fill="#D1126B"/>
<path d="M133.573 4928.36H19.3837V5044.48H113.217V5059.51H19.3837V5220.72H3V4912.87H133.573V4928.36Z" fill="#21AF9C"/>
<path d="M299.135 5220.72H282.752V4912.87H299.135V5220.72Z" fill="#21AF9C"/>
<path d="M533.242 5058.15C541.517 5064.22 549.626 5070.59 557.57 5077.27C565.844 5083.65 573.126 5090.78 579.415 5098.68C586.034 5106.27 591.33 5114.92 595.302 5124.63C599.274 5134.05 601.259 5144.82 601.259 5156.97C601.259 5166.08 599.274 5174.73 595.302 5182.93C591.661 5190.82 586.531 5197.8 579.911 5203.87C573.622 5209.64 566.175 5214.35 557.57 5217.99C548.964 5221.33 539.697 5223 529.767 5223C519.838 5223 510.405 5221.33 501.468 5217.99C492.863 5214.35 485.25 5209.64 478.63 5203.87C472.342 5197.8 467.211 5190.82 463.24 5182.93C459.599 5174.73 457.778 5166.08 457.778 5156.97H474.162C474.162 5163.95 475.651 5170.63 478.63 5177C481.609 5183.08 485.581 5188.39 490.546 5192.94C495.51 5197.5 501.303 5201.14 507.922 5203.87C514.873 5206.61 522.154 5207.97 529.767 5207.97C537.38 5207.97 544.496 5206.61 551.116 5203.87C557.735 5201.14 563.527 5197.5 568.492 5192.94C573.457 5188.39 577.429 5183.08 580.408 5177C583.386 5170.63 584.876 5163.95 584.876 5156.97C584.876 5146.65 583.055 5137.39 579.415 5129.19C576.105 5120.99 571.471 5113.55 565.513 5106.87C559.887 5099.89 553.267 5093.52 545.654 5087.75C538.373 5081.67 530.76 5075.75 522.816 5069.99C514.873 5064.22 506.929 5058.3 498.986 5052.23C491.373 5045.85 484.422 5039.02 478.134 5031.73C472.176 5024.45 467.211 5016.4 463.24 5007.6C459.599 4998.79 457.778 4988.62 457.778 4977.09C457.778 4967.98 459.599 4959.48 463.24 4951.58C467.211 4943.39 472.342 4936.4 478.63 4930.64C485.25 4924.56 492.863 4919.86 501.468 4916.52C510.405 4912.87 519.838 4911.05 529.767 4911.05C539.697 4911.05 548.964 4912.87 557.57 4916.52C566.175 4919.86 573.622 4924.56 579.911 4930.64C586.531 4936.4 591.661 4943.39 595.302 4951.58C599.274 4959.48 601.259 4967.98 601.259 4977.09H584.876C584.876 4970.1 583.386 4963.58 580.408 4957.5C577.429 4951.43 573.457 4946.12 568.492 4941.56C563.527 4937.01 557.735 4933.37 551.116 4930.64C544.496 4927.9 537.38 4926.54 529.767 4926.54C522.154 4926.54 514.873 4927.9 507.922 4930.64C501.303 4933.37 495.51 4937.01 490.546 4941.56C485.581 4946.12 481.609 4951.43 478.63 4957.5C475.651 4963.58 474.162 4970.1 474.162 4977.09C474.162 4986.8 475.817 4995.45 479.127 5003.04C482.437 5010.33 486.739 5017.16 492.035 5023.54C497.662 5029.91 503.95 5035.98 510.901 5041.75C518.183 5047.22 525.63 5052.68 533.242 5058.15Z" fill="#21AF9C"/>
<path d="M776.701 5220.72H760.317V4912.87H776.701V5220.72Z" fill="#21AF9C"/>
<path d="M1007.33 5223C997.403 5223 987.97 5221.33 979.034 5217.99C970.428 5214.35 962.816 5209.64 956.196 5203.87C949.907 5197.8 944.777 5190.82 940.805 5182.93C937.164 5174.73 935.344 5166.08 935.344 5156.97V4977.09C935.344 4967.98 937.164 4959.48 940.805 4951.58C944.777 4943.39 949.907 4936.4 956.196 4930.64C962.816 4924.56 970.428 4919.86 979.034 4916.52C987.97 4912.87 997.403 4911.05 1007.33 4911.05C1017.26 4911.05 1026.53 4912.87 1035.14 4916.52C1043.74 4919.86 1051.19 4924.56 1057.48 4930.64C1064.1 4936.4 1069.23 4943.39 1072.87 4951.58C1076.84 4959.48 1078.83 4967.98 1078.83 4977.09V5156.97C1078.83 5166.08 1076.84 5174.73 1072.87 5182.93C1069.23 5190.82 1064.1 5197.8 1057.48 5203.87C1051.19 5209.64 1043.74 5214.35 1035.14 5217.99C1026.53 5221.33 1017.26 5223 1007.33 5223ZM1007.33 4926.54C999.72 4926.54 992.439 4927.9 985.488 4930.64C978.868 4933.37 973.076 4937.01 968.111 4941.56C963.147 4946.12 959.175 4951.43 956.196 4957.5C953.217 4963.58 951.728 4970.1 951.728 4977.09V5156.97C951.728 5163.95 953.217 5170.63 956.196 5177C959.175 5183.08 963.147 5188.39 968.111 5192.94C973.076 5197.5 978.868 5201.14 985.488 5203.87C992.439 5206.61 999.72 5207.97 1007.33 5207.97C1014.95 5207.97 1022.06 5206.61 1028.68 5203.87C1035.3 5201.14 1041.09 5197.5 1046.06 5192.94C1051.02 5188.39 1054.99 5183.08 1057.97 5177C1060.95 5170.63 1062.44 5163.95 1062.44 5156.97V4977.09C1062.44 4970.1 1060.95 4963.58 1057.97 4957.5C1054.99 4951.43 1051.02 4946.12 1046.06 4941.56C1041.09 4937.01 1035.3 4933.37 1028.68 4930.64C1022.06 4927.9 1014.95 4926.54 1007.33 4926.54Z" fill="#21AF9C"/>
<path d="M1368.46 4912.87V4928.36H1301.43V5220.72H1285.05V4928.36H1218.02V4912.87H1368.46Z" fill="#21AF9C"/>
<path d="M1642.87 4928.36H1528.69V5044.48H1622.52V5059.51H1528.69V5205.69H1642.87V5220.72H1512.3V4912.87H1642.87V4928.36Z" fill="#21AF9C"/>
<path d="M1849.15 5090.93H1808.44V5220.72H1792.05V4912.87H1852.62C1862.55 4912.87 1871.82 4914.54 1880.43 4917.88C1889.36 4921.22 1896.97 4925.93 1903.26 4932C1909.88 4937.77 1915.01 4944.6 1918.65 4952.49C1922.63 4960.39 1924.61 4968.89 1924.61 4978V5025.81C1924.61 5033.71 1923.12 5041.14 1920.14 5048.13C1917.16 5055.11 1913.03 5061.49 1907.73 5067.25C1902.44 5073.02 1896.31 5077.88 1889.36 5081.83C1882.41 5085.47 1874.8 5088.05 1866.52 5089.57L1927.09 5220.72H1909.22L1849.15 5090.93ZM1808.44 5075.91H1852.62C1860.24 5075.91 1867.35 5074.69 1873.97 5072.26C1880.59 5069.53 1886.38 5065.89 1891.35 5061.33C1896.31 5056.78 1900.28 5051.47 1903.26 5045.4C1906.24 5039.32 1907.73 5032.8 1907.73 5025.81V4978C1907.73 4971.32 1906.24 4964.94 1903.26 4958.87C1900.28 4952.8 1896.31 4947.48 1891.35 4942.93C1886.38 4938.38 1880.59 4934.73 1873.97 4932C1867.35 4929.27 1860.24 4927.9 1852.62 4927.9H1808.44V5075.91Z" fill="#21AF9C"/>
<path d="M2235.8 5220.72L2212.47 5124.18H2116.15L2092.82 5220.72H2075.94L2150.41 4912.87H2178.21L2252.68 5220.72H2235.8ZM2119.63 5109.15H2208.99L2164.31 4925.17L2119.63 5109.15Z" fill="#21AF9C"/>
<path d="M2462.18 4912.87C2472.11 4912.87 2481.21 4914.7 2489.49 4918.34C2498.09 4921.68 2505.54 4926.38 2511.83 4932.46C2518.45 4938.22 2523.58 4945.06 2527.22 4952.95C2530.86 4960.84 2532.68 4969.19 2532.68 4978V5040.84C2532.68 5049.65 2530.86 5057.84 2527.22 5065.43C2523.91 5073.02 2519.11 5079.7 2512.82 5085.47C2506.86 5091.24 2499.75 5095.94 2491.47 5099.59C2483.53 5103.23 2474.92 5105.36 2465.66 5105.96H2413.03V5220.72H2396.65V4912.87H2462.18ZM2516.3 4978C2516.3 4971.32 2514.81 4964.94 2511.83 4958.87C2508.85 4952.8 2504.88 4947.48 2499.91 4942.93C2494.95 4938.38 2489.16 4934.73 2482.54 4932C2475.92 4929.27 2468.8 4927.9 2461.19 4927.9H2413.03V5090.93H2462.18C2469.79 5090.93 2476.91 5089.57 2483.53 5086.84C2490.15 5084.1 2495.78 5080.46 2500.41 5075.91C2505.37 5071.35 2509.18 5066.19 2511.83 5060.42C2514.81 5054.35 2516.3 5047.82 2516.3 5040.84V4978Z" fill="#21AF9C"/>
<path d="M2707.81 5220.72H2691.43V4912.87H2707.81V5220.72Z" fill="#21AF9C"/>
<path d="M3016.39 5220.72L2993.06 5124.18H2896.74L2873.41 5220.72H2856.53L2931 4912.87H2958.8L3033.27 5220.72H3016.39ZM2900.22 5109.15H2989.58L2944.9 4925.17L2900.22 5109.15Z" fill="#21AF9C"/>
<path d="M3509.02 4928.36H3394.83V5044.48H3488.66V5059.51H3394.83V5205.69H3509.02V5220.72H3378.44V4912.87H3509.02V4928.36Z" fill="#21AF9C"/>
<path d="M4041.61 4912.87H4058.49V5220.72H4042.11V4955.68L3959.2 5164.71L3875.79 4955.68V5220.72H3859.4V4912.87H3876.28L3959.2 5120.54L4041.61 4912.87Z" fill="#21AF9C"/>
<path d="M4367.15 5220.72L4343.82 5124.18H4247.5L4224.17 5220.72H4207.29L4281.76 4912.87H4309.56L4384.03 5220.72H4367.15ZM4250.97 5109.15H4340.34L4295.66 4925.17L4250.97 5109.15Z" fill="#21AF9C"/>
<path d="M4603.46 5058.15C4611.73 5064.22 4619.84 5070.59 4627.79 5077.27C4636.06 5083.65 4643.34 5090.78 4649.63 5098.68C4656.25 5106.27 4661.55 5114.92 4665.52 5124.63C4669.49 5134.05 4671.48 5144.82 4671.48 5156.97C4671.48 5166.08 4669.49 5174.73 4665.52 5182.93C4661.88 5190.82 4656.75 5197.8 4650.13 5203.87C4643.84 5209.64 4636.39 5214.35 4627.79 5217.99C4619.18 5221.33 4609.91 5223 4599.98 5223C4590.05 5223 4580.62 5221.33 4571.69 5217.99C4563.08 5214.35 4555.47 5209.64 4548.85 5203.87C4542.56 5197.8 4537.43 5190.82 4533.46 5182.93C4529.82 5174.73 4528 5166.08 4528 5156.97H4544.38C4544.38 5163.95 4545.87 5170.63 4548.85 5177C4551.83 5183.08 4555.8 5188.39 4560.76 5192.94C4565.73 5197.5 4571.52 5201.14 4578.14 5203.87C4585.09 5206.61 4592.37 5207.97 4599.98 5207.97C4607.6 5207.97 4614.71 5206.61 4621.33 5203.87C4627.95 5201.14 4633.74 5197.5 4638.71 5192.94C4643.67 5188.39 4647.65 5183.08 4650.62 5177C4653.6 5170.63 4655.09 5163.95 4655.09 5156.97C4655.09 5146.65 4653.27 5137.39 4649.63 5129.19C4646.32 5120.99 4641.69 5113.55 4635.73 5106.87C4630.1 5099.89 4623.48 5093.52 4615.87 5087.75C4608.59 5081.67 4600.98 5075.75 4593.03 5069.99C4585.09 5064.22 4577.15 5058.3 4569.2 5052.23C4561.59 5045.85 4554.64 5039.02 4548.35 5031.73C4542.39 5024.45 4537.43 5016.4 4533.46 5007.6C4529.82 4998.79 4528 4988.62 4528 4977.09C4528 4967.98 4529.82 4959.48 4533.46 4951.58C4537.43 4943.39 4542.56 4936.4 4548.85 4930.64C4555.47 4924.56 4563.08 4919.86 4571.69 4916.52C4580.62 4912.87 4590.05 4911.05 4599.98 4911.05C4609.91 4911.05 4619.18 4912.87 4627.79 4916.52C4636.39 4919.86 4643.84 4924.56 4650.13 4930.64C4656.75 4936.4 4661.88 4943.39 4665.52 4951.58C4669.49 4959.48 4671.48 4967.98 4671.48 4977.09H4655.09C4655.09 4970.1 4653.6 4963.58 4650.62 4957.5C4647.65 4951.43 4643.67 4946.12 4638.71 4941.56C4633.74 4937.01 4627.95 4933.37 4621.33 4930.64C4614.71 4927.9 4607.6 4926.54 4599.98 4926.54C4592.37 4926.54 4585.09 4927.9 4578.14 4930.64C4571.52 4933.37 4565.73 4937.01 4560.76 4941.56C4555.8 4946.12 4551.83 4951.43 4548.85 4957.5C4545.87 4963.58 4544.38 4970.1 4544.38 4977.09C4544.38 4986.8 4546.03 4995.45 4549.34 5003.04C4552.65 5010.33 4556.96 5017.16 4562.25 5023.54C4567.88 5029.91 4574.17 5035.98 4581.12 5041.75C4588.4 5047.22 4595.85 5052.68 4603.46 5058.15Z" fill="#21AF9C"/>
<path d="M4906 5058.15C4914.27 5064.22 4922.38 5070.59 4930.33 5077.27C4938.6 5083.65 4945.88 5090.78 4952.17 5098.68C4958.79 5106.27 4964.09 5114.92 4968.06 5124.63C4972.03 5134.05 4974.02 5144.82 4974.02 5156.97C4974.02 5166.08 4972.03 5174.73 4968.06 5182.93C4964.42 5190.82 4959.29 5197.8 4952.67 5203.87C4946.38 5209.64 4938.93 5214.35 4930.33 5217.99C4921.72 5221.33 4912.45 5223 4902.52 5223C4892.59 5223 4883.16 5221.33 4874.22 5217.99C4865.62 5214.35 4858.01 5209.64 4851.39 5203.87C4845.1 5197.8 4839.97 5190.82 4836 5182.93C4832.36 5174.73 4830.53 5166.08 4830.53 5156.97H4846.92C4846.92 5163.95 4848.41 5170.63 4851.39 5177C4854.37 5183.08 4858.34 5188.39 4863.3 5192.94C4868.27 5197.5 4874.06 5201.14 4880.68 5203.87C4887.63 5206.61 4894.91 5207.97 4902.52 5207.97C4910.14 5207.97 4917.25 5206.61 4923.87 5203.87C4930.49 5201.14 4936.28 5197.5 4941.25 5192.94C4946.21 5188.39 4950.19 5183.08 4953.16 5177C4956.14 5170.63 4957.63 5163.95 4957.63 5156.97C4957.63 5146.65 4955.81 5137.39 4952.17 5129.19C4948.86 5120.99 4944.23 5113.55 4938.27 5106.87C4932.64 5099.89 4926.02 5093.52 4918.41 5087.75C4911.13 5081.67 4903.52 5075.75 4895.57 5069.99C4887.63 5064.22 4879.69 5058.3 4871.74 5052.23C4864.13 5045.85 4857.18 5039.02 4850.89 5031.73C4844.93 5024.45 4839.97 5016.4 4836 5007.6C4832.36 4998.79 4830.53 4988.62 4830.53 4977.09C4830.53 4967.98 4832.36 4959.48 4836 4951.58C4839.97 4943.39 4845.1 4936.4 4851.39 4930.64C4858.01 4924.56 4865.62 4919.86 4874.22 4916.52C4883.16 4912.87 4892.59 4911.05 4902.52 4911.05C4912.45 4911.05 4921.72 4912.87 4930.33 4916.52C4938.93 4919.86 4946.38 4924.56 4952.67 4930.64C4959.29 4936.4 4964.42 4943.39 4968.06 4951.58C4972.03 4959.48 4974.02 4967.98 4974.02 4977.09H4957.63C4957.63 4970.1 4956.14 4963.58 4953.16 4957.5C4950.19 4951.43 4946.21 4946.12 4941.25 4941.56C4936.28 4937.01 4930.49 4933.37 4923.87 4930.64C4917.25 4927.9 4910.14 4926.54 4902.52 4926.54C4894.91 4926.54 4887.63 4927.9 4880.68 4930.64C4874.06 4933.37 4868.27 4937.01 4863.3 4941.56C4858.34 4946.12 4854.37 4951.43 4851.39 4957.5C4848.41 4963.58 4846.92 4970.1 4846.92 4977.09C4846.92 4986.8 4848.57 4995.45 4851.88 5003.04C4855.19 5010.33 4859.5 5017.16 4864.79 5023.54C4870.42 5029.91 4876.71 5035.98 4883.66 5041.75C4890.94 5047.22 4898.39 5052.68 4906 5058.15Z" fill="#21AF9C"/>
<path d="M5205.06 5223C5195.13 5223 5185.7 5221.33 5176.76 5217.99C5168.16 5214.35 5160.55 5209.64 5153.93 5203.87C5147.64 5197.8 5142.51 5190.82 5138.54 5182.93C5134.89 5174.73 5133.07 5166.08 5133.07 5156.97V4977.09C5133.07 4967.98 5134.89 4959.48 5138.54 4951.58C5142.51 4943.39 5147.64 4936.4 5153.93 4930.64C5160.55 4924.56 5168.16 4919.86 5176.76 4916.52C5185.7 4912.87 5195.13 4911.05 5205.06 4911.05C5214.99 4911.05 5224.26 4912.87 5232.87 4916.52C5241.47 4919.86 5248.92 4924.56 5255.21 4930.64C5261.83 4936.4 5266.96 4943.39 5270.6 4951.58C5274.57 4959.48 5276.56 4967.98 5276.56 4977.09V5156.97C5276.56 5166.08 5274.57 5174.73 5270.6 5182.93C5266.96 5190.82 5261.83 5197.8 5255.21 5203.87C5248.92 5209.64 5241.47 5214.35 5232.87 5217.99C5224.26 5221.33 5214.99 5223 5205.06 5223ZM5205.06 4926.54C5197.45 4926.54 5190.17 4927.9 5183.22 4930.64C5176.6 4933.37 5170.81 4937.01 5165.84 4941.56C5160.88 4946.12 5156.9 4951.43 5153.93 4957.5C5150.95 4963.58 5149.46 4970.1 5149.46 4977.09V5156.97C5149.46 5163.95 5150.95 5170.63 5153.93 5177C5156.9 5183.08 5160.88 5188.39 5165.84 5192.94C5170.81 5197.5 5176.6 5201.14 5183.22 5203.87C5190.17 5206.61 5197.45 5207.97 5205.06 5207.97C5212.68 5207.97 5219.79 5206.61 5226.41 5203.87C5233.03 5201.14 5238.82 5197.5 5243.79 5192.94C5248.75 5188.39 5252.72 5183.08 5255.7 5177C5258.68 5170.63 5260.17 5163.95 5260.17 5156.97V4977.09C5260.17 4970.1 5258.68 4963.58 5255.7 4957.5C5252.72 4951.43 5248.75 4946.12 5243.79 4941.56C5238.82 4937.01 5233.03 4933.37 5226.41 4930.64C5219.79 4927.9 5212.68 4926.54 5205.06 4926.54Z" fill="#21AF9C"/>
<path d="M5566.19 4912.87V4928.36H5499.16V5220.72H5482.78V4928.36H5415.75V4912.87H5566.19Z" fill="#21AF9C"/>
<path d="M5840.6 4928.36H5726.42V5044.48H5820.25V5059.51H5726.42V5205.69H5840.6V5220.72H5710.03V4912.87H5840.6V4928.36Z" fill="#21AF9C"/>
<path d="M6046.88 5090.93H6006.17V5220.72H5989.78V4912.87H6050.35C6060.28 4912.87 6069.55 4914.54 6078.16 4917.88C6087.09 4921.22 6094.7 4925.93 6100.99 4932C6107.61 4937.77 6112.74 4944.6 6116.38 4952.49C6120.36 4960.39 6122.34 4968.89 6122.34 4978V5025.81C6122.34 5033.71 6120.85 5041.14 6117.87 5048.13C6114.9 5055.11 6110.76 5061.49 6105.46 5067.25C6100.17 5073.02 6094.04 5077.88 6087.09 5081.83C6080.14 5085.47 6072.53 5088.05 6064.25 5089.57L6124.82 5220.72H6106.95L6046.88 5090.93ZM6006.17 5075.91H6050.35C6057.97 5075.91 6065.08 5074.69 6071.7 5072.26C6078.32 5069.53 6084.11 5065.89 6089.08 5061.33C6094.04 5056.78 6098.01 5051.47 6100.99 5045.4C6103.97 5039.32 6105.46 5032.8 6105.46 5025.81V4978C6105.46 4971.32 6103.97 4964.94 6100.99 4958.87C6098.01 4952.8 6094.04 4947.48 6089.08 4942.93C6084.11 4938.38 6078.32 4934.73 6071.7 4932C6065.08 4929.27 6057.97 4927.9 6050.35 4927.9H6006.17V5075.91Z" fill="#21AF9C"/>
<path d="M6433.53 5220.72L6410.2 5124.18H6313.88L6290.55 5220.72H6273.67L6348.14 4912.87H6375.94L6450.41 5220.72H6433.53ZM6317.36 5109.15H6406.72L6362.04 4925.17L6317.36 5109.15Z" fill="#21AF9C"/>
<path d="M6659.91 4912.87C6669.84 4912.87 6678.94 4914.7 6687.22 4918.34C6695.82 4921.68 6703.27 4926.38 6709.56 4932.46C6716.18 4938.22 6721.31 4945.06 6724.95 4952.95C6728.59 4960.84 6730.41 4969.19 6730.41 4978V5040.84C6730.41 5049.65 6728.59 5057.84 6724.95 5065.43C6721.64 5073.02 6716.84 5079.7 6710.55 5085.47C6704.59 5091.24 6697.48 5095.94 6689.2 5099.59C6681.26 5103.23 6672.65 5105.36 6663.39 5105.96H6610.76V5220.72H6594.38V4912.87H6659.91ZM6714.03 4978C6714.03 4971.32 6712.54 4964.94 6709.56 4958.87C6706.58 4952.8 6702.61 4947.48 6697.64 4942.93C6692.68 4938.38 6686.89 4934.73 6680.27 4932C6673.65 4929.27 6666.53 4927.9 6658.92 4927.9H6610.76V5090.93H6659.91C6667.52 5090.93 6674.64 5089.57 6681.26 5086.84C6687.88 5084.1 6693.51 5080.46 6698.14 5075.91C6703.1 5071.35 6706.91 5066.19 6709.56 5060.42C6712.54 5054.35 6714.03 5047.82 6714.03 5040.84V4978Z" fill="#21AF9C"/>
<path d="M6905.54 5220.72H6889.16V4912.87H6905.54V5220.72Z" fill="#21AF9C"/>
<path d="M7214.12 5220.72L7190.79 5124.18H7094.47L7071.14 5220.72H7054.26L7128.73 4912.87H7156.53L7231 5220.72H7214.12ZM7097.95 5109.15H7187.31L7142.63 4925.17L7097.95 5109.15Z" fill="#21AF9C"/>
<path fill-rule="evenodd" clip-rule="evenodd" d="M364.935 4401.28H269.483V3438.67H364.935V4401.28ZM1529.09 3438.67H1556.18V4401.28H1530.56L921.287 3561.65V4401.28H894.197V3524.69L832.442 3438.67H951.087L1529.09 4232.96V3438.67ZM1532.09 4242.18L949.56 3441.67H838.289L897.197 3523.73V4398.28H918.287V3552.41L1532.09 4398.28H1553.18V3441.67H1532.09V4242.18ZM3522.18 4401.28H3426.72L3362.25 3514.89L3097.2 4401.28H3050.66L2737.73 3507.25L2678.88 4401.28H2651.78L2714.71 3438.67H2814.19L3108.55 4271.85L3357.46 3438.67H3452.66L3522.18 4401.28ZM3108.79 4281.54L2812.07 3441.67H2717.52L2654.98 4398.28H2676.07L2735.7 3492.37L3052.79 4398.28H3094.97L3364.05 3498.38L3429.51 4398.28H3518.96L3449.87 3441.67H3359.69L3108.79 4281.54ZM4187.29 4361.53L4187.28 4361.53C4124.16 4325.62 4074.32 4271.11 4037.72 4198.16L4037.72 4198.15C4001.09 4124.68 3982.86 4032.13 3982.86 3920.64C3982.86 3809.6 4001.09 3717.49 4037.72 3644.46C4074.31 3571.07 4124.15 3516.34 4187.28 3480.43C4250.8 3444.12 4322.59 3426 4402.58 3426C4482.56 3426 4554.35 3444.12 4617.87 3480.42C4681.48 3516.33 4731.57 3571.06 4768.16 3644.46C4804.8 3717.49 4823.02 3809.6 4823.02 3920.64C4823.02 4032.13 4804.8 4124.68 4768.16 4198.15L4768.16 4198.16C4731.56 4271.12 4681.48 4325.62 4617.87 4361.53C4554.34 4397.39 4482.56 4415.28 4402.58 4415.28C4322.6 4415.28 4250.81 4397.39 4187.29 4361.53ZM4765.48 3645.8C4729.12 3572.87 4679.42 3518.61 4616.39 3483.03C4553.36 3447.01 4482.09 3429 4402.58 3429C4323.06 3429 4251.79 3447.01 4188.76 3483.03C4126.22 3518.61 4076.77 3572.87 4040.4 3645.8C4004.04 3718.29 3985.86 3809.91 3985.86 3920.64C3985.86 4031.82 4004.04 4123.88 4040.4 4196.82C4076.77 4269.31 4126.22 4323.34 4188.76 4358.92C4251.79 4394.5 4323.06 4412.28 4402.58 4412.28C4482.09 4412.28 4553.36 4394.5 4616.39 4358.92C4679.42 4323.34 4729.12 4269.31 4765.48 4196.82C4801.84 4123.88 4820.02 4031.82 4820.02 3920.64C4820.02 3809.91 4801.84 3718.29 4765.48 3645.8ZM4684.09 4174.51L4684.1 4174.5C4708.2 4104.18 4720.3 4019.59 4720.3 3920.64C4720.3 3822.14 4708.2 3738 4684.1 3668.13L4684.09 3668.11C4660.48 3597.82 4625.13 3544.33 4578.17 3507.41L4578.17 3507.4L4578.16 3507.4C4531.26 3470.08 4472.8 3451.35 4402.58 3451.35C4332.35 3451.35 4273.89 3470.08 4226.99 3507.4L4226.99 3507.4L4226.98 3507.41C4180.02 3544.33 4144.68 3597.82 4121.06 3668.11L4121.06 3668.11C4097.44 3737.98 4085.58 3822.14 4085.58 3920.64C4085.58 4019.59 4097.44 4104.19 4121.06 4174.51C4144.68 4244.35 4180.02 4297.85 4226.99 4335.22C4273.89 4372.09 4332.35 4390.61 4402.58 4390.61C4472.8 4390.61 4531.26 4372.09 4578.16 4335.22C4625.13 4297.85 4660.48 4244.35 4684.09 4174.51ZM4580.03 4337.57C4532.51 4374.93 4473.36 4393.61 4402.58 4393.61C4331.79 4393.61 4272.64 4374.93 4225.13 4337.57C4177.61 4299.77 4141.98 4245.74 4118.22 4175.47C4094.46 4104.76 4082.58 4019.82 4082.58 3920.64C4082.58 3821.91 4094.46 3737.42 4118.22 3667.15C4141.98 3596.44 4177.61 3542.4 4225.13 3505.05C4272.64 3467.25 4331.79 3448.35 4402.58 3448.35C4473.36 3448.35 4532.51 3467.25 4580.03 3505.05C4627.54 3542.4 4663.18 3596.44 4686.94 3667.15C4711.18 3737.42 4723.3 3821.91 4723.3 3920.64C4723.3 4019.82 4711.18 4104.76 4686.94 4175.47C4663.18 4245.74 4627.54 4299.77 4580.03 4337.57ZM5642.49 4401.28H5607.74L5249.15 3438.67H5355.91L5663.57 4263.43L5956.79 3438.67H5984.25L5642.49 4401.28ZM5663.64 4272.2L5353.83 3441.67H5253.47L5609.83 4398.28H5640.37L5980 3441.67H5958.91L5663.64 4272.2ZM7001.16 3907.64V3932.98H6545.17V4375.93H7052.07V4401.28H6449.72V3438.67H7037.52V3464.02H6545.17V3907.64H7001.16ZM6542.17 3461.02H7034.52V3441.67H6452.72V4398.28H7049.07V4378.93H6542.17V3929.98H6998.16V3910.64H6542.17V3461.02ZM136.573 4931.36H22.3837V5041.48H116.217V5062.51H22.3837V5223.72H0V4909.87H136.573V4931.36ZM19.3837 5059.51H113.217V5044.48H19.3837V4928.36H133.573V4912.87H3V5220.72H19.3837V5059.51ZM302.135 5223.72H279.752V4909.87H302.135V5223.72ZM535.005 5055.72L535.017 5055.73C543.329 5061.83 551.474 5068.23 559.452 5074.94C567.872 5081.43 575.297 5088.7 581.719 5096.75C588.541 5104.59 593.991 5113.5 598.073 5123.48C602.222 5133.32 604.259 5144.5 604.259 5156.97C604.259 5166.52 602.175 5175.61 598.014 5184.21C594.202 5192.46 588.834 5199.76 581.939 5206.08C575.375 5212.11 567.63 5216.99 558.739 5220.75L558.697 5220.77L558.655 5220.79C549.678 5224.27 540.04 5226 529.767 5226C519.494 5226 509.704 5224.27 500.418 5220.8L500.358 5220.78L500.299 5220.75C491.42 5216.99 483.533 5212.12 476.659 5206.14L476.602 5206.08L476.546 5206.03C470.012 5199.72 464.681 5192.47 460.56 5184.27L460.527 5184.21L460.498 5184.14C456.684 5175.56 454.778 5166.49 454.778 5156.97V5153.97H477.162V5156.97C477.162 5163.5 478.55 5169.74 481.336 5175.71C484.149 5181.44 487.892 5186.44 492.574 5190.73C497.258 5195.03 502.739 5198.49 509.045 5201.09C515.632 5203.68 522.532 5204.97 529.767 5204.97C537.012 5204.97 543.737 5203.67 549.971 5201.1C556.286 5198.49 561.775 5195.03 566.464 5190.73C571.146 5186.44 574.888 5181.44 577.702 5175.71C580.488 5169.74 581.876 5163.5 581.876 5156.97C581.876 5147 580.12 5138.17 576.673 5130.41L576.652 5130.36L576.633 5130.31C573.454 5122.44 569.005 5115.3 563.274 5108.87L563.224 5108.81L563.177 5108.76C557.714 5101.98 551.273 5095.77 543.842 5090.14L543.787 5090.1L543.733 5090.05C536.505 5084.02 528.945 5078.14 521.054 5072.41C513.09 5066.63 505.127 5060.7 497.164 5054.61L497.111 5054.57L497.06 5054.53C489.327 5048.05 482.26 5041.11 475.863 5033.69L475.837 5033.66L475.811 5033.63C469.683 5026.14 464.582 5017.87 460.505 5008.83L460.485 5008.79L460.467 5008.74C456.648 4999.51 454.778 4988.93 454.778 4977.09C454.778 4967.56 456.684 4958.63 460.515 4950.33L460.527 4950.3L460.54 4950.28C464.665 4941.76 470.016 4934.47 476.602 4928.42C483.499 4922.1 491.426 4917.2 500.361 4913.73C509.66 4909.94 519.47 4908.05 529.767 4908.05C540.056 4908.05 549.71 4909.94 558.696 4913.74C567.61 4917.2 575.369 4922.09 581.939 4928.42C588.851 4934.46 594.212 4941.76 598.014 4950.3C602.181 4958.61 604.259 4967.55 604.259 4977.09V4980.09H581.876V4977.09C581.876 4970.55 580.485 4964.47 577.714 4958.82C574.899 4953.09 571.153 4948.08 566.464 4943.78C561.775 4939.47 556.286 4936.01 549.971 4933.41C543.737 4930.83 537.012 4929.54 529.767 4929.54C522.53 4929.54 515.628 4930.83 509.039 4933.42C502.736 4936.02 497.256 4939.48 492.574 4943.78C487.885 4948.08 484.139 4953.09 481.324 4958.82C478.553 4964.47 477.162 4970.55 477.162 4977.09C477.162 4986.45 478.755 4994.68 481.869 5001.83C485.057 5008.84 489.202 5015.42 494.314 5021.58C499.809 5027.81 505.956 5033.74 512.76 5039.4C520.006 5044.83 527.416 5050.27 534.992 5055.71L535.005 5055.72ZM510.901 5041.75C503.95 5035.98 497.662 5029.91 492.035 5023.54C486.739 5017.16 482.437 5010.33 479.127 5003.04C475.817 4995.45 474.162 4986.8 474.162 4977.09C474.162 4970.1 475.651 4963.58 478.63 4957.5C481.609 4951.43 485.581 4946.12 490.546 4941.56C495.51 4937.01 501.303 4933.37 507.922 4930.64C514.873 4927.9 522.154 4926.54 529.767 4926.54C537.38 4926.54 544.496 4927.9 551.116 4930.64C557.735 4933.37 563.527 4937.01 568.492 4941.56C573.457 4946.12 577.429 4951.43 580.408 4957.5C583.386 4963.58 584.876 4970.1 584.876 4977.09H601.259C601.259 4976.08 601.235 4975.08 601.187 4974.09C600.796 4966.1 598.834 4958.6 595.302 4951.58C591.661 4943.39 586.531 4936.4 579.911 4930.64C573.622 4924.56 566.175 4919.86 557.57 4916.52C548.964 4912.87 539.697 4911.05 529.767 4911.05C519.838 4911.05 510.405 4912.87 501.468 4916.52C492.863 4919.86 485.25 4924.56 478.63 4930.64C472.342 4936.4 467.211 4943.39 463.24 4951.58C459.599 4959.48 457.778 4967.98 457.778 4977.09C457.778 4988.62 459.599 4998.79 463.24 5007.6C467.211 5016.4 472.176 5024.45 478.134 5031.73C484.422 5039.02 491.373 5045.85 498.986 5052.23C506.929 5058.3 514.873 5064.22 522.816 5069.99C530.76 5075.75 538.373 5081.68 545.654 5087.75C553.267 5093.52 559.887 5099.89 565.513 5106.87C571.471 5113.55 576.105 5120.99 579.415 5129.19C583.055 5137.39 584.876 5146.65 584.876 5156.97C584.876 5163.95 583.386 5170.63 580.408 5177C577.429 5183.08 573.457 5188.39 568.492 5192.94C563.527 5197.5 557.735 5201.14 551.116 5203.87C544.496 5206.61 537.38 5207.97 529.767 5207.97C522.154 5207.97 514.873 5206.61 507.922 5203.87C501.303 5201.14 495.51 5197.5 490.546 5192.94C485.581 5188.39 481.609 5183.08 478.63 5177C475.651 5170.63 474.162 5163.95 474.162 5156.97H457.778C457.778 5157.97 457.801 5158.97 457.845 5159.97C458.202 5167.98 460.001 5175.63 463.24 5182.93C467.211 5190.82 472.342 5197.8 478.63 5203.87C485.25 5209.64 492.863 5214.35 501.468 5217.99C510.405 5221.33 519.838 5223 529.767 5223C539.697 5223 548.964 5221.33 557.57 5217.99C566.175 5214.35 573.622 5209.64 579.911 5203.87C586.531 5197.8 591.661 5190.82 595.302 5182.93C599.274 5174.73 601.259 5166.08 601.259 5156.97C601.259 5144.82 599.274 5134.05 595.302 5124.63C591.33 5114.92 586.034 5106.27 579.415 5098.68C573.126 5090.78 565.844 5083.65 557.57 5077.27C549.626 5070.59 541.517 5064.22 533.242 5058.15C525.63 5052.68 518.183 5047.22 510.901 5041.75ZM779.701 5223.72H757.317V4909.87H779.701V5223.72ZM977.923 5220.78L977.864 5220.75C968.986 5216.99 961.099 5212.12 954.225 5206.14L954.167 5206.08L954.112 5206.03C947.578 5199.72 942.247 5192.47 938.125 5184.27L938.093 5184.21L938.064 5184.14C934.25 5175.56 932.344 5166.49 932.344 5156.97V4977.09C932.344 4967.56 934.25 4958.63 938.081 4950.33L938.093 4950.3L938.106 4950.28C942.231 4941.76 947.582 4934.47 954.168 4928.42C961.065 4922.1 968.992 4917.2 977.928 4913.73C987.226 4909.94 997.036 4908.05 1007.33 4908.05C1017.62 4908.05 1027.28 4909.94 1036.26 4913.74C1045.18 4917.2 1052.94 4922.09 1059.5 4928.42C1066.42 4934.46 1071.78 4941.76 1075.58 4950.3C1079.75 4958.61 1081.83 4967.55 1081.83 4977.09V5156.97C1081.83 5166.52 1079.74 5175.61 1075.58 5184.21C1071.77 5192.46 1066.4 5199.76 1059.5 5206.08C1052.94 5212.11 1045.2 5216.99 1036.3 5220.75L1036.26 5220.77L1036.22 5220.79C1027.24 5224.27 1017.61 5226 1007.33 5226C997.06 5226 987.27 5224.27 977.984 5220.8L977.923 5220.78ZM1072.87 5182.93C1076.84 5174.73 1078.83 5166.08 1078.83 5156.97V4977.09C1078.83 4967.98 1076.84 4959.48 1072.87 4951.58C1069.23 4943.39 1064.1 4936.4 1057.48 4930.64C1051.19 4924.56 1043.74 4919.86 1035.14 4916.52C1026.53 4912.87 1017.26 4911.05 1007.33 4911.05C997.403 4911.05 987.97 4912.87 979.034 4916.52C970.428 4919.86 962.816 4924.56 956.196 4930.64C949.907 4936.4 944.777 4943.39 940.805 4951.58C937.164 4959.48 935.344 4967.98 935.344 4977.09V5156.97C935.344 5166.08 937.164 5174.73 940.805 5182.93C944.777 5190.82 949.907 5197.8 956.196 5203.87C962.816 5209.64 970.428 5214.35 979.034 5217.99C987.97 5221.33 997.403 5223 1007.33 5223C1017.26 5223 1026.53 5221.33 1035.14 5217.99C1043.74 5214.35 1051.19 5209.64 1057.48 5203.87C1064.1 5197.8 1069.23 5190.82 1072.87 5182.93ZM1371.46 4909.87V4931.36H1304.43V5223.72H1282.05V4931.36H1215.02V4909.87H1371.46ZM1285.05 4928.36V5220.72H1301.43V4928.36H1368.46V4912.87H1218.02V4928.36H1285.05ZM1645.87 4931.36H1531.69V5041.48H1625.52V5062.51H1531.69V5202.69H1645.87V5223.72H1509.3V4909.87H1645.87V4931.36ZM1528.69 5205.69V5059.51H1622.52V5044.48H1528.69V4928.36H1642.87V4912.87H1512.3V5220.72H1642.87V5205.69H1528.69ZM1909.22 5220.72L1849.15 5090.93H1808.44V5220.72H1792.05V4912.87H1852.62C1862.55 4912.87 1871.82 4914.54 1880.43 4917.88C1889.36 4921.22 1896.97 4925.93 1903.26 4932C1909.88 4937.77 1915.01 4944.6 1918.65 4952.49C1922.63 4960.39 1924.61 4968.89 1924.61 4978V5025.81C1924.61 5033.71 1923.12 5041.14 1920.14 5048.13C1917.16 5055.11 1913.03 5061.49 1907.73 5067.25C1902.44 5073.02 1896.31 5077.88 1889.36 5081.83C1883.27 5085.02 1876.66 5087.4 1869.55 5088.96C1868.55 5089.18 1867.54 5089.38 1866.52 5089.57L1927.09 5220.72H1909.22ZM1870.83 5091.75L1931.78 5223.72H1907.3L1847.23 5093.93H1811.44V5223.72H1789.05V4909.87H1852.62C1862.89 4909.87 1872.52 4911.6 1881.49 4915.08C1890.75 4918.54 1898.7 4923.44 1905.29 4929.79C1912.19 4935.81 1917.55 4942.95 1921.36 4951.19C1925.53 4959.5 1927.61 4968.45 1927.61 4978V5025.81C1927.61 5034.09 1926.05 5041.93 1922.9 5049.3C1919.79 5056.61 1915.46 5063.27 1909.94 5069.28C1904.43 5075.29 1898.06 5080.34 1890.84 5084.44L1890.8 5084.46L1890.76 5084.48C1884.59 5087.71 1877.95 5090.13 1870.83 5091.75ZM2233.44 5223.72L2210.1 5127.18H2118.51L2095.18 5223.72H2072.12L2148.05 4909.87H2180.57L2256.49 5223.72H2233.44ZM2116.15 5124.18H2212.47L2235.8 5220.72H2252.68L2178.21 4912.87H2150.41L2075.94 5220.72H2092.82L2116.15 5124.18ZM2465.75 5108.96H2416.03V5223.72H2393.65V4909.87H2462.18C2472.46 4909.87 2481.96 4911.76 2490.63 4915.57C2499.54 4919.03 2507.29 4923.92 2513.86 4930.25C2520.77 4936.28 2526.13 4943.43 2529.94 4951.69C2533.77 4959.99 2535.68 4968.76 2535.68 4978V5040.84C2535.68 5050.06 2533.78 5058.68 2529.95 5066.68C2526.47 5074.64 2521.44 5081.63 2514.88 5087.65C2508.66 5093.67 2501.25 5098.56 2492.7 5102.32C2484.41 5106.12 2475.45 5108.33 2465.85 5108.96L2465.75 5108.96ZM2491.47 5099.59C2483.53 5103.23 2474.92 5105.36 2465.66 5105.96H2413.03V5220.72H2396.65V4912.87H2462.18C2472.11 4912.87 2481.21 4914.7 2489.49 4918.34C2498.09 4921.68 2505.54 4926.38 2511.83 4932.46C2518.45 4938.22 2523.58 4945.06 2527.22 4952.95C2530.86 4960.84 2532.68 4969.19 2532.68 4978V5040.84C2532.68 5049.65 2530.86 5057.84 2527.22 5065.43C2523.91 5073.02 2519.11 5079.7 2512.82 5085.47C2506.86 5091.24 2499.75 5095.94 2491.47 5099.59ZM2498.34 5073.73L2498.38 5073.7C2503.07 5069.4 2506.63 5064.55 2509.1 5059.17L2509.12 5059.14L2509.14 5059.1C2511.91 5053.45 2513.3 5047.38 2513.3 5040.84V4978C2513.3 4971.78 2511.92 4965.86 2509.14 4960.19C2506.32 4954.45 2502.57 4949.44 2497.89 4945.14C2493.2 4940.84 2487.71 4937.38 2481.39 4934.77C2475.16 4932.2 2468.43 4930.9 2461.19 4930.9H2416.03V5087.93H2462.18C2469.43 5087.93 2476.15 5086.64 2482.39 5084.06C2488.68 5081.46 2493.98 5078.02 2498.31 5073.77L2498.34 5073.73ZM2462.18 5090.93C2469.79 5090.93 2476.91 5089.57 2483.53 5086.84C2490.15 5084.1 2495.78 5080.46 2500.41 5075.91C2505.37 5071.35 2509.18 5066.19 2511.83 5060.42C2514.81 5054.35 2516.3 5047.82 2516.3 5040.84V4978C2516.3 4971.32 2514.81 4964.94 2511.83 4958.87C2508.85 4952.8 2504.88 4947.48 2499.91 4942.93C2494.95 4938.38 2489.16 4934.73 2482.54 4932C2475.92 4929.27 2468.8 4927.9 2461.19 4927.9H2413.03V5090.93H2462.18ZM2710.81 5223.72H2688.43V4909.87H2710.81V5223.72ZM3014.03 5223.72L2990.69 5127.18H2899.1L2875.77 5223.72H2852.71L2928.64 4909.87H2961.16L3037.08 5223.72H3014.03ZM2896.74 5124.18H2993.06L3016.39 5220.72H3033.27L2958.8 4912.87H2931L2856.53 5220.72H2873.41L2896.74 5124.18ZM3512.02 4931.36H3397.83V5041.48H3491.66V5062.51H3397.83V5202.69H3512.02V5223.72H3375.44V4909.87H3512.02V4931.36ZM3394.83 5205.69V5059.51H3488.66V5044.48H3394.83V4928.36H3509.02V4912.87H3378.44V5220.72H3509.02V5205.69H3394.83ZM4039.57 4909.87H4061.49V5223.72H4039.11V4971.38L3959.2 5172.82L3878.79 4971.29V5223.72H3856.4V4909.87H3878.32L3959.19 5112.42L4039.57 4909.87ZM3959.2 5120.54L3876.28 4912.87H3859.4V5220.72H3875.79V4955.68L3959.2 5164.71L4042.11 4955.68V5220.72H4058.49V4912.87H4041.61L3959.2 5120.54ZM4364.79 5223.72L4341.45 5127.18H4249.86L4226.53 5223.72H4203.47L4279.4 4909.87H4311.92L4387.84 5223.72H4364.79ZM4247.5 5124.18H4343.82L4367.15 5220.72H4384.03L4309.56 4912.87H4281.76L4207.29 5220.72H4224.17L4247.5 5124.18ZM4605.22 5055.72L4605.23 5055.73C4613.55 5061.83 4621.69 5068.23 4629.67 5074.94C4638.09 5081.43 4645.51 5088.7 4651.94 5096.75C4658.75 5104.58 4664.2 5113.49 4668.28 5123.47C4672.44 5133.31 4674.48 5144.5 4674.48 5156.97C4674.48 5166.52 4672.39 5175.61 4668.23 5184.21C4664.42 5192.46 4659.05 5199.76 4652.16 5206.08C4645.59 5212.11 4637.85 5216.99 4628.96 5220.75L4628.91 5220.77L4628.87 5220.79C4619.9 5224.27 4610.26 5226 4599.98 5226C4589.71 5226 4579.92 5224.27 4570.64 5220.8L4570.58 5220.78L4570.52 5220.75C4561.64 5216.99 4553.75 5212.12 4546.88 5206.14L4546.82 5206.08L4546.76 5206.03C4540.23 5199.72 4534.9 5192.47 4530.78 5184.27L4530.74 5184.21L4530.72 5184.14C4526.9 5175.56 4525 5166.49 4525 5156.97V5153.97H4547.38V5156.97C4547.38 5163.5 4548.77 5169.74 4551.56 5175.72C4554.37 5181.44 4558.11 5186.44 4562.79 5190.73C4567.47 5195.03 4572.95 5198.48 4579.26 5201.09C4585.85 5203.68 4592.75 5204.97 4599.98 5204.97C4607.23 5204.97 4613.95 5203.67 4620.19 5201.1C4626.5 5198.49 4631.99 5195.03 4636.68 5190.73C4641.37 5186.44 4645.11 5181.43 4647.92 5175.7C4650.71 5169.73 4652.09 5163.5 4652.09 5156.97C4652.09 5147 4650.34 5138.17 4646.89 5130.41L4646.87 5130.36L4646.85 5130.31C4643.67 5122.44 4639.22 5115.3 4633.49 5108.87L4633.44 5108.81L4633.4 5108.76C4627.93 5101.98 4621.49 5095.77 4614.06 5090.14L4614 5090.1L4613.95 5090.05C4606.72 5084.02 4599.16 5078.14 4591.27 5072.41C4583.31 5066.63 4575.34 5060.7 4567.38 5054.61L4567.33 5054.57L4567.28 5054.53C4559.54 5048.05 4552.48 5041.11 4546.08 5033.69L4546.05 5033.66L4546.03 5033.63C4539.9 5026.14 4534.8 5017.87 4530.72 5008.83L4530.7 5008.79L4530.68 5008.74C4526.87 4999.51 4525 4988.93 4525 4977.09C4525 4967.56 4526.9 4958.63 4530.73 4950.33L4530.74 4950.3L4530.76 4950.28C4534.88 4941.76 4540.23 4934.47 4546.82 4928.42C4553.72 4922.1 4561.64 4917.2 4570.57 4913.73C4579.87 4909.94 4589.69 4908.05 4599.98 4908.05C4610.27 4908.05 4619.93 4909.94 4628.91 4913.74C4637.83 4917.2 4645.59 4922.09 4652.16 4928.42C4659.07 4934.46 4664.43 4941.76 4668.23 4950.29C4672.4 4958.6 4674.48 4967.55 4674.48 4977.09V4980.09H4652.09V4977.09C4652.09 4970.55 4650.7 4964.47 4647.93 4958.82C4645.12 4953.09 4641.37 4948.08 4636.68 4943.78C4631.99 4939.47 4626.5 4936.01 4620.19 4933.41C4613.95 4930.83 4607.23 4929.54 4599.98 4929.54C4592.75 4929.54 4585.84 4930.83 4579.25 4933.42C4572.95 4936.03 4567.47 4939.48 4562.79 4943.78C4558.1 4948.08 4554.36 4953.09 4551.54 4958.82C4548.77 4964.47 4547.38 4970.55 4547.38 4977.09C4547.38 4986.45 4548.97 4994.68 4552.09 5001.83C4555.28 5008.84 4559.42 5015.43 4564.53 5021.59C4570.03 5027.81 4576.18 5033.75 4582.98 5039.4C4590.22 5044.83 4597.63 5050.27 4605.21 5055.71L4605.22 5055.72ZM4581.12 5041.75C4574.17 5035.98 4567.88 5029.91 4562.25 5023.54C4556.96 5017.16 4552.65 5010.33 4549.34 5003.04C4546.03 4995.45 4544.38 4986.8 4544.38 4977.09C4544.38 4970.1 4545.87 4963.58 4548.85 4957.5C4551.83 4951.43 4555.8 4946.12 4560.76 4941.56C4565.73 4937.01 4571.52 4933.37 4578.14 4930.64C4585.09 4927.9 4592.37 4926.54 4599.98 4926.54C4607.6 4926.54 4614.71 4927.9 4621.33 4930.64C4627.95 4933.37 4633.74 4937.01 4638.71 4941.56C4643.67 4946.12 4647.65 4951.43 4650.62 4957.5C4653.6 4963.58 4655.09 4970.1 4655.09 4977.09H4671.48C4671.48 4976.08 4671.45 4975.08 4671.4 4974.09C4671.01 4966.1 4669.05 4958.6 4665.52 4951.58C4661.88 4943.39 4656.75 4936.4 4650.13 4930.64C4643.84 4924.56 4636.39 4919.86 4627.79 4916.52C4619.18 4912.87 4609.91 4911.05 4599.98 4911.05C4590.06 4911.05 4580.62 4912.87 4571.69 4916.52C4563.08 4919.86 4555.47 4924.56 4548.85 4930.64C4542.56 4936.4 4537.43 4943.39 4533.46 4951.58C4529.82 4959.48 4528 4967.98 4528 4977.09C4528 4988.62 4529.82 4998.79 4533.46 5007.6C4537.43 5016.4 4542.39 5024.45 4548.35 5031.73C4554.64 5039.02 4561.59 5045.85 4569.2 5052.23C4577.15 5058.3 4585.09 5064.22 4593.03 5069.99C4600.98 5075.75 4608.59 5081.68 4615.87 5087.75C4623.48 5093.52 4630.1 5099.89 4635.73 5106.87C4641.69 5113.55 4646.32 5120.99 4649.63 5129.19C4653.27 5137.39 4655.09 5146.65 4655.09 5156.97C4655.09 5163.95 4653.6 5170.63 4650.62 5177C4647.65 5183.08 4643.67 5188.39 4638.71 5192.94C4633.74 5197.5 4627.95 5201.14 4621.33 5203.87C4614.71 5206.61 4607.6 5207.97 4599.98 5207.97C4592.37 5207.97 4585.09 5206.61 4578.14 5203.87C4571.52 5201.14 4565.73 5197.5 4560.76 5192.94C4555.8 5188.39 4551.83 5183.08 4548.85 5177C4545.87 5170.63 4544.38 5163.95 4544.38 5156.97H4528C4528 5157.97 4528.02 5158.97 4528.06 5159.97C4528.42 5167.98 4530.22 5175.63 4533.46 5182.93C4537.43 5190.82 4542.56 5197.8 4548.85 5203.87C4555.47 5209.64 4563.08 5214.35 4571.69 5217.99C4580.62 5221.33 4590.06 5223 4599.98 5223C4609.91 5223 4619.18 5221.33 4627.79 5217.99C4636.39 5214.35 4643.84 5209.64 4650.13 5203.87C4656.75 5197.8 4661.88 5190.82 4665.52 5182.93C4669.49 5174.73 4671.48 5166.08 4671.48 5156.97C4671.48 5144.82 4669.49 5134.05 4665.52 5124.63C4661.55 5114.92 4656.25 5106.27 4649.63 5098.68C4643.34 5090.78 4636.06 5083.65 4627.79 5077.27C4619.84 5070.59 4611.73 5064.22 4603.46 5058.15C4595.85 5052.68 4588.4 5047.22 4581.12 5041.75ZM4907.76 5055.72L4907.77 5055.73C4916.09 5061.83 4924.23 5068.23 4932.21 5074.94C4940.63 5081.43 4948.05 5088.7 4954.48 5096.75C4961.3 5104.59 4966.75 5113.51 4970.84 5123.5C4974.98 5133.33 4977.02 5144.51 4977.02 5156.97C4977.02 5166.52 4974.93 5175.61 4970.77 5184.21C4966.96 5192.46 4961.59 5199.76 4954.7 5206.08C4948.13 5212.11 4940.39 5216.99 4931.5 5220.75L4931.45 5220.77L4931.41 5220.79C4922.43 5224.27 4912.8 5226 4902.52 5226C4892.25 5226 4882.46 5224.27 4873.17 5220.8L4873.11 5220.78L4873.06 5220.75C4864.18 5216.99 4856.29 5212.12 4849.42 5206.14L4849.36 5206.08L4849.3 5206.03C4842.77 5199.72 4837.44 5192.47 4833.32 5184.27L4833.28 5184.21L4833.25 5184.14C4829.44 5175.56 4827.53 5166.49 4827.53 5156.97V5153.97H4849.92V5156.97C4849.92 5163.5 4851.31 5169.74 4854.1 5175.72C4856.91 5181.44 4860.65 5186.44 4865.33 5190.73C4870.01 5195.03 4875.49 5198.48 4881.8 5201.09C4888.39 5203.68 4895.29 5204.97 4902.52 5204.97C4909.77 5204.97 4916.49 5203.67 4922.73 5201.1C4929.04 5198.49 4934.53 5195.03 4939.22 5190.73C4943.9 5186.44 4947.65 5181.43 4950.46 5175.7C4953.25 5169.73 4954.63 5163.5 4954.63 5156.97C4954.63 5147 4952.88 5138.17 4949.43 5130.41L4949.41 5130.36L4949.39 5130.31C4946.21 5122.44 4941.76 5115.3 4936.03 5108.87L4935.98 5108.81L4935.93 5108.76C4930.47 5101.98 4924.03 5095.77 4916.6 5090.14L4916.54 5090.1L4916.49 5090.05C4909.26 5084.02 4901.7 5078.14 4893.81 5072.41C4885.85 5066.63 4877.88 5060.7 4869.92 5054.61L4869.87 5054.57L4869.82 5054.53C4862.08 5048.05 4855.02 5041.11 4848.62 5033.69L4848.59 5033.66L4848.57 5033.63C4842.44 5026.14 4837.34 5017.87 4833.26 5008.83L4833.24 5008.79L4833.22 5008.74C4829.4 4999.51 4827.53 4988.93 4827.53 4977.09C4827.53 4967.56 4829.44 4958.63 4833.27 4950.33L4833.28 4950.3L4833.3 4950.28C4837.42 4941.76 4842.77 4934.47 4849.36 4928.42C4856.25 4922.1 4864.18 4917.2 4873.11 4913.73C4882.41 4909.94 4892.23 4908.05 4902.52 4908.05C4912.81 4908.05 4922.46 4909.94 4931.45 4913.74C4940.37 4917.2 4948.13 4922.1 4954.7 4928.43C4961.61 4934.46 4966.97 4941.77 4970.77 4950.3C4974.94 4958.61 4977.02 4967.55 4977.02 4977.09V4980.09H4954.63V4977.09C4954.63 4970.55 4953.24 4964.47 4950.47 4958.82C4947.66 4953.09 4943.91 4948.08 4939.22 4943.78C4934.53 4939.47 4929.04 4936.01 4922.73 4933.41C4916.49 4930.83 4909.77 4929.54 4902.52 4929.54C4895.29 4929.54 4888.38 4930.83 4881.79 4933.42C4875.49 4936.03 4870.01 4939.48 4865.33 4943.78C4860.64 4948.08 4856.9 4953.09 4854.08 4958.82C4851.31 4964.47 4849.92 4970.55 4849.92 4977.09C4849.92 4986.45 4851.51 4994.68 4854.63 5001.83C4857.81 5008.84 4861.96 5015.43 4867.07 5021.59C4872.57 5027.81 4878.71 5033.75 4885.52 5039.4C4892.76 5044.83 4900.17 5050.27 4907.75 5055.71L4907.76 5055.72ZM4883.66 5041.75C4876.71 5035.98 4870.42 5029.91 4864.79 5023.54C4859.5 5017.16 4855.19 5010.33 4851.88 5003.04C4848.57 4995.45 4846.92 4986.8 4846.92 4977.09C4846.92 4970.1 4848.41 4963.58 4851.39 4957.5C4854.37 4951.43 4858.34 4946.12 4863.3 4941.56C4868.27 4937.01 4874.06 4933.37 4880.68 4930.64C4887.63 4927.9 4894.91 4926.54 4902.52 4926.54C4910.14 4926.54 4917.25 4927.9 4923.87 4930.64C4930.49 4933.37 4936.28 4937.01 4941.25 4941.56C4946.21 4946.12 4950.19 4951.43 4953.16 4957.5C4956.14 4963.58 4957.63 4970.1 4957.63 4977.09H4974.02C4974.02 4976.08 4973.99 4975.08 4973.94 4974.09C4973.55 4966.1 4971.59 4958.6 4968.06 4951.58C4964.42 4943.39 4959.29 4936.4 4952.67 4930.64C4946.38 4924.56 4938.93 4919.86 4930.33 4916.52C4921.72 4912.87 4912.45 4911.05 4902.52 4911.05C4892.59 4911.05 4883.16 4912.87 4874.22 4916.52C4865.62 4919.86 4858.01 4924.56 4851.39 4930.64C4845.1 4936.4 4839.97 4943.39 4836 4951.58C4832.35 4959.48 4830.53 4967.98 4830.53 4977.09C4830.53 4988.62 4832.35 4998.79 4836 5007.6C4839.97 5016.4 4844.93 5024.45 4850.89 5031.73C4857.18 5039.02 4864.13 5045.85 4871.74 5052.23C4879.69 5058.3 4887.63 5064.22 4895.57 5069.99C4903.52 5075.75 4911.13 5081.68 4918.41 5087.75C4926.02 5093.52 4932.64 5099.89 4938.27 5106.87C4944.23 5113.55 4948.86 5120.99 4952.17 5129.19C4955.81 5137.39 4957.63 5146.65 4957.63 5156.97C4957.63 5163.95 4956.14 5170.63 4953.16 5177C4950.19 5183.08 4946.21 5188.39 4941.25 5192.94C4936.28 5197.5 4930.49 5201.14 4923.87 5203.87C4917.25 5206.61 4910.14 5207.97 4902.52 5207.97C4894.91 5207.97 4887.63 5206.61 4880.68 5203.87C4874.06 5201.14 4868.27 5197.5 4863.3 5192.94C4858.34 5188.39 4854.37 5183.08 4851.39 5177C4848.41 5170.63 4846.92 5163.95 4846.92 5156.97H4830.53C4830.53 5157.97 4830.56 5158.97 4830.6 5159.97C4830.96 5167.98 4832.76 5175.63 4836 5182.93C4839.97 5190.82 4845.1 5197.8 4851.39 5203.87C4858.01 5209.64 4865.62 5214.35 4874.22 5217.99C4883.16 5221.33 4892.59 5223 4902.52 5223C4912.45 5223 4921.72 5221.33 4930.33 5217.99C4938.93 5214.35 4946.38 5209.64 4952.67 5203.87C4959.29 5197.8 4964.42 5190.82 4968.06 5182.93C4972.03 5174.73 4974.02 5166.08 4974.02 5156.97C4974.02 5144.82 4972.03 5134.05 4968.06 5124.63C4964.09 5114.92 4958.79 5106.27 4952.17 5098.68C4945.88 5090.78 4938.6 5083.65 4930.33 5077.27C4922.38 5070.59 4914.27 5064.22 4906 5058.15C4898.39 5052.68 4890.94 5047.22 4883.66 5041.75ZM5175.65 5220.78L5175.59 5220.75C5166.72 5216.99 5158.83 5212.12 5151.95 5206.14L5151.9 5206.08L5151.84 5206.03C5145.31 5199.72 5139.98 5192.47 5135.85 5184.27L5135.82 5184.21L5135.79 5184.14C5131.98 5175.56 5130.07 5166.49 5130.07 5156.97V4977.09C5130.07 4967.56 5131.98 4958.63 5135.81 4950.33L5135.82 4950.3L5135.84 4950.28C5139.96 4941.76 5145.31 4934.47 5151.9 4928.42C5158.79 4922.1 5166.72 4917.2 5175.65 4913.73C5184.95 4909.94 5194.76 4908.05 5205.06 4908.05C5215.35 4908.05 5225 4909.94 5233.99 4913.74C5242.91 4917.2 5250.67 4922.1 5257.24 4928.43C5264.15 4934.46 5269.51 4941.77 5273.31 4950.3C5277.48 4958.61 5279.56 4967.55 5279.56 4977.09V5156.97C5279.56 5166.52 5277.47 5175.61 5273.31 5184.21C5269.5 5192.46 5264.13 5199.76 5257.23 5206.08C5250.67 5212.11 5242.93 5216.99 5234.03 5220.75L5233.99 5220.77L5233.95 5220.79C5224.97 5224.27 5215.33 5226 5205.06 5226C5194.79 5226 5185 5224.27 5175.71 5220.8L5175.65 5220.78ZM5270.6 5182.93C5274.57 5174.73 5276.56 5166.08 5276.56 5156.97V4977.09C5276.56 4967.98 5274.57 4959.48 5270.6 4951.58C5266.96 4943.39 5261.83 4936.4 5255.21 4930.64C5248.92 4924.56 5241.47 4919.86 5232.87 4916.52C5224.26 4912.87 5214.99 4911.05 5205.06 4911.05C5195.13 4911.05 5185.7 4912.87 5176.76 4916.52C5168.16 4919.86 5160.55 4924.56 5153.93 4930.64C5147.64 4936.4 5142.51 4943.39 5138.54 4951.58C5134.89 4959.48 5133.07 4967.98 5133.07 4977.09V5156.97C5133.07 5166.08 5134.89 5174.73 5138.54 5182.93C5142.51 5190.82 5147.64 5197.8 5153.93 5203.87C5160.55 5209.64 5168.16 5214.35 5176.76 5217.99C5185.7 5221.33 5195.13 5223 5205.06 5223C5214.99 5223 5224.26 5221.33 5232.87 5217.99C5241.47 5214.35 5248.92 5209.64 5255.21 5203.87C5261.83 5197.8 5266.96 5190.82 5270.6 5182.93ZM5569.19 4909.87V4931.36H5502.16V5223.72H5479.78V4931.36H5412.75V4909.87H5569.19ZM5482.78 4928.36V5220.72H5499.16V4928.36H5566.19V4912.87H5415.75V4928.36H5482.78ZM5843.6 4931.36H5729.42V5041.48H5823.25V5062.51H5729.42V5202.69H5843.6V5223.72H5707.03V4909.87H5843.6V4931.36ZM5726.42 5205.69V5059.51H5820.25V5044.48H5726.42V4928.36H5840.6V4912.87H5710.03V5220.72H5840.6V5205.69H5726.42ZM6106.95 5220.72L6046.88 5090.93H6006.17V5220.72H5989.78V4912.87H6050.35C6060.28 4912.87 6069.55 4914.54 6078.16 4917.88C6087.09 4921.22 6094.71 4925.93 6100.99 4932C6107.61 4937.77 6112.74 4944.6 6116.38 4952.49C6120.36 4960.39 6122.34 4968.89 6122.34 4978V5025.81C6122.34 5033.71 6120.85 5041.14 6117.87 5048.13C6114.9 5055.11 6110.76 5061.49 6105.46 5067.25C6100.17 5073.02 6094.04 5077.88 6087.09 5081.83C6081 5085.02 6074.39 5087.4 6067.28 5088.96C6066.28 5089.18 6065.27 5089.38 6064.25 5089.57L6124.82 5220.72H6106.95ZM6068.56 5091.75L6129.51 5223.72H6105.03L6044.96 5093.93H6009.17V5223.72H5986.78V4909.87H6050.35C6060.62 4909.87 6070.25 4911.6 6079.22 4915.08C6088.48 4918.54 6096.43 4923.44 6103.03 4929.79C6109.92 4935.82 6115.28 4942.95 6119.09 4951.19C6123.26 4959.5 6125.34 4968.45 6125.34 4978V5025.81C6125.34 5034.09 6123.78 5041.93 6120.63 5049.3C6117.52 5056.61 6113.19 5063.27 6107.67 5069.28C6102.16 5075.29 6095.79 5080.34 6088.57 5084.44L6088.53 5084.46L6088.48 5084.48C6082.32 5087.71 6075.68 5090.13 6068.56 5091.75ZM6431.17 5223.72L6407.83 5127.18H6316.24L6292.91 5223.72H6269.85L6345.78 4909.87H6378.3L6454.22 5223.72H6431.17ZM6313.88 5124.18H6410.2L6433.53 5220.72H6450.41L6375.94 4912.87H6348.14L6273.67 5220.72H6290.55L6313.88 5124.18ZM6663.48 5108.96H6613.76V5223.72H6591.38V4909.87H6659.91C6670.19 4909.87 6679.69 4911.76 6688.36 4915.57C6697.27 4919.03 6705.02 4923.92 6711.58 4930.24C6718.49 4936.28 6723.86 4943.43 6727.67 4951.69C6731.5 4959.99 6733.41 4968.76 6733.41 4978V5040.84C6733.41 5050.05 6731.51 5058.67 6727.68 5066.67C6724.21 5074.63 6719.17 5081.62 6712.61 5087.65C6706.39 5093.67 6698.98 5098.56 6690.42 5102.33C6682.14 5106.12 6673.18 5108.33 6663.58 5108.96L6663.48 5108.96ZM6689.2 5099.59C6697.48 5095.94 6704.59 5091.24 6710.55 5085.47C6716.84 5079.7 6721.64 5073.02 6724.95 5065.43C6728.59 5057.84 6730.41 5049.65 6730.41 5040.84V4978C6730.41 4969.19 6728.59 4960.84 6724.95 4952.95C6721.31 4945.06 6716.18 4938.22 6709.56 4932.46C6703.27 4926.38 6695.82 4921.68 6687.22 4918.34C6678.94 4914.7 6669.84 4912.87 6659.91 4912.87H6594.38V5220.72H6610.76V5105.96H6663.39C6672.65 5105.36 6681.26 5103.23 6689.2 5099.59ZM6696.07 5073.73L6696.11 5073.7C6700.8 5069.4 6704.36 5064.56 6706.83 5059.17L6706.85 5059.14L6706.87 5059.1C6709.64 5053.45 6711.03 5047.38 6711.03 5040.84V4978C6711.03 4971.78 6709.65 4965.86 6706.87 4960.19C6704.05 4954.45 6700.3 4949.44 6695.62 4945.14C6690.93 4940.84 6685.44 4937.38 6679.12 4934.77C6672.89 4932.2 6666.16 4930.9 6658.92 4930.9H6613.76V5087.93H6659.91C6667.16 5087.93 6673.88 5086.64 6680.11 5084.06C6686.41 5081.46 6691.71 5078.02 6696.04 5073.77L6696.07 5073.73ZM6659.91 5090.93C6667.52 5090.93 6674.64 5089.57 6681.26 5086.84C6687.88 5084.1 6693.51 5080.46 6698.14 5075.91C6703.1 5071.35 6706.91 5066.19 6709.56 5060.42C6712.54 5054.35 6714.03 5047.82 6714.03 5040.84V4978C6714.03 4971.32 6712.54 4964.94 6709.56 4958.87C6706.58 4952.8 6702.61 4947.48 6697.64 4942.93C6692.68 4938.38 6686.89 4934.73 6680.27 4932C6673.65 4929.27 6666.53 4927.9 6658.92 4927.9H6610.76V5090.93H6659.91ZM6908.54 5223.72H6886.16V4909.87H6908.54V5223.72ZM7211.76 5223.72L7188.42 5127.18H7096.83L7073.5 5223.72H7050.44L7126.37 4909.87H7158.89L7234.81 5223.72H7211.76ZM7094.47 5124.18H7190.79L7214.12 5220.72H7231L7156.53 4912.87H7128.73L7054.26 5220.72H7071.14L7094.47 5124.18ZM985.488 4930.64C978.868 4933.37 973.076 4937.01 968.111 4941.56C963.147 4946.12 959.175 4951.43 956.196 4957.5C953.217 4963.58 951.728 4970.1 951.728 4977.09V5156.97C951.728 5163.95 953.217 5170.63 956.196 5177C959.175 5183.08 963.147 5188.39 968.111 5192.94C973.076 5197.5 978.868 5201.14 985.488 5203.87C992.439 5206.61 999.72 5207.97 1007.33 5207.97C1014.95 5207.97 1022.06 5206.61 1028.68 5203.87C1035.3 5201.14 1041.09 5197.5 1046.06 5192.94C1051.02 5188.39 1054.99 5183.08 1057.97 5177C1060.95 5170.63 1062.44 5163.95 1062.44 5156.97V4977.09C1062.44 4970.1 1060.95 4963.58 1057.97 4957.5C1054.99 4951.43 1051.02 4946.12 1046.06 4941.56C1041.09 4937.01 1035.3 4933.37 1028.68 4930.64C1022.06 4927.9 1014.95 4926.54 1007.33 4926.54C999.72 4926.54 992.439 4927.9 985.488 4930.64ZM1055.27 5175.71C1058.05 5169.74 1059.44 5163.5 1059.44 5156.97V4977.09C1059.44 4970.55 1058.05 4964.47 1055.28 4958.82C1052.46 4953.09 1048.72 4948.08 1044.03 4943.78C1039.34 4939.47 1033.85 4936.01 1027.54 4933.41C1021.3 4930.83 1014.58 4929.54 1007.33 4929.54C1000.1 4929.54 993.193 4930.83 986.605 4933.42C980.302 4936.02 974.822 4939.48 970.139 4943.78C965.451 4948.08 961.704 4953.09 958.889 4958.82C956.119 4964.47 954.728 4970.55 954.728 4977.09V5156.97C954.728 5163.5 956.115 5169.74 958.902 5175.71C961.715 5181.44 965.458 5186.44 970.139 5190.73C974.823 5195.03 980.305 5198.49 986.611 5201.09C993.198 5203.68 1000.1 5204.97 1007.33 5204.97C1014.58 5204.97 1021.3 5203.67 1027.54 5201.1C1033.85 5198.49 1039.34 5195.03 1044.03 5190.73C1048.71 5186.44 1052.45 5181.44 1055.27 5175.71ZM1811.44 5072.91H1852.62C1859.89 5072.91 1866.63 5071.75 1872.88 5069.47C1879.17 5066.86 1884.64 5063.41 1889.32 5059.12C1894.01 5054.82 1897.76 5049.81 1900.57 5044.07C1903.34 5038.43 1904.73 5032.35 1904.73 5025.81V4978C1904.73 4971.78 1903.35 4965.86 1900.57 4960.19C1897.76 4954.45 1894.01 4949.44 1889.32 4945.14C1884.63 4940.84 1879.14 4937.38 1872.83 4934.77C1866.59 4932.2 1859.87 4930.9 1852.62 4930.9H1811.44V5072.91ZM1808.44 5075.91V4927.9H1852.62C1860.24 4927.9 1867.35 4929.27 1873.97 4932C1880.59 4934.73 1886.38 4938.38 1891.35 4942.93C1896.31 4947.48 1900.28 4952.8 1903.26 4958.87C1906.24 4964.94 1907.73 4971.32 1907.73 4978V5025.81C1907.73 5032.8 1906.24 5039.32 1903.26 5045.4C1900.28 5051.47 1896.31 5056.78 1891.35 5061.33C1886.38 5065.89 1880.59 5069.53 1873.97 5072.26C1867.35 5074.69 1860.24 5075.91 1852.62 5075.91H1808.44ZM2208.99 5109.15L2164.31 4925.17L2119.63 5109.15H2208.99ZM2123.44 5106.15L2164.31 4937.88L2205.18 5106.15H2123.44ZM2989.58 5109.15L2944.9 4925.17L2900.22 5109.15H2989.58ZM2904.03 5106.15L2944.9 4937.88L2985.76 5106.15H2904.03ZM4340.34 5109.15L4295.66 4925.17L4250.97 5109.15H4340.34ZM4254.79 5106.15L4295.66 4937.88L4336.52 5106.15H4254.79ZM5183.22 4930.64C5176.6 4933.37 5170.81 4937.01 5165.84 4941.56C5160.88 4946.12 5156.9 4951.43 5153.93 4957.5C5150.95 4963.58 5149.46 4970.1 5149.46 4977.09V5156.97C5149.46 5163.95 5150.95 5170.63 5153.93 5177C5156.9 5183.08 5160.88 5188.39 5165.84 5192.94C5170.81 5197.5 5176.6 5201.14 5183.22 5203.87C5190.17 5206.61 5197.45 5207.97 5205.06 5207.97C5212.68 5207.97 5219.79 5206.61 5226.41 5203.87C5233.03 5201.14 5238.82 5197.5 5243.79 5192.94C5248.75 5188.39 5252.72 5183.08 5255.7 5177C5258.68 5170.63 5260.17 5163.95 5260.17 5156.97V4977.09C5260.17 4970.1 5258.68 4963.58 5255.7 4957.5C5252.72 4951.43 5248.75 4946.12 5243.79 4941.56C5238.82 4937.01 5233.03 4933.37 5226.41 4930.64C5219.79 4927.9 5212.68 4926.54 5205.06 4926.54C5197.45 4926.54 5190.17 4927.9 5183.22 4930.64ZM5252.99 5175.72C5255.78 5169.74 5257.17 5163.5 5257.17 5156.97V4977.09C5257.17 4970.55 5255.78 4964.47 5253.01 4958.82C5250.19 4953.09 5246.45 4948.08 5241.76 4943.78C5237.07 4939.47 5231.58 4936.01 5225.27 4933.41C5219.03 4930.83 5212.31 4929.54 5205.06 4929.54C5197.82 4929.54 5190.92 4930.83 5184.33 4933.42C5178.03 4936.03 5172.55 4939.48 5167.87 4943.78C5163.18 4948.08 5159.43 4953.09 5156.62 4958.82C5153.85 4964.47 5152.46 4970.55 5152.46 4977.09V5156.97C5152.46 5163.5 5153.84 5169.73 5156.63 5175.7C5159.44 5181.43 5163.19 5186.44 5167.87 5190.73C5172.55 5195.03 5178.03 5198.48 5184.34 5201.09C5190.92 5203.68 5197.83 5204.97 5205.06 5204.97C5212.31 5204.97 5219.03 5203.67 5225.27 5201.1C5231.58 5198.49 5237.07 5195.03 5241.76 5190.73C5246.44 5186.44 5250.18 5181.44 5252.99 5175.72ZM6009.17 5072.91H6050.35C6057.62 5072.91 6064.36 5071.75 6070.61 5069.47C6076.9 5066.86 6082.37 5063.41 6087.05 5059.12C6091.74 5054.82 6095.49 5049.81 6098.3 5044.07C6101.07 5038.43 6102.46 5032.35 6102.46 5025.81V4978C6102.46 4971.78 6101.08 4965.86 6098.3 4960.19C6095.49 4954.45 6091.74 4949.44 6087.05 4945.14C6082.36 4940.84 6076.87 4937.38 6070.56 4934.77C6064.32 4932.2 6057.6 4930.9 6050.35 4930.9H6009.17V5072.91ZM6006.17 5075.91V4927.9H6050.35C6057.97 4927.9 6065.08 4929.27 6071.7 4932C6078.32 4934.73 6084.11 4938.38 6089.08 4942.93C6094.04 4947.48 6098.01 4952.8 6100.99 4958.87C6103.97 4964.94 6105.46 4971.32 6105.46 4978V5025.81C6105.46 5032.8 6103.97 5039.32 6100.99 5045.4C6098.01 5051.47 6094.04 5056.78 6089.08 5061.33C6084.11 5065.89 6078.32 5069.53 6071.7 5072.26C6065.08 5074.69 6057.97 5075.91 6050.35 5075.91H6006.17ZM6406.72 5109.15L6362.04 4925.17L6317.36 5109.15H6406.72ZM6321.17 5106.15H6402.91L6362.04 4937.88L6321.17 5106.15ZM7187.31 5109.15L7142.63 4925.17L7097.95 5109.15H7187.31ZM7101.76 5106.15H7183.5L7142.63 4937.88L7101.76 5106.15ZM272.483 4398.28V3441.67H361.935V4398.28H272.483ZM282.752 5220.72V4912.87H299.135V5220.72H282.752ZM760.317 5220.72V4912.87H776.701V5220.72H760.317ZM2707.81 5220.72V4912.87H2691.43V5220.72H2707.81ZM6889.16 5220.72V4912.87H6905.54V5220.72H6889.16Z" fill="#21AF9C"/>
<defs>
<linearGradient id="paint0_linear_126_42" x1="2060.72" y1="1660.73" x2="4931.04" y2="1970.11" gradientUnits="userSpaceOnUse">
<stop stop-color="#21AF9C"/>
<stop offset="1" stop-color="#D1126B"/>
</linearGradient>
<linearGradient id="paint1_linear_126_42" x1="2505.45" y1="1120.4" x2="4619.45" y2="2119.36" gradientUnits="userSpaceOnUse">
<stop offset="0.44" stop-color="#21AF9C"/>
<stop offset="1" stop-color="#D1126B"/>
</linearGradient>
</defs>
</svg>
