<svg width="7220" height="5352" viewBox="0 0 7220 5352" fill="none" xmlns="http://www.w3.org/2000/svg">
<path fill-rule="evenodd" clip-rule="evenodd" d="M2499.72 2981.06C3184.77 3260.5 3958.07 2945.45 4228.8 2281.75C3944.89 2977.77 3191.46 3328.56 2476.87 3037.07C1762.29 2745.59 1413.16 1945.07 1697.07 1249.05C1980.98 553.032 2799.86 242.004 3514.45 533.485C3880.72 682.887 4136.26 960.026 4260.13 1288.43C4124.11 983.622 3820.81 710.715 3482.17 572.582C2797.11 293.148 2023.81 608.194 1753.08 1271.9C1482.35 1935.6 1814.67 2701.63 2499.72 2981.06Z" fill="url(#paint0_linear_126_69)"/>
<path d="M2960.63 1287C2940.16 1287 2919.69 1280.97 2899.22 1268.92C2849.74 1253.43 2825 1216.41 2825 1157.88C2825 1125.17 2836.09 1099.34 2858.27 1080.41C2882.15 1061.47 2905.19 1052 2927.37 1052C2951.25 1052 2974.28 1056.3 2996.46 1064.91C3040.82 1085.57 3063 1121.73 3063 1173.37C3063 1192.31 3058.73 1211.25 3050.2 1230.19C3033.14 1268.06 3003.29 1287 2960.63 1287Z" fill="#21AF9C"/>
<path d="M2209.6 2417.97C2179.28 2408.51 2155.78 2393.29 2137.49 2369.2C2119.19 2345.11 2112.39 2316.73 2117.79 2281.66C2120.32 2256.19 2125.89 2229.05 2135.24 2197.83C2156.81 2125.79 2193.64 2045.39 2243.4 1955.9C2307.16 1836.64 2382.59 1721.03 2468.07 1605.93C2550.5 1492.5 2629.51 1399.01 2700.43 1324C2714.79 1310.1 2730.05 1301.74 2748.54 1299.63C2767.02 1297.52 2781.74 1299.49 2798.06 1304.59C2826.05 1313.33 2849.55 1328.54 2867.85 1352.63C2886.14 1376.72 2890.61 1404.38 2882.7 1430.79L2874.62 1449.27C2869.41 1458.15 2861.15 1468.7 2850.55 1478.52C2781.79 1546.32 2712.66 1632.39 2641.54 1733.6C2568.09 1834.08 2508.46 1930.99 2458.71 2020.49C2428.35 2079.28 2406.97 2125.12 2396.19 2161.14C2386.12 2194.76 2388.08 2213.75 2401.36 2220.52C2417.69 2225.62 2447.48 2211.29 2493.08 2178.26C2535.63 2146.91 2599.19 2087.98 2682.31 2006.28C2728.46 1962.91 2772.27 1918.83 2816.79 1872.34C2989.7 1695.25 3156.13 1539.78 3313.04 1407.6C3467.62 1274.68 3608.71 1195.32 3732.55 1173.59C3774.9 1168.43 3810.43 1169.02 3838.42 1177.76C3882.74 1191.59 3912.69 1219.33 3922.9 1261.9C3933.11 1304.47 3935.06 1357.59 3925.52 1415C3919.39 1452.48 3905.91 1506.03 3885.77 1573.27L3833.11 1740.63C3802.19 1843.88 3777.37 1943.78 3762.43 2036.27C3745.16 2128.03 3753.38 2185.74 3784.77 2208.66L3794.1 2211.58C3836.09 2224.69 3891.37 2210.43 3958.33 2165.7C4024.57 2123.36 4099.07 2070.47 4178.78 2008.71C4269.8 1934.72 4362.61 1871.8 4453.98 1813.67C4544.63 1757.95 4628.27 1734.17 4701.84 1744.01L4735.22 1751.81C4781.87 1766.37 4814.87 1792.43 4834.95 1827.58C4852.7 1862.01 4862.91 1904.58 4866.29 1952.9C4869.68 2001.22 4870.01 2051.21 4867.29 2102.87C4863.86 2156.94 4865.8 2210.06 4868.47 2260.78C4871.13 2311.5 4881.34 2354.08 4903.04 2392.36C4924.01 2433.04 4959.35 2459.83 5013 2476.57C5075.98 2496.24 5173.24 2495.09 5300.84 2469.29C5427.73 2445.88 5597.16 2391.12 5811.47 2305.74C5828.35 2300.5 5841.45 2299.34 5853.11 2302.98C5871.77 2308.81 5878.22 2321.33 5872.47 2340.54L5869.59 2350.14C5863.67 2361.42 5852.36 2373.64 5834.76 2381.28C5571.45 2485.5 5359.84 2553.35 5201.37 2580.02C5042.9 2606.69 4920.15 2607.76 4833.85 2580.81C4761.54 2558.24 4708.98 2520.82 4678.5 2469.3C4648.02 2417.77 4629.03 2361.95 4624.57 2300.17C4617.78 2237.66 4614.94 2179.01 4615.15 2118.68C4621.12 2039.15 4613.61 1979.04 4597.3 1939.81C4589.23 1924.17 4576.68 1914.99 4562.68 1910.63C4527.69 1899.7 4477.08 1915.41 4411.56 1955.35C4346.04 1995.28 4274.59 2046.5 4197.21 2108.99C4101.52 2181.52 4007.28 2249.25 3911.24 2305.91C3815.2 2362.58 3730.85 2388.76 3657.27 2378.92L3623.9 2371.12C3551.59 2348.55 3511.96 2302.04 3500.33 2230.14C3487.98 2160.65 3494.66 2078.71 3514.27 1987.68C3533.88 1896.65 3556.54 1803.95 3583.14 1715.1C3611.36 1629.39 3630.6 1556.62 3641.58 1494.41C3650.22 1431.46 3640.19 1396.82 3612.2 1388.08C3572.55 1375.71 3507.57 1405.31 3415.66 1473.76C3323.02 1544.62 3219.97 1633.23 3106.5 1739.6C2993.03 1845.96 2884.95 1951.38 2779.19 2057.53C2612.22 2223.33 2496.41 2328.97 2434.12 2375.16C2398.4 2400.77 2360.16 2417.71 2320.14 2423.6C2280.12 2429.49 2242.26 2428.17 2209.6 2417.97Z" fill="url(#paint1_linear_126_69)"/>
<path d="M2209.6 2417.97C2179.28 2408.51 2155.78 2393.29 2137.49 2369.2C2119.19 2345.11 2112.39 2316.73 2117.79 2281.66C2120.32 2256.19 2125.89 2229.05 2135.24 2197.83C2156.81 2125.79 2193.64 2045.39 2243.4 1955.9C2307.16 1836.64 2382.59 1721.03 2468.07 1605.93C2550.5 1492.5 2629.51 1399.01 2700.43 1324C2714.79 1310.1 2730.05 1301.74 2748.54 1299.63C2767.02 1297.52 2781.74 1299.49 2798.06 1304.59C2826.05 1313.33 2849.55 1328.54 2867.85 1352.63C2886.14 1376.72 2890.61 1404.38 2882.7 1430.79L2874.62 1449.27C2869.41 1458.15 2861.15 1468.7 2850.55 1478.52C2781.79 1546.32 2712.66 1632.39 2641.54 1733.6C2568.09 1834.08 2508.46 1930.99 2458.71 2020.49C2428.35 2079.28 2406.97 2125.12 2396.19 2161.14C2386.12 2194.76 2388.08 2213.75 2401.36 2220.52C2417.69 2225.62 2447.48 2211.29 2493.08 2178.26C2535.63 2146.91 2599.19 2087.98 2682.31 2006.28C2728.46 1962.91 2772.27 1918.83 2816.79 1872.34C2989.7 1695.25 3156.13 1539.78 3313.04 1407.6C3467.62 1274.68 3608.71 1195.32 3732.55 1173.59C3774.9 1168.43 3810.43 1169.02 3838.42 1177.76C3882.74 1191.59 3912.69 1219.33 3922.9 1261.9C3933.11 1304.47 3935.06 1357.59 3925.52 1415C3919.39 1452.48 3905.91 1506.03 3885.77 1573.27L3833.11 1740.63C3802.19 1843.88 3777.37 1943.78 3762.43 2036.27C3745.16 2128.03 3753.38 2185.74 3784.77 2208.66L3794.1 2211.58C3836.09 2224.69 3891.37 2210.43 3958.33 2165.7C4024.57 2123.36 4099.07 2070.47 4178.78 2008.71C4269.8 1934.72 4362.61 1871.8 4453.98 1813.67C4544.63 1757.95 4628.27 1734.17 4701.84 1744.01L4735.22 1751.81C4781.87 1766.37 4814.87 1792.43 4834.95 1827.58C4852.7 1862.01 4862.91 1904.58 4866.29 1952.9C4869.68 2001.22 4870.01 2051.21 4867.29 2102.87C4863.86 2156.94 4865.8 2210.06 4868.47 2260.78C4871.13 2311.5 4881.34 2354.08 4903.04 2392.36C4924.01 2433.04 4959.35 2459.83 5013 2476.57C5075.98 2496.24 5173.24 2495.09 5300.84 2469.29C5427.73 2445.88 5597.16 2391.12 5811.47 2305.74C5828.35 2300.5 5841.45 2299.34 5853.11 2302.98C5871.77 2308.81 5878.22 2321.33 5872.47 2340.54L5869.59 2350.14C5863.67 2361.42 5852.36 2373.64 5834.76 2381.28C5571.45 2485.5 5359.84 2553.35 5201.37 2580.02C5042.9 2606.69 4920.15 2607.76 4833.85 2580.81C4761.54 2558.24 4708.98 2520.82 4678.5 2469.3C4648.02 2417.77 4629.03 2361.95 4624.57 2300.17C4617.78 2237.66 4614.94 2179.01 4615.15 2118.68C4621.12 2039.15 4613.61 1979.04 4597.3 1939.81C4589.23 1924.17 4576.68 1914.99 4562.68 1910.63C4527.69 1899.7 4477.08 1915.41 4411.56 1955.35C4346.04 1995.28 4274.59 2046.5 4197.21 2108.99C4101.52 2181.52 4007.28 2249.25 3911.24 2305.91C3815.2 2362.58 3730.85 2388.76 3657.27 2378.92L3623.9 2371.12C3551.59 2348.55 3511.96 2302.04 3500.33 2230.14C3487.98 2160.65 3494.66 2078.71 3514.27 1987.68C3533.88 1896.65 3556.54 1803.95 3583.14 1715.1C3611.36 1629.39 3630.6 1556.62 3641.58 1494.41C3650.22 1431.46 3640.19 1396.82 3612.2 1388.08C3572.55 1375.71 3507.57 1405.31 3415.66 1473.76C3323.02 1544.62 3219.97 1633.23 3106.5 1739.6C2993.03 1845.96 2884.95 1951.38 2779.19 2057.53C2612.22 2223.33 2496.41 2328.97 2434.12 2375.16C2398.4 2400.77 2360.16 2417.71 2320.14 2423.6C2280.12 2429.49 2242.26 2428.17 2209.6 2417.97Z" stroke="black"/>
<path d="M2209.6 2417.97C2179.28 2408.51 2155.78 2393.29 2137.49 2369.2C2119.19 2345.11 2112.39 2316.73 2117.79 2281.66C2120.32 2256.19 2125.89 2229.05 2135.24 2197.83C2156.81 2125.79 2193.64 2045.39 2243.4 1955.9C2307.16 1836.64 2382.59 1721.03 2468.07 1605.93C2550.5 1492.5 2629.51 1399.01 2700.43 1324C2714.79 1310.1 2730.05 1301.74 2748.54 1299.63C2767.02 1297.52 2781.74 1299.49 2798.06 1304.59C2826.05 1313.33 2849.55 1328.54 2867.85 1352.63C2886.14 1376.72 2890.61 1404.38 2882.7 1430.79L2874.62 1449.27C2869.41 1458.15 2861.15 1468.7 2850.55 1478.52C2781.79 1546.32 2712.66 1632.39 2641.54 1733.6C2568.09 1834.08 2508.46 1930.99 2458.71 2020.49C2428.35 2079.28 2406.97 2125.12 2396.19 2161.14C2386.12 2194.76 2388.08 2213.75 2401.36 2220.52C2417.69 2225.62 2447.48 2211.29 2493.08 2178.26C2535.63 2146.91 2599.19 2087.98 2682.31 2006.28C2728.46 1962.91 2772.27 1918.83 2816.79 1872.34C2989.7 1695.25 3156.13 1539.78 3313.04 1407.6C3467.62 1274.68 3608.71 1195.32 3732.55 1173.59C3774.9 1168.43 3810.43 1169.02 3838.42 1177.76C3882.74 1191.59 3912.69 1219.33 3922.9 1261.9C3933.11 1304.47 3935.06 1357.59 3925.52 1415C3919.39 1452.48 3905.91 1506.03 3885.77 1573.27L3833.11 1740.63C3802.19 1843.88 3777.37 1943.78 3762.43 2036.27C3745.16 2128.03 3753.38 2185.74 3784.77 2208.66L3794.1 2211.58C3836.09 2224.69 3891.37 2210.43 3958.33 2165.7C4024.57 2123.36 4099.07 2070.47 4178.78 2008.71C4269.8 1934.72 4362.61 1871.8 4453.98 1813.67C4544.63 1757.95 4628.27 1734.17 4701.84 1744.01L4735.22 1751.81C4781.87 1766.37 4814.87 1792.43 4834.95 1827.58C4852.7 1862.01 4862.91 1904.58 4866.29 1952.9C4869.68 2001.22 4870.01 2051.21 4867.29 2102.87C4863.86 2156.94 4865.8 2210.06 4868.47 2260.78C4871.13 2311.5 4881.34 2354.08 4903.04 2392.36C4924.01 2433.04 4959.35 2459.83 5013 2476.57C5075.98 2496.24 5173.24 2495.09 5300.84 2469.29C5427.73 2445.88 5597.16 2391.12 5811.47 2305.74C5828.35 2300.5 5841.45 2299.34 5853.11 2302.98C5871.77 2308.81 5878.22 2321.33 5872.47 2340.54L5869.59 2350.14C5863.67 2361.42 5852.36 2373.64 5834.76 2381.28C5571.45 2485.5 5359.84 2553.35 5201.37 2580.02C5042.9 2606.69 4920.15 2607.76 4833.85 2580.81C4761.54 2558.24 4708.98 2520.82 4678.5 2469.3C4648.02 2417.77 4629.03 2361.95 4624.57 2300.17C4617.78 2237.66 4614.94 2179.01 4615.15 2118.68C4621.12 2039.15 4613.61 1979.04 4597.3 1939.81C4589.23 1924.17 4576.68 1914.99 4562.68 1910.63C4527.69 1899.7 4477.08 1915.41 4411.56 1955.35C4346.04 1995.28 4274.59 2046.5 4197.21 2108.99C4101.52 2181.52 4007.28 2249.25 3911.24 2305.91C3815.2 2362.58 3730.85 2388.76 3657.27 2378.92L3623.9 2371.12C3551.59 2348.55 3511.96 2302.04 3500.33 2230.14C3487.98 2160.65 3494.66 2078.71 3514.27 1987.68C3533.88 1896.65 3556.54 1803.95 3583.14 1715.1C3611.36 1629.39 3630.6 1556.62 3641.58 1494.41C3650.22 1431.46 3640.19 1396.82 3612.2 1388.08C3572.55 1375.71 3507.57 1405.31 3415.66 1473.76C3323.02 1544.62 3219.97 1633.23 3106.5 1739.6C2993.03 1845.96 2884.95 1951.38 2779.19 2057.53C2612.22 2223.33 2496.41 2328.97 2434.12 2375.16C2398.4 2400.77 2360.16 2417.71 2320.14 2423.6C2280.12 2429.49 2242.26 2428.17 2209.6 2417.97Z" stroke="black" stroke-opacity="0.2"/>
<path d="M316.601 4527.77H319.601V4524.77V3554.85V3551.85H316.601H227.334H224.334V3554.85V4524.77V4527.77H227.334H316.601ZM1484.33 3551.85H1481.33V3554.85V4357.16L905.444 3553.1L904.547 3551.85H903.005H791.966H786.172L789.516 3556.58L847.751 3639V4524.77V4527.77H850.751H871.798H874.798V4524.77V3676.49L1481.89 4526.51L1482.79 4527.77H1484.33H1505.38H1508.38V4524.77V3554.85V3551.85H1505.38H1484.33ZM3467.07 4527.77H3470.29L3470.07 4524.56L3401.12 3554.64L3400.92 3551.85H3398.13H3308.13H3305.89L3305.26 3554L3057.51 4396.58L2764.48 3553.87L2763.78 3551.85H2761.65H2667.3H2664.49L2664.31 3554.66L2601.89 4524.58L2601.69 4527.77H2604.88H2625.93H2628.74L2628.93 4524.96L2687.47 3621.35L2999.03 4525.75L2999.73 4527.77H3001.87H3043.96H3046.21L3046.84 4525.62L3310.68 3629.11L3374.81 4524.98L3375.01 4527.77H3377.81H3467.07ZM4133.99 4487.46L4134 4487.47C4197.39 4523.82 4269.04 4541.97 4348.86 4541.97C4428.68 4541.97 4500.33 4523.82 4563.72 4487.47C4627.2 4451.06 4677.18 4395.79 4713.7 4321.83L4713.7 4321.83C4750.25 4247.34 4768.44 4153.51 4768.44 4040.49C4768.44 3927.91 4750.25 3834.53 4713.7 3760.5C4677.19 3686.09 4627.21 3630.59 4563.72 3594.18C4500.33 3557.38 4428.68 3539 4348.86 3539C4269.03 3539 4197.38 3557.38 4133.99 3594.19C4070.99 3630.6 4021.26 3686.09 3984.74 3760.49C3948.19 3834.53 3930 3927.91 3930 4040.49C3930 4153.51 3948.19 4247.34 3984.74 4321.83L3984.74 4321.83C4021.26 4395.79 4070.99 4451.05 4133.99 4487.46ZM4629.78 4297.9L4629.78 4297.91C4606.21 4368.74 4570.93 4422.99 4524.05 4460.89C4477.26 4498.26 4418.93 4517.03 4348.86 4517.03C4278.78 4517.03 4220.45 4498.26 4173.65 4460.87C4126.78 4422.98 4091.5 4368.73 4067.94 4297.91C4044.36 4226.6 4032.53 4140.82 4032.53 4040.49C4032.53 3940.6 4044.36 3855.27 4067.94 3784.41L4067.94 3784.41C4091.51 3713.13 4126.79 3658.88 4173.65 3621.45L4173.65 3621.44L4173.66 3621.44C4220.46 3583.61 4278.79 3564.61 4348.86 3564.61C4418.92 3564.61 4477.25 3583.61 4524.05 3621.44L4524.06 3621.44L4524.07 3621.45C4570.93 3658.88 4606.21 3713.13 4629.78 3784.41L4629.78 3784.42L4629.78 3784.43C4653.84 3855.28 4665.91 3940.61 4665.91 4040.49C4665.91 4140.81 4653.84 4226.6 4629.78 4297.9ZM5584.08 4527.77H5586.21L5586.91 4525.76L5925.84 3555.84L5927.23 3551.85H5923.01H5901.96H5899.83L5899.13 3553.86L5607.24 4388.04L5300.95 3553.82L5300.23 3551.85H5298.14H5197.98H5193.69L5195.17 3555.88L5550.78 4525.8L5551.5 4527.77H5553.6H5584.08ZM6942.05 4030.34V4027.34H6939.05H6487.01V3577.47H6975.34H6978.34V3574.47V3554.85V3551.85H6975.34H6394.74H6391.74V3554.85V4524.77V4527.77H6394.74H6989.86H6992.86V4524.77V4505.15V4502.15H6989.86H6487.01V4052.96H6939.05H6942.05V4049.96V4030.34Z" fill="#D1126B" stroke="#D1126B" stroke-width="6"/>
<mask id="path-5-outside-1_126_69" maskUnits="userSpaceOnUse" x="0" y="5029.68" width="7220" height="323" fill="black">
<rect fill="white" y="5029.68" width="7220" height="323"/>
<path d="M133.302 5050.22H19.3497V5167.97H112.989V5183.2H19.3497V5346.66H3V5034.52H133.302V5050.22Z"/>
<path d="M298.521 5346.66H282.171V5034.52H298.521V5346.66Z"/>
<path d="M532.142 5181.82C540.399 5187.98 548.492 5194.44 556.419 5201.21C564.676 5207.68 571.943 5214.91 578.218 5222.91C584.824 5230.61 590.109 5239.38 594.073 5249.23C598.036 5258.77 600.018 5269.7 600.018 5282.02C600.018 5291.25 598.036 5300.02 594.073 5308.33C590.439 5316.34 585.32 5323.42 578.714 5329.57C572.438 5335.42 565.007 5340.19 556.419 5343.89C547.831 5347.27 538.583 5348.97 528.674 5348.97C518.765 5348.97 509.352 5347.27 500.434 5343.89C491.846 5340.19 484.249 5335.42 477.643 5329.57C471.368 5323.42 466.248 5316.34 462.284 5308.33C458.651 5300.02 456.835 5291.25 456.835 5282.02H473.184C473.184 5289.1 474.671 5295.87 477.643 5302.33C480.616 5308.49 484.579 5313.88 489.534 5318.49C494.488 5323.11 500.268 5326.8 506.874 5329.57C513.811 5332.34 521.077 5333.73 528.674 5333.73C536.271 5333.73 543.372 5332.34 549.978 5329.57C556.584 5326.8 562.364 5323.11 567.319 5318.49C572.273 5313.88 576.237 5308.49 579.209 5302.33C582.182 5295.87 583.668 5289.1 583.668 5282.02C583.668 5271.55 581.852 5262.16 578.218 5253.85C574.915 5245.54 570.291 5238 564.346 5231.22C558.731 5224.14 552.125 5217.68 544.528 5211.83C537.262 5205.68 529.665 5199.67 521.738 5193.82C513.811 5187.98 505.884 5181.97 497.956 5175.82C490.36 5169.35 483.423 5162.43 477.148 5155.04C471.202 5147.65 466.248 5139.49 462.284 5130.57C458.651 5121.64 456.835 5111.33 456.835 5099.63C456.835 5090.39 458.651 5081.78 462.284 5073.77C466.248 5065.46 471.368 5058.38 477.643 5052.53C484.249 5046.38 491.846 5041.6 500.434 5038.22C509.352 5034.52 518.765 5032.68 528.674 5032.68C538.583 5032.68 547.831 5034.52 556.419 5038.22C565.007 5041.6 572.438 5046.38 578.714 5052.53C585.32 5058.38 590.439 5065.46 594.073 5073.77C598.036 5081.78 600.018 5090.39 600.018 5099.63H583.668C583.668 5092.55 582.182 5085.93 579.209 5079.77C576.237 5073.62 572.273 5068.23 567.319 5063.61C562.364 5059 556.584 5055.3 549.978 5052.53C543.372 5049.76 536.271 5048.38 528.674 5048.38C521.077 5048.38 513.811 5049.76 506.874 5052.53C500.268 5055.3 494.488 5059 489.534 5063.61C484.579 5068.23 480.616 5073.62 477.643 5079.77C474.671 5085.93 473.184 5092.55 473.184 5099.63C473.184 5109.48 474.836 5118.25 478.139 5125.95C481.442 5133.34 485.735 5140.26 491.02 5146.73C496.635 5153.19 502.911 5159.35 509.847 5165.2C517.114 5170.74 524.545 5176.28 532.142 5181.82Z"/>
<path d="M775.095 5346.66H758.746V5034.52H775.095V5346.66Z"/>
<path d="M1005.25 5348.97C995.34 5348.97 985.926 5347.27 977.008 5343.89C968.421 5340.19 960.824 5335.42 954.218 5329.57C947.942 5323.42 942.823 5316.34 938.859 5308.33C935.226 5300.02 933.409 5291.25 933.409 5282.02V5099.63C933.409 5090.39 935.226 5081.78 938.859 5073.77C942.823 5065.46 947.942 5058.38 954.218 5052.53C960.824 5046.38 968.421 5041.6 977.008 5038.22C985.926 5034.52 995.34 5032.68 1005.25 5032.68C1015.16 5032.68 1024.41 5034.52 1032.99 5038.22C1041.58 5041.6 1049.01 5046.38 1055.29 5052.53C1061.89 5058.38 1067.01 5065.46 1070.65 5073.77C1074.61 5081.78 1076.59 5090.39 1076.59 5099.63V5282.02C1076.59 5291.25 1074.61 5300.02 1070.65 5308.33C1067.01 5316.34 1061.89 5323.42 1055.29 5329.57C1049.01 5335.42 1041.58 5340.19 1032.99 5343.89C1024.41 5347.27 1015.16 5348.97 1005.25 5348.97ZM1005.25 5048.38C997.652 5048.38 990.385 5049.76 983.449 5052.53C976.843 5055.3 971.063 5059 966.109 5063.61C961.154 5068.23 957.19 5073.62 954.218 5079.77C951.245 5085.93 949.759 5092.55 949.759 5099.63V5282.02C949.759 5289.1 951.245 5295.87 954.218 5302.33C957.19 5308.49 961.154 5313.88 966.109 5318.49C971.063 5323.11 976.843 5326.8 983.449 5329.57C990.385 5332.34 997.652 5333.73 1005.25 5333.73C1012.85 5333.73 1019.95 5332.34 1026.55 5329.57C1033.16 5326.8 1038.94 5323.11 1043.89 5318.49C1048.85 5313.88 1052.81 5308.49 1055.78 5302.33C1058.76 5295.87 1060.24 5289.1 1060.24 5282.02V5099.63C1060.24 5092.55 1058.76 5085.93 1055.78 5079.77C1052.81 5073.62 1048.85 5068.23 1043.89 5063.61C1038.94 5059 1033.16 5055.3 1026.55 5052.53C1019.95 5049.76 1012.85 5048.38 1005.25 5048.38Z"/>
<path d="M1365.62 5034.52V5050.22H1298.74V5346.66H1282.39V5050.22H1215.5V5034.52H1365.62Z"/>
<path d="M1639.47 5050.22H1525.52V5167.97H1619.16V5183.2H1525.52V5331.42H1639.47V5346.66H1509.17V5034.52H1639.47V5050.22Z"/>
<path d="M1845.32 5215.06H1804.69V5346.66H1788.34V5034.52H1848.78C1858.69 5034.52 1867.94 5036.22 1876.53 5039.6C1885.45 5042.99 1893.04 5047.76 1899.32 5053.92C1905.93 5059.77 1911.05 5066.69 1914.68 5074.7C1918.64 5082.7 1920.62 5091.32 1920.62 5100.55V5149.04C1920.62 5157.04 1919.14 5164.58 1916.17 5171.66C1913.19 5178.74 1909.06 5185.2 1903.78 5191.05C1898.49 5196.9 1892.38 5201.83 1885.45 5205.83C1878.51 5209.52 1870.91 5212.14 1862.66 5213.68L1923.1 5346.66H1905.27L1845.32 5215.06ZM1804.69 5199.83H1848.78C1856.38 5199.83 1863.48 5198.6 1870.09 5196.13C1876.69 5193.36 1882.47 5189.67 1887.43 5185.05C1892.38 5180.43 1896.35 5175.05 1899.32 5168.89C1902.29 5162.73 1903.78 5156.12 1903.78 5149.04V5100.55C1903.78 5093.78 1902.29 5087.32 1899.32 5081.16C1896.35 5075 1892.38 5069.62 1887.43 5065C1882.47 5060.38 1876.69 5056.69 1870.09 5053.92C1863.48 5051.15 1856.38 5049.76 1848.78 5049.76H1804.69V5199.83Z"/>
<path d="M2231.17 5346.66L2207.88 5248.77H2111.76L2088.48 5346.66H2071.63L2145.95 5034.52H2173.7L2248.01 5346.66H2231.17ZM2115.23 5233.53H2204.41L2159.82 5046.99L2115.23 5233.53Z"/>
<path d="M2457.08 5034.52C2466.99 5034.52 2476.07 5036.37 2484.33 5040.07C2492.92 5043.45 2500.35 5048.22 2506.62 5054.38C2513.23 5060.23 2518.35 5067.15 2521.98 5075.16C2525.61 5083.16 2527.43 5091.63 2527.43 5100.55V5164.27C2527.43 5173.2 2525.61 5181.51 2521.98 5189.21C2518.68 5196.9 2513.89 5203.67 2507.61 5209.52C2501.67 5215.37 2494.57 5220.14 2486.31 5223.84C2478.38 5227.53 2469.79 5229.69 2460.55 5230.3H2408.03V5346.66H2391.68V5034.52H2457.08ZM2511.08 5100.55C2511.08 5093.78 2509.6 5087.32 2506.62 5081.16C2503.65 5075 2499.69 5069.62 2494.73 5065C2489.78 5060.38 2484 5056.69 2477.39 5053.92C2470.79 5051.15 2463.68 5049.76 2456.09 5049.76H2408.03V5215.06H2457.08C2464.67 5215.06 2471.78 5213.68 2478.38 5210.91C2484.99 5208.14 2490.6 5204.44 2495.23 5199.83C2500.18 5195.21 2503.98 5189.98 2506.62 5184.13C2509.6 5177.97 2511.08 5171.35 2511.08 5164.27V5100.55Z"/>
<path d="M2702.2 5346.66H2685.85V5034.52H2702.2V5346.66Z"/>
<path d="M3010.14 5346.66L2986.85 5248.77H2890.73L2867.45 5346.66H2850.6L2924.92 5034.52H2952.67L3026.98 5346.66H3010.14ZM2894.2 5233.53H2983.38L2938.79 5046.99L2894.2 5233.53Z"/>
<path d="M3501.74 5050.22H3387.79V5167.97H3481.43V5183.2H3387.79V5331.42H3501.74V5346.66H3371.44V5034.52H3501.74V5050.22Z"/>
<path d="M4033.23 5034.52H4050.07V5346.66H4033.72V5077.93L3950.98 5289.87L3867.75 5077.93V5346.66H3851.4V5034.52H3868.25L3950.98 5245.08L4033.23 5034.52Z"/>
<path d="M4358.09 5346.66L4334.81 5248.77H4238.69L4215.41 5346.66H4198.56L4272.88 5034.52H4300.62L4374.94 5346.66H4358.09ZM4242.16 5233.53H4331.34L4286.75 5046.99L4242.16 5233.53Z"/>
<path d="M4593.91 5181.82C4602.17 5187.98 4610.26 5194.44 4618.19 5201.21C4626.45 5207.68 4633.71 5214.91 4639.99 5222.91C4646.6 5230.61 4651.88 5239.38 4655.84 5249.23C4659.81 5258.77 4661.79 5269.7 4661.79 5282.02C4661.79 5291.25 4659.81 5300.02 4655.84 5308.33C4652.21 5316.34 4647.09 5323.42 4640.48 5329.57C4634.21 5335.42 4626.78 5340.19 4618.19 5343.89C4609.6 5347.27 4600.35 5348.97 4590.44 5348.97C4580.54 5348.97 4571.12 5347.27 4562.2 5343.89C4553.62 5340.19 4546.02 5335.42 4539.41 5329.57C4533.14 5323.42 4528.02 5316.34 4524.06 5308.33C4520.42 5300.02 4518.61 5291.25 4518.61 5282.02H4534.95C4534.95 5289.1 4536.44 5295.87 4539.41 5302.33C4542.39 5308.49 4546.35 5313.88 4551.3 5318.49C4556.26 5323.11 4562.04 5326.8 4568.65 5329.57C4575.58 5332.34 4582.85 5333.73 4590.44 5333.73C4598.04 5333.73 4605.14 5332.34 4611.75 5329.57C4618.35 5326.8 4624.13 5323.11 4629.09 5318.49C4634.04 5313.88 4638.01 5308.49 4640.98 5302.33C4643.95 5295.87 4645.44 5289.1 4645.44 5282.02C4645.44 5271.55 4643.62 5262.16 4639.99 5253.85C4636.69 5245.54 4632.06 5238 4626.12 5231.22C4620.5 5224.14 4613.9 5217.68 4606.3 5211.83C4599.03 5205.68 4591.44 5199.67 4583.51 5193.82C4575.58 5187.98 4567.65 5181.97 4559.73 5175.82C4552.13 5169.35 4545.19 5162.43 4538.92 5155.04C4532.97 5147.65 4528.02 5139.49 4524.06 5130.57C4520.42 5121.64 4518.61 5111.33 4518.61 5099.63C4518.61 5090.39 4520.42 5081.78 4524.06 5073.77C4528.02 5065.46 4533.14 5058.38 4539.41 5052.53C4546.02 5046.38 4553.62 5041.6 4562.2 5038.22C4571.12 5034.52 4580.54 5032.68 4590.44 5032.68C4600.35 5032.68 4609.6 5034.52 4618.19 5038.22C4626.78 5041.6 4634.21 5046.38 4640.48 5052.53C4647.09 5058.38 4652.21 5065.46 4655.84 5073.77C4659.81 5081.78 4661.79 5090.39 4661.79 5099.63H4645.44C4645.44 5092.55 4643.95 5085.93 4640.98 5079.77C4638.01 5073.62 4634.04 5068.23 4629.09 5063.61C4624.13 5059 4618.35 5055.3 4611.75 5052.53C4605.14 5049.76 4598.04 5048.38 4590.44 5048.38C4582.85 5048.38 4575.58 5049.76 4568.65 5052.53C4562.04 5055.3 4556.26 5059 4551.3 5063.61C4546.35 5068.23 4542.39 5073.62 4539.41 5079.77C4536.44 5085.93 4534.95 5092.55 4534.95 5099.63C4534.95 5109.48 4536.61 5118.25 4539.91 5125.95C4543.21 5133.34 4547.51 5140.26 4552.79 5146.73C4558.41 5153.19 4564.68 5159.35 4571.62 5165.2C4578.88 5170.74 4586.32 5176.28 4593.91 5181.82Z"/>
<path d="M4895.82 5181.82C4904.08 5187.98 4912.17 5194.44 4920.1 5201.21C4928.36 5207.68 4935.62 5214.91 4941.9 5222.91C4948.51 5230.61 4953.79 5239.38 4957.75 5249.23C4961.72 5258.77 4963.7 5269.7 4963.7 5282.02C4963.7 5291.25 4961.72 5300.02 4957.75 5308.33C4954.12 5316.34 4949 5323.42 4942.4 5329.57C4936.12 5335.42 4928.69 5340.19 4920.1 5343.89C4911.51 5347.27 4902.26 5348.97 4892.36 5348.97C4882.45 5348.97 4873.03 5347.27 4864.12 5343.89C4855.53 5340.19 4847.93 5335.42 4841.33 5329.57C4835.05 5323.42 4829.93 5316.34 4825.97 5308.33C4822.33 5300.02 4820.52 5291.25 4820.52 5282.02H4836.87C4836.87 5289.1 4838.35 5295.87 4841.33 5302.33C4844.3 5308.49 4848.26 5313.88 4853.22 5318.49C4858.17 5323.11 4863.95 5326.8 4870.56 5329.57C4877.49 5332.34 4884.76 5333.73 4892.36 5333.73C4899.95 5333.73 4907.05 5332.34 4913.66 5329.57C4920.27 5326.8 4926.05 5323.11 4931 5318.49C4935.95 5313.88 4939.92 5308.49 4942.89 5302.33C4945.86 5295.87 4947.35 5289.1 4947.35 5282.02C4947.35 5271.55 4945.53 5262.16 4941.9 5253.85C4938.6 5245.54 4933.97 5238 4928.03 5231.22C4922.41 5224.14 4915.81 5217.68 4908.21 5211.83C4900.94 5205.68 4893.35 5199.67 4885.42 5193.82C4877.49 5187.98 4869.57 5181.97 4861.64 5175.82C4854.04 5169.35 4847.11 5162.43 4840.83 5155.04C4834.88 5147.65 4829.93 5139.49 4825.97 5130.57C4822.33 5121.64 4820.52 5111.33 4820.52 5099.63C4820.52 5090.39 4822.33 5081.78 4825.97 5073.77C4829.93 5065.46 4835.05 5058.38 4841.33 5052.53C4847.93 5046.38 4855.53 5041.6 4864.12 5038.22C4873.03 5034.52 4882.45 5032.68 4892.36 5032.68C4902.26 5032.68 4911.51 5034.52 4920.1 5038.22C4928.69 5041.6 4936.12 5046.38 4942.4 5052.53C4949 5058.38 4954.12 5065.46 4957.75 5073.77C4961.72 5081.78 4963.7 5090.39 4963.7 5099.63H4947.35C4947.35 5092.55 4945.86 5085.93 4942.89 5079.77C4939.92 5073.62 4935.95 5068.23 4931 5063.61C4926.05 5059 4920.27 5055.3 4913.66 5052.53C4907.05 5049.76 4899.95 5048.38 4892.36 5048.38C4884.76 5048.38 4877.49 5049.76 4870.56 5052.53C4863.95 5055.3 4858.17 5059 4853.22 5063.61C4848.26 5068.23 4844.3 5073.62 4841.33 5079.77C4838.35 5085.93 4836.87 5092.55 4836.87 5099.63C4836.87 5109.48 4838.52 5118.25 4841.82 5125.95C4845.12 5133.34 4849.42 5140.26 4854.7 5146.73C4860.32 5153.19 4866.59 5159.35 4873.53 5165.2C4880.8 5170.74 4888.23 5176.28 4895.82 5181.82Z"/>
<path d="M5194.27 5348.97C5184.36 5348.97 5174.95 5347.27 5166.03 5343.89C5157.44 5340.19 5149.84 5335.42 5143.24 5329.57C5136.96 5323.42 5131.84 5316.34 5127.88 5308.33C5124.24 5300.02 5122.43 5291.25 5122.43 5282.02V5099.63C5122.43 5090.39 5124.24 5081.78 5127.88 5073.77C5131.84 5065.46 5136.96 5058.38 5143.24 5052.53C5149.84 5046.38 5157.44 5041.6 5166.03 5038.22C5174.95 5034.52 5184.36 5032.68 5194.27 5032.68C5204.18 5032.68 5213.42 5034.52 5222.01 5038.22C5230.6 5041.6 5238.03 5046.38 5244.31 5052.53C5250.91 5058.38 5256.03 5065.46 5259.67 5073.77C5263.63 5081.78 5265.61 5090.39 5265.61 5099.63V5282.02C5265.61 5291.25 5263.63 5300.02 5259.67 5308.33C5256.03 5316.34 5250.91 5323.42 5244.31 5329.57C5238.03 5335.42 5230.6 5340.19 5222.01 5343.89C5213.42 5347.27 5204.18 5348.97 5194.27 5348.97ZM5194.27 5048.38C5186.67 5048.38 5179.4 5049.76 5172.47 5052.53C5165.86 5055.3 5160.08 5059 5155.13 5063.61C5150.17 5068.23 5146.21 5073.62 5143.24 5079.77C5140.26 5085.93 5138.78 5092.55 5138.78 5099.63V5282.02C5138.78 5289.1 5140.26 5295.87 5143.24 5302.33C5146.21 5308.49 5150.17 5313.88 5155.13 5318.49C5160.08 5323.11 5165.86 5326.8 5172.47 5329.57C5179.4 5332.34 5186.67 5333.73 5194.27 5333.73C5201.86 5333.73 5208.97 5332.34 5215.57 5329.57C5222.18 5326.8 5227.96 5323.11 5232.91 5318.49C5237.87 5313.88 5241.83 5308.49 5244.8 5302.33C5247.77 5295.87 5249.26 5289.1 5249.26 5282.02V5099.63C5249.26 5092.55 5247.77 5085.93 5244.8 5079.77C5241.83 5073.62 5237.87 5068.23 5232.91 5063.61C5227.96 5059 5222.18 5055.3 5215.57 5052.53C5208.97 5049.76 5201.86 5048.38 5194.27 5048.38Z"/>
<path d="M5554.64 5034.52V5050.22H5487.76V5346.66H5471.41V5050.22H5404.52V5034.52H5554.64Z"/>
<path d="M5828.49 5050.22H5714.54V5167.97H5808.18V5183.2H5714.54V5331.42H5828.49V5346.66H5698.19V5034.52H5828.49V5050.22Z"/>
<path d="M6034.34 5215.06H5993.71V5346.66H5977.36V5034.52H6037.8C6047.71 5034.52 6056.96 5036.22 6065.55 5039.6C6074.47 5042.99 6082.06 5047.76 6088.34 5053.92C6094.94 5059.77 6100.06 5066.69 6103.7 5074.7C6107.66 5082.7 6109.64 5091.32 6109.64 5100.55V5149.04C6109.64 5157.04 6108.16 5164.58 6105.18 5171.66C6102.21 5178.74 6098.08 5185.2 6092.8 5191.05C6087.51 5196.9 6081.4 5201.83 6074.47 5205.83C6067.53 5209.52 6059.93 5212.14 6051.68 5213.68L6112.12 5346.66H6094.28L6034.34 5215.06ZM5993.71 5199.83H6037.8C6045.4 5199.83 6052.5 5198.6 6059.11 5196.13C6065.71 5193.36 6071.49 5189.67 6076.45 5185.05C6081.4 5180.43 6085.37 5175.05 6088.34 5168.89C6091.31 5162.73 6092.8 5156.12 6092.8 5149.04V5100.55C6092.8 5093.78 6091.31 5087.32 6088.34 5081.16C6085.37 5075 6081.4 5069.62 6076.45 5065C6071.49 5060.38 6065.71 5056.69 6059.11 5053.92C6052.5 5051.15 6045.4 5049.76 6037.8 5049.76H5993.71V5199.83Z"/>
<path d="M6420.19 5346.66L6396.9 5248.77H6300.78L6277.5 5346.66H6260.65L6334.97 5034.52H6362.71L6437.03 5346.66H6420.19ZM6304.25 5233.53H6393.43L6348.84 5046.99L6304.25 5233.53Z"/>
<path d="M6646.1 5034.52C6656.01 5034.52 6665.09 5036.37 6673.35 5040.07C6681.93 5043.45 6689.37 5048.22 6695.64 5054.38C6702.25 5060.23 6707.37 5067.15 6711 5075.16C6714.63 5083.16 6716.45 5091.63 6716.45 5100.55V5164.27C6716.45 5173.2 6714.63 5181.51 6711 5189.21C6707.7 5196.9 6702.91 5203.67 6696.63 5209.52C6690.69 5215.37 6683.58 5220.14 6675.33 5223.84C6667.4 5227.53 6658.81 5229.69 6649.56 5230.3H6597.05V5346.66H6580.7V5034.52H6646.1ZM6700.1 5100.55C6700.1 5093.78 6698.61 5087.32 6695.64 5081.16C6692.67 5075 6688.7 5069.62 6683.75 5065C6678.8 5060.38 6673.02 5056.69 6666.41 5053.92C6659.8 5051.15 6652.7 5049.76 6645.11 5049.76H6597.05V5215.06H6646.1C6653.69 5215.06 6660.79 5213.68 6667.4 5210.91C6674.01 5208.14 6679.62 5204.44 6684.25 5199.83C6689.2 5195.21 6693 5189.98 6695.64 5184.13C6698.61 5177.97 6700.1 5171.35 6700.1 5164.27V5100.55Z"/>
<path d="M6891.22 5346.66H6874.87V5034.52H6891.22V5346.66Z"/>
<path d="M7199.16 5346.66L7175.87 5248.77H7079.75L7056.47 5346.66H7039.62L7113.94 5034.52H7141.68L7216 5346.66H7199.16ZM7083.22 5233.53H7172.4L7127.81 5046.99L7083.22 5233.53Z"/>
</mask>
<path d="M133.302 5050.22H19.3497V5167.97H112.989V5183.2H19.3497V5346.66H3V5034.52H133.302V5050.22Z" fill="#21AF9C"/>
<path d="M298.521 5346.66H282.171V5034.52H298.521V5346.66Z" fill="#21AF9C"/>
<path d="M532.142 5181.82C540.399 5187.98 548.492 5194.44 556.419 5201.21C564.676 5207.68 571.943 5214.91 578.218 5222.91C584.824 5230.61 590.109 5239.38 594.073 5249.23C598.036 5258.77 600.018 5269.7 600.018 5282.02C600.018 5291.25 598.036 5300.02 594.073 5308.33C590.439 5316.34 585.32 5323.42 578.714 5329.57C572.438 5335.42 565.007 5340.19 556.419 5343.89C547.831 5347.27 538.583 5348.97 528.674 5348.97C518.765 5348.97 509.352 5347.27 500.434 5343.89C491.846 5340.19 484.249 5335.42 477.643 5329.57C471.368 5323.42 466.248 5316.34 462.284 5308.33C458.651 5300.02 456.835 5291.25 456.835 5282.02H473.184C473.184 5289.1 474.671 5295.87 477.643 5302.33C480.616 5308.49 484.579 5313.88 489.534 5318.49C494.488 5323.11 500.268 5326.8 506.874 5329.57C513.811 5332.34 521.077 5333.73 528.674 5333.73C536.271 5333.73 543.372 5332.34 549.978 5329.57C556.584 5326.8 562.364 5323.11 567.319 5318.49C572.273 5313.88 576.237 5308.49 579.209 5302.33C582.182 5295.87 583.668 5289.1 583.668 5282.02C583.668 5271.55 581.852 5262.16 578.218 5253.85C574.915 5245.54 570.291 5238 564.346 5231.22C558.731 5224.14 552.125 5217.68 544.528 5211.83C537.262 5205.68 529.665 5199.67 521.738 5193.82C513.811 5187.98 505.884 5181.97 497.956 5175.82C490.36 5169.35 483.423 5162.43 477.148 5155.04C471.202 5147.65 466.248 5139.49 462.284 5130.57C458.651 5121.64 456.835 5111.33 456.835 5099.63C456.835 5090.39 458.651 5081.78 462.284 5073.77C466.248 5065.46 471.368 5058.38 477.643 5052.53C484.249 5046.38 491.846 5041.6 500.434 5038.22C509.352 5034.52 518.765 5032.68 528.674 5032.68C538.583 5032.68 547.831 5034.52 556.419 5038.22C565.007 5041.6 572.438 5046.38 578.714 5052.53C585.32 5058.38 590.439 5065.46 594.073 5073.77C598.036 5081.78 600.018 5090.39 600.018 5099.63H583.668C583.668 5092.55 582.182 5085.93 579.209 5079.77C576.237 5073.62 572.273 5068.23 567.319 5063.61C562.364 5059 556.584 5055.3 549.978 5052.53C543.372 5049.76 536.271 5048.38 528.674 5048.38C521.077 5048.38 513.811 5049.76 506.874 5052.53C500.268 5055.3 494.488 5059 489.534 5063.61C484.579 5068.23 480.616 5073.62 477.643 5079.77C474.671 5085.93 473.184 5092.55 473.184 5099.63C473.184 5109.48 474.836 5118.25 478.139 5125.95C481.442 5133.34 485.735 5140.26 491.02 5146.73C496.635 5153.19 502.911 5159.35 509.847 5165.2C517.114 5170.74 524.545 5176.28 532.142 5181.82Z" fill="#21AF9C"/>
<path d="M775.095 5346.66H758.746V5034.52H775.095V5346.66Z" fill="#21AF9C"/>
<path d="M1005.25 5348.97C995.34 5348.97 985.926 5347.27 977.008 5343.89C968.421 5340.19 960.824 5335.42 954.218 5329.57C947.942 5323.42 942.823 5316.34 938.859 5308.33C935.226 5300.02 933.409 5291.25 933.409 5282.02V5099.63C933.409 5090.39 935.226 5081.78 938.859 5073.77C942.823 5065.46 947.942 5058.38 954.218 5052.53C960.824 5046.38 968.421 5041.6 977.008 5038.22C985.926 5034.52 995.34 5032.68 1005.25 5032.68C1015.16 5032.68 1024.41 5034.52 1032.99 5038.22C1041.58 5041.6 1049.01 5046.38 1055.29 5052.53C1061.89 5058.38 1067.01 5065.46 1070.65 5073.77C1074.61 5081.78 1076.59 5090.39 1076.59 5099.63V5282.02C1076.59 5291.25 1074.61 5300.02 1070.65 5308.33C1067.01 5316.34 1061.89 5323.42 1055.29 5329.57C1049.01 5335.42 1041.58 5340.19 1032.99 5343.89C1024.41 5347.27 1015.16 5348.97 1005.25 5348.97ZM1005.25 5048.38C997.652 5048.38 990.385 5049.76 983.449 5052.53C976.843 5055.3 971.063 5059 966.109 5063.61C961.154 5068.23 957.19 5073.62 954.218 5079.77C951.245 5085.93 949.759 5092.55 949.759 5099.63V5282.02C949.759 5289.1 951.245 5295.87 954.218 5302.33C957.19 5308.49 961.154 5313.88 966.109 5318.49C971.063 5323.11 976.843 5326.8 983.449 5329.57C990.385 5332.34 997.652 5333.73 1005.25 5333.73C1012.85 5333.73 1019.95 5332.34 1026.55 5329.57C1033.16 5326.8 1038.94 5323.11 1043.89 5318.49C1048.85 5313.88 1052.81 5308.49 1055.78 5302.33C1058.76 5295.87 1060.24 5289.1 1060.24 5282.02V5099.63C1060.24 5092.55 1058.76 5085.93 1055.78 5079.77C1052.81 5073.62 1048.85 5068.23 1043.89 5063.61C1038.94 5059 1033.16 5055.3 1026.55 5052.53C1019.95 5049.76 1012.85 5048.38 1005.25 5048.38Z" fill="#21AF9C"/>
<path d="M1365.62 5034.52V5050.22H1298.74V5346.66H1282.39V5050.22H1215.5V5034.52H1365.62Z" fill="#21AF9C"/>
<path d="M1639.47 5050.22H1525.52V5167.97H1619.16V5183.2H1525.52V5331.42H1639.47V5346.66H1509.17V5034.52H1639.47V5050.22Z" fill="#21AF9C"/>
<path d="M1845.32 5215.06H1804.69V5346.66H1788.34V5034.52H1848.78C1858.69 5034.52 1867.94 5036.22 1876.53 5039.6C1885.45 5042.99 1893.04 5047.76 1899.32 5053.92C1905.93 5059.77 1911.05 5066.69 1914.68 5074.7C1918.64 5082.7 1920.62 5091.32 1920.62 5100.55V5149.04C1920.62 5157.04 1919.14 5164.58 1916.17 5171.66C1913.19 5178.74 1909.06 5185.2 1903.78 5191.05C1898.49 5196.9 1892.38 5201.83 1885.45 5205.83C1878.51 5209.52 1870.91 5212.14 1862.66 5213.68L1923.1 5346.66H1905.27L1845.32 5215.06ZM1804.69 5199.83H1848.78C1856.38 5199.83 1863.48 5198.6 1870.09 5196.13C1876.69 5193.36 1882.47 5189.67 1887.43 5185.05C1892.38 5180.43 1896.35 5175.05 1899.32 5168.89C1902.29 5162.73 1903.78 5156.12 1903.78 5149.04V5100.55C1903.78 5093.78 1902.29 5087.32 1899.32 5081.16C1896.35 5075 1892.38 5069.62 1887.43 5065C1882.47 5060.38 1876.69 5056.69 1870.09 5053.92C1863.48 5051.15 1856.38 5049.76 1848.78 5049.76H1804.69V5199.83Z" fill="#21AF9C"/>
<path d="M2231.17 5346.66L2207.88 5248.77H2111.76L2088.48 5346.66H2071.63L2145.95 5034.52H2173.7L2248.01 5346.66H2231.17ZM2115.23 5233.53H2204.41L2159.82 5046.99L2115.23 5233.53Z" fill="#21AF9C"/>
<path d="M2457.08 5034.52C2466.99 5034.52 2476.07 5036.37 2484.33 5040.07C2492.92 5043.45 2500.35 5048.22 2506.62 5054.38C2513.23 5060.23 2518.35 5067.15 2521.98 5075.16C2525.61 5083.16 2527.43 5091.63 2527.43 5100.55V5164.27C2527.43 5173.2 2525.61 5181.51 2521.98 5189.21C2518.68 5196.9 2513.89 5203.67 2507.61 5209.52C2501.67 5215.37 2494.57 5220.14 2486.31 5223.84C2478.38 5227.53 2469.79 5229.69 2460.55 5230.3H2408.03V5346.66H2391.68V5034.52H2457.08ZM2511.08 5100.55C2511.08 5093.78 2509.6 5087.32 2506.62 5081.16C2503.65 5075 2499.69 5069.62 2494.73 5065C2489.78 5060.38 2484 5056.69 2477.39 5053.92C2470.79 5051.15 2463.68 5049.76 2456.09 5049.76H2408.03V5215.06H2457.08C2464.67 5215.06 2471.78 5213.68 2478.38 5210.91C2484.99 5208.14 2490.6 5204.44 2495.23 5199.83C2500.18 5195.21 2503.98 5189.98 2506.62 5184.13C2509.6 5177.97 2511.08 5171.35 2511.08 5164.27V5100.55Z" fill="#21AF9C"/>
<path d="M2702.2 5346.66H2685.85V5034.52H2702.2V5346.66Z" fill="#21AF9C"/>
<path d="M3010.14 5346.66L2986.85 5248.77H2890.73L2867.45 5346.66H2850.6L2924.92 5034.52H2952.67L3026.98 5346.66H3010.14ZM2894.2 5233.53H2983.38L2938.79 5046.99L2894.2 5233.53Z" fill="#21AF9C"/>
<path d="M3501.74 5050.22H3387.79V5167.97H3481.43V5183.2H3387.79V5331.42H3501.74V5346.66H3371.44V5034.52H3501.74V5050.22Z" fill="#21AF9C"/>
<path d="M4033.23 5034.52H4050.07V5346.66H4033.72V5077.93L3950.98 5289.87L3867.75 5077.93V5346.66H3851.4V5034.52H3868.25L3950.98 5245.08L4033.23 5034.52Z" fill="#21AF9C"/>
<path d="M4358.09 5346.66L4334.81 5248.77H4238.69L4215.41 5346.66H4198.56L4272.88 5034.52H4300.62L4374.94 5346.66H4358.09ZM4242.16 5233.53H4331.34L4286.75 5046.99L4242.16 5233.53Z" fill="#21AF9C"/>
<path d="M4593.91 5181.82C4602.17 5187.98 4610.26 5194.44 4618.19 5201.21C4626.45 5207.68 4633.71 5214.91 4639.99 5222.91C4646.6 5230.61 4651.88 5239.38 4655.84 5249.23C4659.81 5258.77 4661.79 5269.7 4661.79 5282.02C4661.79 5291.25 4659.81 5300.02 4655.84 5308.33C4652.21 5316.34 4647.09 5323.42 4640.48 5329.57C4634.21 5335.42 4626.78 5340.19 4618.19 5343.89C4609.6 5347.27 4600.35 5348.97 4590.44 5348.97C4580.54 5348.97 4571.12 5347.27 4562.2 5343.89C4553.62 5340.19 4546.02 5335.42 4539.41 5329.57C4533.14 5323.42 4528.02 5316.34 4524.06 5308.33C4520.42 5300.02 4518.61 5291.25 4518.61 5282.02H4534.95C4534.95 5289.1 4536.44 5295.87 4539.41 5302.33C4542.39 5308.49 4546.35 5313.88 4551.3 5318.49C4556.26 5323.11 4562.04 5326.8 4568.65 5329.57C4575.58 5332.34 4582.85 5333.73 4590.44 5333.73C4598.04 5333.73 4605.14 5332.34 4611.75 5329.57C4618.35 5326.8 4624.13 5323.11 4629.09 5318.49C4634.04 5313.88 4638.01 5308.49 4640.98 5302.33C4643.95 5295.87 4645.44 5289.1 4645.44 5282.02C4645.44 5271.55 4643.62 5262.16 4639.99 5253.85C4636.69 5245.54 4632.06 5238 4626.12 5231.22C4620.5 5224.14 4613.9 5217.68 4606.3 5211.83C4599.03 5205.68 4591.44 5199.67 4583.51 5193.82C4575.58 5187.98 4567.65 5181.97 4559.73 5175.82C4552.13 5169.35 4545.19 5162.43 4538.92 5155.04C4532.97 5147.65 4528.02 5139.49 4524.06 5130.57C4520.42 5121.64 4518.61 5111.33 4518.61 5099.63C4518.61 5090.39 4520.42 5081.78 4524.06 5073.77C4528.02 5065.46 4533.14 5058.38 4539.41 5052.53C4546.02 5046.38 4553.62 5041.6 4562.2 5038.22C4571.12 5034.52 4580.54 5032.68 4590.44 5032.68C4600.35 5032.68 4609.6 5034.52 4618.19 5038.22C4626.78 5041.6 4634.21 5046.38 4640.48 5052.53C4647.09 5058.38 4652.21 5065.46 4655.84 5073.77C4659.81 5081.78 4661.79 5090.39 4661.79 5099.63H4645.44C4645.44 5092.55 4643.95 5085.93 4640.98 5079.77C4638.01 5073.62 4634.04 5068.23 4629.09 5063.61C4624.13 5059 4618.35 5055.3 4611.75 5052.53C4605.14 5049.76 4598.04 5048.38 4590.44 5048.38C4582.85 5048.38 4575.58 5049.76 4568.65 5052.53C4562.04 5055.3 4556.26 5059 4551.3 5063.61C4546.35 5068.23 4542.39 5073.62 4539.41 5079.77C4536.44 5085.93 4534.95 5092.55 4534.95 5099.63C4534.95 5109.48 4536.61 5118.25 4539.91 5125.95C4543.21 5133.34 4547.51 5140.26 4552.79 5146.73C4558.41 5153.19 4564.68 5159.35 4571.62 5165.2C4578.88 5170.74 4586.32 5176.28 4593.91 5181.82Z" fill="#21AF9C"/>
<path d="M4895.82 5181.82C4904.08 5187.98 4912.17 5194.44 4920.1 5201.21C4928.36 5207.68 4935.62 5214.91 4941.9 5222.91C4948.51 5230.61 4953.79 5239.38 4957.75 5249.23C4961.72 5258.77 4963.7 5269.7 4963.7 5282.02C4963.7 5291.25 4961.72 5300.02 4957.75 5308.33C4954.12 5316.34 4949 5323.42 4942.4 5329.57C4936.12 5335.42 4928.69 5340.19 4920.1 5343.89C4911.51 5347.27 4902.26 5348.97 4892.36 5348.97C4882.45 5348.97 4873.03 5347.27 4864.12 5343.89C4855.53 5340.19 4847.93 5335.42 4841.33 5329.57C4835.05 5323.42 4829.93 5316.34 4825.97 5308.33C4822.33 5300.02 4820.52 5291.25 4820.52 5282.02H4836.87C4836.87 5289.1 4838.35 5295.87 4841.33 5302.33C4844.3 5308.49 4848.26 5313.88 4853.22 5318.49C4858.17 5323.11 4863.95 5326.8 4870.56 5329.57C4877.49 5332.34 4884.76 5333.73 4892.36 5333.73C4899.95 5333.73 4907.05 5332.34 4913.66 5329.57C4920.27 5326.8 4926.05 5323.11 4931 5318.49C4935.95 5313.88 4939.92 5308.49 4942.89 5302.33C4945.86 5295.87 4947.35 5289.1 4947.35 5282.02C4947.35 5271.55 4945.53 5262.16 4941.9 5253.85C4938.6 5245.54 4933.97 5238 4928.03 5231.22C4922.41 5224.14 4915.81 5217.68 4908.21 5211.83C4900.94 5205.68 4893.35 5199.67 4885.42 5193.82C4877.49 5187.98 4869.57 5181.97 4861.64 5175.82C4854.04 5169.35 4847.11 5162.43 4840.83 5155.04C4834.88 5147.65 4829.93 5139.49 4825.97 5130.57C4822.33 5121.64 4820.52 5111.33 4820.52 5099.63C4820.52 5090.39 4822.33 5081.78 4825.97 5073.77C4829.93 5065.46 4835.05 5058.38 4841.33 5052.53C4847.93 5046.38 4855.53 5041.6 4864.12 5038.22C4873.03 5034.52 4882.45 5032.68 4892.36 5032.68C4902.26 5032.68 4911.51 5034.52 4920.1 5038.22C4928.69 5041.6 4936.12 5046.38 4942.4 5052.53C4949 5058.38 4954.12 5065.46 4957.75 5073.77C4961.72 5081.78 4963.7 5090.39 4963.7 5099.63H4947.35C4947.35 5092.55 4945.86 5085.93 4942.89 5079.77C4939.92 5073.62 4935.95 5068.23 4931 5063.61C4926.05 5059 4920.27 5055.3 4913.66 5052.53C4907.05 5049.76 4899.95 5048.38 4892.36 5048.38C4884.76 5048.38 4877.49 5049.76 4870.56 5052.53C4863.95 5055.3 4858.17 5059 4853.22 5063.61C4848.26 5068.23 4844.3 5073.62 4841.33 5079.77C4838.35 5085.93 4836.87 5092.55 4836.87 5099.63C4836.87 5109.48 4838.52 5118.25 4841.82 5125.95C4845.12 5133.34 4849.42 5140.26 4854.7 5146.73C4860.32 5153.19 4866.59 5159.35 4873.53 5165.2C4880.8 5170.74 4888.23 5176.28 4895.82 5181.82Z" fill="#21AF9C"/>
<path d="M5194.27 5348.97C5184.36 5348.97 5174.95 5347.27 5166.03 5343.89C5157.44 5340.19 5149.84 5335.42 5143.24 5329.57C5136.96 5323.42 5131.84 5316.34 5127.88 5308.33C5124.24 5300.02 5122.43 5291.25 5122.43 5282.02V5099.63C5122.43 5090.39 5124.24 5081.78 5127.88 5073.77C5131.84 5065.46 5136.96 5058.38 5143.24 5052.53C5149.84 5046.38 5157.44 5041.6 5166.03 5038.22C5174.95 5034.52 5184.36 5032.68 5194.27 5032.68C5204.18 5032.68 5213.42 5034.52 5222.01 5038.22C5230.6 5041.6 5238.03 5046.38 5244.31 5052.53C5250.91 5058.38 5256.03 5065.46 5259.67 5073.77C5263.63 5081.78 5265.61 5090.39 5265.61 5099.63V5282.02C5265.61 5291.25 5263.63 5300.02 5259.67 5308.33C5256.03 5316.34 5250.91 5323.42 5244.31 5329.57C5238.03 5335.42 5230.6 5340.19 5222.01 5343.89C5213.42 5347.27 5204.18 5348.97 5194.27 5348.97ZM5194.27 5048.38C5186.67 5048.38 5179.4 5049.76 5172.47 5052.53C5165.86 5055.3 5160.08 5059 5155.13 5063.61C5150.17 5068.23 5146.21 5073.62 5143.24 5079.77C5140.26 5085.93 5138.78 5092.55 5138.78 5099.63V5282.02C5138.78 5289.1 5140.26 5295.87 5143.24 5302.33C5146.21 5308.49 5150.17 5313.88 5155.13 5318.49C5160.08 5323.11 5165.86 5326.8 5172.47 5329.57C5179.4 5332.34 5186.67 5333.73 5194.27 5333.73C5201.86 5333.73 5208.97 5332.34 5215.57 5329.57C5222.18 5326.8 5227.96 5323.11 5232.91 5318.49C5237.87 5313.88 5241.83 5308.49 5244.8 5302.33C5247.77 5295.87 5249.26 5289.1 5249.26 5282.02V5099.63C5249.26 5092.55 5247.77 5085.93 5244.8 5079.77C5241.83 5073.62 5237.87 5068.23 5232.91 5063.61C5227.96 5059 5222.18 5055.3 5215.57 5052.53C5208.97 5049.76 5201.86 5048.38 5194.27 5048.38Z" fill="#21AF9C"/>
<path d="M5554.64 5034.52V5050.22H5487.76V5346.66H5471.41V5050.22H5404.52V5034.52H5554.64Z" fill="#21AF9C"/>
<path d="M5828.49 5050.22H5714.54V5167.97H5808.18V5183.2H5714.54V5331.42H5828.49V5346.66H5698.19V5034.52H5828.49V5050.22Z" fill="#21AF9C"/>
<path d="M6034.34 5215.06H5993.71V5346.66H5977.36V5034.52H6037.8C6047.71 5034.52 6056.96 5036.22 6065.55 5039.6C6074.47 5042.99 6082.06 5047.76 6088.34 5053.92C6094.94 5059.77 6100.06 5066.69 6103.7 5074.7C6107.66 5082.7 6109.64 5091.32 6109.64 5100.55V5149.04C6109.64 5157.04 6108.16 5164.58 6105.18 5171.66C6102.21 5178.74 6098.08 5185.2 6092.8 5191.05C6087.51 5196.9 6081.4 5201.83 6074.47 5205.83C6067.53 5209.52 6059.93 5212.14 6051.68 5213.68L6112.12 5346.66H6094.28L6034.34 5215.06ZM5993.71 5199.83H6037.8C6045.4 5199.83 6052.5 5198.6 6059.11 5196.13C6065.71 5193.36 6071.49 5189.67 6076.45 5185.05C6081.4 5180.43 6085.37 5175.05 6088.34 5168.89C6091.31 5162.73 6092.8 5156.12 6092.8 5149.04V5100.55C6092.8 5093.78 6091.31 5087.32 6088.34 5081.16C6085.37 5075 6081.4 5069.62 6076.45 5065C6071.49 5060.38 6065.71 5056.69 6059.11 5053.92C6052.5 5051.15 6045.4 5049.76 6037.8 5049.76H5993.71V5199.83Z" fill="#21AF9C"/>
<path d="M6420.19 5346.66L6396.9 5248.77H6300.78L6277.5 5346.66H6260.65L6334.97 5034.52H6362.71L6437.03 5346.66H6420.19ZM6304.25 5233.53H6393.43L6348.84 5046.99L6304.25 5233.53Z" fill="#21AF9C"/>
<path d="M6646.1 5034.52C6656.01 5034.52 6665.09 5036.37 6673.35 5040.07C6681.93 5043.45 6689.37 5048.22 6695.64 5054.38C6702.25 5060.23 6707.37 5067.15 6711 5075.16C6714.63 5083.16 6716.45 5091.63 6716.45 5100.55V5164.27C6716.45 5173.2 6714.63 5181.51 6711 5189.21C6707.7 5196.9 6702.91 5203.67 6696.63 5209.52C6690.69 5215.37 6683.58 5220.14 6675.33 5223.84C6667.4 5227.53 6658.81 5229.69 6649.56 5230.3H6597.05V5346.66H6580.7V5034.52H6646.1ZM6700.1 5100.55C6700.1 5093.78 6698.61 5087.32 6695.64 5081.16C6692.67 5075 6688.7 5069.62 6683.75 5065C6678.8 5060.38 6673.02 5056.69 6666.41 5053.92C6659.8 5051.15 6652.7 5049.76 6645.11 5049.76H6597.05V5215.06H6646.1C6653.69 5215.06 6660.79 5213.68 6667.4 5210.91C6674.01 5208.14 6679.62 5204.44 6684.25 5199.83C6689.2 5195.21 6693 5189.98 6695.64 5184.13C6698.61 5177.97 6700.1 5171.35 6700.1 5164.27V5100.55Z" fill="#21AF9C"/>
<path d="M6891.22 5346.66H6874.87V5034.52H6891.22V5346.66Z" fill="#21AF9C"/>
<path d="M7199.16 5346.66L7175.87 5248.77H7079.75L7056.47 5346.66H7039.62L7113.94 5034.52H7141.68L7216 5346.66H7199.16ZM7083.22 5233.53H7172.4L7127.81 5046.99L7083.22 5233.53Z" fill="#21AF9C"/>
<path d="M133.302 5050.22H19.3497V5167.97H112.989V5183.2H19.3497V5346.66H3V5034.52H133.302V5050.22Z" stroke="#21AF9C" stroke-width="6" mask="url(#path-5-outside-1_126_69)"/>
<path d="M298.521 5346.66H282.171V5034.52H298.521V5346.66Z" stroke="#21AF9C" stroke-width="6" mask="url(#path-5-outside-1_126_69)"/>
<path d="M532.142 5181.82C540.399 5187.98 548.492 5194.44 556.419 5201.21C564.676 5207.68 571.943 5214.91 578.218 5222.91C584.824 5230.61 590.109 5239.38 594.073 5249.23C598.036 5258.77 600.018 5269.7 600.018 5282.02C600.018 5291.25 598.036 5300.02 594.073 5308.33C590.439 5316.34 585.32 5323.42 578.714 5329.57C572.438 5335.42 565.007 5340.19 556.419 5343.89C547.831 5347.27 538.583 5348.97 528.674 5348.97C518.765 5348.97 509.352 5347.27 500.434 5343.89C491.846 5340.19 484.249 5335.42 477.643 5329.57C471.368 5323.42 466.248 5316.34 462.284 5308.33C458.651 5300.02 456.835 5291.25 456.835 5282.02H473.184C473.184 5289.1 474.671 5295.87 477.643 5302.33C480.616 5308.49 484.579 5313.88 489.534 5318.49C494.488 5323.11 500.268 5326.8 506.874 5329.57C513.811 5332.34 521.077 5333.73 528.674 5333.73C536.271 5333.73 543.372 5332.34 549.978 5329.57C556.584 5326.8 562.364 5323.11 567.319 5318.49C572.273 5313.88 576.237 5308.49 579.209 5302.33C582.182 5295.87 583.668 5289.1 583.668 5282.02C583.668 5271.55 581.852 5262.16 578.218 5253.85C574.915 5245.54 570.291 5238 564.346 5231.22C558.731 5224.14 552.125 5217.68 544.528 5211.83C537.262 5205.68 529.665 5199.67 521.738 5193.82C513.811 5187.98 505.884 5181.97 497.956 5175.82C490.36 5169.35 483.423 5162.43 477.148 5155.04C471.202 5147.65 466.248 5139.49 462.284 5130.57C458.651 5121.64 456.835 5111.33 456.835 5099.63C456.835 5090.39 458.651 5081.78 462.284 5073.77C466.248 5065.46 471.368 5058.38 477.643 5052.53C484.249 5046.38 491.846 5041.6 500.434 5038.22C509.352 5034.52 518.765 5032.68 528.674 5032.68C538.583 5032.68 547.831 5034.52 556.419 5038.22C565.007 5041.6 572.438 5046.38 578.714 5052.53C585.32 5058.38 590.439 5065.46 594.073 5073.77C598.036 5081.78 600.018 5090.39 600.018 5099.63H583.668C583.668 5092.55 582.182 5085.93 579.209 5079.77C576.237 5073.62 572.273 5068.23 567.319 5063.61C562.364 5059 556.584 5055.3 549.978 5052.53C543.372 5049.76 536.271 5048.38 528.674 5048.38C521.077 5048.38 513.811 5049.76 506.874 5052.53C500.268 5055.3 494.488 5059 489.534 5063.61C484.579 5068.23 480.616 5073.62 477.643 5079.77C474.671 5085.93 473.184 5092.55 473.184 5099.63C473.184 5109.48 474.836 5118.25 478.139 5125.95C481.442 5133.34 485.735 5140.26 491.02 5146.73C496.635 5153.19 502.911 5159.35 509.847 5165.2C517.114 5170.74 524.545 5176.28 532.142 5181.82Z" stroke="#21AF9C" stroke-width="6" mask="url(#path-5-outside-1_126_69)"/>
<path d="M775.095 5346.66H758.746V5034.52H775.095V5346.66Z" stroke="#21AF9C" stroke-width="6" mask="url(#path-5-outside-1_126_69)"/>
<path d="M1005.25 5348.97C995.34 5348.97 985.926 5347.27 977.008 5343.89C968.421 5340.19 960.824 5335.42 954.218 5329.57C947.942 5323.42 942.823 5316.34 938.859 5308.33C935.226 5300.02 933.409 5291.25 933.409 5282.02V5099.63C933.409 5090.39 935.226 5081.78 938.859 5073.77C942.823 5065.46 947.942 5058.38 954.218 5052.53C960.824 5046.38 968.421 5041.6 977.008 5038.22C985.926 5034.52 995.34 5032.68 1005.25 5032.68C1015.16 5032.68 1024.41 5034.52 1032.99 5038.22C1041.58 5041.6 1049.01 5046.38 1055.29 5052.53C1061.89 5058.38 1067.01 5065.46 1070.65 5073.77C1074.61 5081.78 1076.59 5090.39 1076.59 5099.63V5282.02C1076.59 5291.25 1074.61 5300.02 1070.65 5308.33C1067.01 5316.34 1061.89 5323.42 1055.29 5329.57C1049.01 5335.42 1041.58 5340.19 1032.99 5343.89C1024.41 5347.27 1015.16 5348.97 1005.25 5348.97ZM1005.25 5048.38C997.652 5048.38 990.385 5049.76 983.449 5052.53C976.843 5055.3 971.063 5059 966.109 5063.61C961.154 5068.23 957.19 5073.62 954.218 5079.77C951.245 5085.93 949.759 5092.55 949.759 5099.63V5282.02C949.759 5289.1 951.245 5295.87 954.218 5302.33C957.19 5308.49 961.154 5313.88 966.109 5318.49C971.063 5323.11 976.843 5326.8 983.449 5329.57C990.385 5332.34 997.652 5333.73 1005.25 5333.73C1012.85 5333.73 1019.95 5332.34 1026.55 5329.57C1033.16 5326.8 1038.94 5323.11 1043.89 5318.49C1048.85 5313.88 1052.81 5308.49 1055.78 5302.33C1058.76 5295.87 1060.24 5289.1 1060.24 5282.02V5099.63C1060.24 5092.55 1058.76 5085.93 1055.78 5079.77C1052.81 5073.62 1048.85 5068.23 1043.89 5063.61C1038.94 5059 1033.16 5055.3 1026.55 5052.53C1019.95 5049.76 1012.85 5048.38 1005.25 5048.38Z" stroke="#21AF9C" stroke-width="6" mask="url(#path-5-outside-1_126_69)"/>
<path d="M1365.62 5034.52V5050.22H1298.74V5346.66H1282.39V5050.22H1215.5V5034.52H1365.62Z" stroke="#21AF9C" stroke-width="6" mask="url(#path-5-outside-1_126_69)"/>
<path d="M1639.47 5050.22H1525.52V5167.97H1619.16V5183.2H1525.52V5331.42H1639.47V5346.66H1509.17V5034.52H1639.47V5050.22Z" stroke="#21AF9C" stroke-width="6" mask="url(#path-5-outside-1_126_69)"/>
<path d="M1845.32 5215.06H1804.69V5346.66H1788.34V5034.52H1848.78C1858.69 5034.52 1867.94 5036.22 1876.53 5039.6C1885.45 5042.99 1893.04 5047.76 1899.32 5053.92C1905.93 5059.77 1911.05 5066.69 1914.68 5074.7C1918.64 5082.7 1920.62 5091.32 1920.62 5100.55V5149.04C1920.62 5157.04 1919.14 5164.58 1916.17 5171.66C1913.19 5178.74 1909.06 5185.2 1903.78 5191.05C1898.49 5196.9 1892.38 5201.83 1885.45 5205.83C1878.51 5209.52 1870.91 5212.14 1862.66 5213.68L1923.1 5346.66H1905.27L1845.32 5215.06ZM1804.69 5199.83H1848.78C1856.38 5199.83 1863.48 5198.6 1870.09 5196.13C1876.69 5193.36 1882.47 5189.67 1887.43 5185.05C1892.38 5180.43 1896.35 5175.05 1899.32 5168.89C1902.29 5162.73 1903.78 5156.12 1903.78 5149.04V5100.55C1903.78 5093.78 1902.29 5087.32 1899.32 5081.16C1896.35 5075 1892.38 5069.62 1887.43 5065C1882.47 5060.38 1876.69 5056.69 1870.09 5053.92C1863.48 5051.15 1856.38 5049.76 1848.78 5049.76H1804.69V5199.83Z" stroke="#21AF9C" stroke-width="6" mask="url(#path-5-outside-1_126_69)"/>
<path d="M2231.17 5346.66L2207.88 5248.77H2111.76L2088.48 5346.66H2071.63L2145.95 5034.52H2173.7L2248.01 5346.66H2231.17ZM2115.23 5233.53H2204.41L2159.82 5046.99L2115.23 5233.53Z" stroke="#21AF9C" stroke-width="6" mask="url(#path-5-outside-1_126_69)"/>
<path d="M2457.08 5034.52C2466.99 5034.52 2476.07 5036.37 2484.33 5040.07C2492.92 5043.45 2500.35 5048.22 2506.62 5054.38C2513.23 5060.23 2518.35 5067.15 2521.98 5075.16C2525.61 5083.16 2527.43 5091.63 2527.43 5100.55V5164.27C2527.43 5173.2 2525.61 5181.51 2521.98 5189.21C2518.68 5196.9 2513.89 5203.67 2507.61 5209.52C2501.67 5215.37 2494.57 5220.14 2486.31 5223.84C2478.38 5227.53 2469.79 5229.69 2460.55 5230.3H2408.03V5346.66H2391.68V5034.52H2457.08ZM2511.08 5100.55C2511.08 5093.78 2509.6 5087.32 2506.62 5081.16C2503.65 5075 2499.69 5069.62 2494.73 5065C2489.78 5060.38 2484 5056.69 2477.39 5053.92C2470.79 5051.15 2463.68 5049.76 2456.09 5049.76H2408.03V5215.06H2457.08C2464.67 5215.06 2471.78 5213.68 2478.38 5210.91C2484.99 5208.14 2490.6 5204.44 2495.23 5199.83C2500.18 5195.21 2503.98 5189.98 2506.62 5184.13C2509.6 5177.97 2511.08 5171.35 2511.08 5164.27V5100.55Z" stroke="#21AF9C" stroke-width="6" mask="url(#path-5-outside-1_126_69)"/>
<path d="M2702.2 5346.66H2685.85V5034.52H2702.2V5346.66Z" stroke="#21AF9C" stroke-width="6" mask="url(#path-5-outside-1_126_69)"/>
<path d="M3010.14 5346.66L2986.85 5248.77H2890.73L2867.45 5346.66H2850.6L2924.92 5034.52H2952.67L3026.98 5346.66H3010.14ZM2894.2 5233.53H2983.38L2938.79 5046.99L2894.2 5233.53Z" stroke="#21AF9C" stroke-width="6" mask="url(#path-5-outside-1_126_69)"/>
<path d="M3501.74 5050.22H3387.79V5167.97H3481.43V5183.2H3387.79V5331.42H3501.74V5346.66H3371.44V5034.52H3501.74V5050.22Z" stroke="#21AF9C" stroke-width="6" mask="url(#path-5-outside-1_126_69)"/>
<path d="M4033.23 5034.52H4050.07V5346.66H4033.72V5077.93L3950.98 5289.87L3867.75 5077.93V5346.66H3851.4V5034.52H3868.25L3950.98 5245.08L4033.23 5034.52Z" stroke="#21AF9C" stroke-width="6" mask="url(#path-5-outside-1_126_69)"/>
<path d="M4358.09 5346.66L4334.81 5248.77H4238.69L4215.41 5346.66H4198.56L4272.88 5034.52H4300.62L4374.94 5346.66H4358.09ZM4242.16 5233.53H4331.34L4286.75 5046.99L4242.16 5233.53Z" stroke="#21AF9C" stroke-width="6" mask="url(#path-5-outside-1_126_69)"/>
<path d="M4593.91 5181.82C4602.17 5187.98 4610.26 5194.44 4618.19 5201.21C4626.45 5207.68 4633.71 5214.91 4639.99 5222.91C4646.6 5230.61 4651.88 5239.38 4655.84 5249.23C4659.81 5258.77 4661.79 5269.7 4661.79 5282.02C4661.79 5291.25 4659.81 5300.02 4655.84 5308.33C4652.21 5316.34 4647.09 5323.42 4640.48 5329.57C4634.21 5335.42 4626.78 5340.19 4618.19 5343.89C4609.6 5347.27 4600.35 5348.97 4590.44 5348.97C4580.54 5348.97 4571.12 5347.27 4562.2 5343.89C4553.62 5340.19 4546.02 5335.42 4539.41 5329.57C4533.14 5323.42 4528.02 5316.34 4524.06 5308.33C4520.42 5300.02 4518.61 5291.25 4518.61 5282.02H4534.95C4534.95 5289.1 4536.44 5295.87 4539.41 5302.33C4542.39 5308.49 4546.35 5313.88 4551.3 5318.49C4556.26 5323.11 4562.04 5326.8 4568.65 5329.57C4575.58 5332.34 4582.85 5333.73 4590.44 5333.73C4598.04 5333.73 4605.14 5332.34 4611.75 5329.57C4618.35 5326.8 4624.13 5323.11 4629.09 5318.49C4634.04 5313.88 4638.01 5308.49 4640.98 5302.33C4643.95 5295.87 4645.44 5289.1 4645.44 5282.02C4645.44 5271.55 4643.62 5262.16 4639.99 5253.85C4636.69 5245.54 4632.06 5238 4626.12 5231.22C4620.5 5224.14 4613.9 5217.68 4606.3 5211.83C4599.03 5205.68 4591.44 5199.67 4583.51 5193.82C4575.58 5187.98 4567.65 5181.97 4559.73 5175.82C4552.13 5169.35 4545.19 5162.43 4538.92 5155.04C4532.97 5147.65 4528.02 5139.49 4524.06 5130.57C4520.42 5121.64 4518.61 5111.33 4518.61 5099.63C4518.61 5090.39 4520.42 5081.78 4524.06 5073.77C4528.02 5065.46 4533.14 5058.38 4539.41 5052.53C4546.02 5046.38 4553.62 5041.6 4562.2 5038.22C4571.12 5034.52 4580.54 5032.68 4590.44 5032.68C4600.35 5032.68 4609.6 5034.52 4618.19 5038.22C4626.78 5041.6 4634.21 5046.38 4640.48 5052.53C4647.09 5058.38 4652.21 5065.46 4655.84 5073.77C4659.81 5081.78 4661.79 5090.39 4661.79 5099.63H4645.44C4645.44 5092.55 4643.95 5085.93 4640.98 5079.77C4638.01 5073.62 4634.04 5068.23 4629.09 5063.61C4624.13 5059 4618.35 5055.3 4611.75 5052.53C4605.14 5049.76 4598.04 5048.38 4590.44 5048.38C4582.85 5048.38 4575.58 5049.76 4568.65 5052.53C4562.04 5055.3 4556.26 5059 4551.3 5063.61C4546.35 5068.23 4542.39 5073.62 4539.41 5079.77C4536.44 5085.93 4534.95 5092.55 4534.95 5099.63C4534.95 5109.48 4536.61 5118.25 4539.91 5125.95C4543.21 5133.34 4547.51 5140.26 4552.79 5146.73C4558.41 5153.19 4564.68 5159.35 4571.62 5165.2C4578.88 5170.74 4586.32 5176.28 4593.91 5181.82Z" stroke="#21AF9C" stroke-width="6" mask="url(#path-5-outside-1_126_69)"/>
<path d="M4895.82 5181.82C4904.08 5187.98 4912.17 5194.44 4920.1 5201.21C4928.36 5207.68 4935.62 5214.91 4941.9 5222.91C4948.51 5230.61 4953.79 5239.38 4957.75 5249.23C4961.72 5258.77 4963.7 5269.7 4963.7 5282.02C4963.7 5291.25 4961.72 5300.02 4957.75 5308.33C4954.12 5316.34 4949 5323.42 4942.4 5329.57C4936.12 5335.42 4928.69 5340.19 4920.1 5343.89C4911.51 5347.27 4902.26 5348.97 4892.36 5348.97C4882.45 5348.97 4873.03 5347.27 4864.12 5343.89C4855.53 5340.19 4847.93 5335.42 4841.33 5329.57C4835.05 5323.42 4829.93 5316.34 4825.97 5308.33C4822.33 5300.02 4820.52 5291.25 4820.52 5282.02H4836.87C4836.87 5289.1 4838.35 5295.87 4841.33 5302.33C4844.3 5308.49 4848.26 5313.88 4853.22 5318.49C4858.17 5323.11 4863.95 5326.8 4870.56 5329.57C4877.49 5332.34 4884.76 5333.73 4892.36 5333.73C4899.95 5333.73 4907.05 5332.34 4913.66 5329.57C4920.27 5326.8 4926.05 5323.11 4931 5318.49C4935.95 5313.88 4939.92 5308.49 4942.89 5302.33C4945.86 5295.87 4947.35 5289.1 4947.35 5282.02C4947.35 5271.55 4945.53 5262.16 4941.9 5253.85C4938.6 5245.54 4933.97 5238 4928.03 5231.22C4922.41 5224.14 4915.81 5217.68 4908.21 5211.83C4900.94 5205.68 4893.35 5199.67 4885.42 5193.82C4877.49 5187.98 4869.57 5181.97 4861.64 5175.82C4854.04 5169.35 4847.11 5162.43 4840.83 5155.04C4834.88 5147.65 4829.93 5139.49 4825.97 5130.57C4822.33 5121.64 4820.52 5111.33 4820.52 5099.63C4820.52 5090.39 4822.33 5081.78 4825.97 5073.77C4829.93 5065.46 4835.05 5058.38 4841.33 5052.53C4847.93 5046.38 4855.53 5041.6 4864.12 5038.22C4873.03 5034.52 4882.45 5032.68 4892.36 5032.68C4902.26 5032.68 4911.51 5034.52 4920.1 5038.22C4928.69 5041.6 4936.12 5046.38 4942.4 5052.53C4949 5058.38 4954.12 5065.46 4957.75 5073.77C4961.72 5081.78 4963.7 5090.39 4963.7 5099.63H4947.35C4947.35 5092.55 4945.86 5085.93 4942.89 5079.77C4939.92 5073.62 4935.95 5068.23 4931 5063.61C4926.05 5059 4920.27 5055.3 4913.66 5052.53C4907.05 5049.76 4899.95 5048.38 4892.36 5048.38C4884.76 5048.38 4877.49 5049.76 4870.56 5052.53C4863.95 5055.3 4858.17 5059 4853.22 5063.61C4848.26 5068.23 4844.3 5073.62 4841.33 5079.77C4838.35 5085.93 4836.87 5092.55 4836.87 5099.63C4836.87 5109.48 4838.52 5118.25 4841.82 5125.95C4845.12 5133.34 4849.42 5140.26 4854.7 5146.73C4860.32 5153.19 4866.59 5159.35 4873.53 5165.2C4880.8 5170.74 4888.23 5176.28 4895.82 5181.82Z" stroke="#21AF9C" stroke-width="6" mask="url(#path-5-outside-1_126_69)"/>
<path d="M5194.27 5348.97C5184.36 5348.97 5174.95 5347.27 5166.03 5343.89C5157.44 5340.19 5149.84 5335.42 5143.24 5329.57C5136.96 5323.42 5131.84 5316.34 5127.88 5308.33C5124.24 5300.02 5122.43 5291.25 5122.43 5282.02V5099.63C5122.43 5090.39 5124.24 5081.78 5127.88 5073.77C5131.84 5065.46 5136.96 5058.38 5143.24 5052.53C5149.84 5046.38 5157.44 5041.6 5166.03 5038.22C5174.95 5034.52 5184.36 5032.68 5194.27 5032.68C5204.18 5032.68 5213.42 5034.52 5222.01 5038.22C5230.6 5041.6 5238.03 5046.38 5244.31 5052.53C5250.91 5058.38 5256.03 5065.46 5259.67 5073.77C5263.63 5081.78 5265.61 5090.39 5265.61 5099.63V5282.02C5265.61 5291.25 5263.63 5300.02 5259.67 5308.33C5256.03 5316.34 5250.91 5323.42 5244.31 5329.57C5238.03 5335.42 5230.6 5340.19 5222.01 5343.89C5213.42 5347.27 5204.18 5348.97 5194.27 5348.97ZM5194.27 5048.38C5186.67 5048.38 5179.4 5049.76 5172.47 5052.53C5165.86 5055.3 5160.08 5059 5155.13 5063.61C5150.17 5068.23 5146.21 5073.62 5143.24 5079.77C5140.26 5085.93 5138.78 5092.55 5138.78 5099.63V5282.02C5138.78 5289.1 5140.26 5295.87 5143.24 5302.33C5146.21 5308.49 5150.17 5313.88 5155.13 5318.49C5160.08 5323.11 5165.86 5326.8 5172.47 5329.57C5179.4 5332.34 5186.67 5333.73 5194.27 5333.73C5201.86 5333.73 5208.97 5332.34 5215.57 5329.57C5222.18 5326.8 5227.96 5323.11 5232.91 5318.49C5237.87 5313.88 5241.83 5308.49 5244.8 5302.33C5247.77 5295.87 5249.26 5289.1 5249.26 5282.02V5099.63C5249.26 5092.55 5247.77 5085.93 5244.8 5079.77C5241.83 5073.62 5237.87 5068.23 5232.91 5063.61C5227.96 5059 5222.18 5055.3 5215.57 5052.53C5208.97 5049.76 5201.86 5048.38 5194.27 5048.38Z" stroke="#21AF9C" stroke-width="6" mask="url(#path-5-outside-1_126_69)"/>
<path d="M5554.64 5034.52V5050.22H5487.76V5346.66H5471.41V5050.22H5404.52V5034.52H5554.64Z" stroke="#21AF9C" stroke-width="6" mask="url(#path-5-outside-1_126_69)"/>
<path d="M5828.49 5050.22H5714.54V5167.97H5808.18V5183.2H5714.54V5331.42H5828.49V5346.66H5698.19V5034.52H5828.49V5050.22Z" stroke="#21AF9C" stroke-width="6" mask="url(#path-5-outside-1_126_69)"/>
<path d="M6034.34 5215.06H5993.71V5346.66H5977.36V5034.52H6037.8C6047.71 5034.52 6056.96 5036.22 6065.55 5039.6C6074.47 5042.99 6082.06 5047.76 6088.34 5053.92C6094.94 5059.77 6100.06 5066.69 6103.7 5074.7C6107.66 5082.7 6109.64 5091.32 6109.64 5100.55V5149.04C6109.64 5157.04 6108.16 5164.58 6105.18 5171.66C6102.21 5178.74 6098.08 5185.2 6092.8 5191.05C6087.51 5196.9 6081.4 5201.83 6074.47 5205.83C6067.53 5209.52 6059.93 5212.14 6051.68 5213.68L6112.12 5346.66H6094.28L6034.34 5215.06ZM5993.71 5199.83H6037.8C6045.4 5199.83 6052.5 5198.6 6059.11 5196.13C6065.71 5193.36 6071.49 5189.67 6076.45 5185.05C6081.4 5180.43 6085.37 5175.05 6088.34 5168.89C6091.31 5162.73 6092.8 5156.12 6092.8 5149.04V5100.55C6092.8 5093.78 6091.31 5087.32 6088.34 5081.16C6085.37 5075 6081.4 5069.62 6076.45 5065C6071.49 5060.38 6065.71 5056.69 6059.11 5053.92C6052.5 5051.15 6045.4 5049.76 6037.8 5049.76H5993.71V5199.83Z" stroke="#21AF9C" stroke-width="6" mask="url(#path-5-outside-1_126_69)"/>
<path d="M6420.19 5346.66L6396.9 5248.77H6300.78L6277.5 5346.66H6260.65L6334.97 5034.52H6362.71L6437.03 5346.66H6420.19ZM6304.25 5233.53H6393.43L6348.84 5046.99L6304.25 5233.53Z" stroke="#21AF9C" stroke-width="6" mask="url(#path-5-outside-1_126_69)"/>
<path d="M6646.1 5034.52C6656.01 5034.52 6665.09 5036.37 6673.35 5040.07C6681.93 5043.45 6689.37 5048.22 6695.64 5054.38C6702.25 5060.23 6707.37 5067.15 6711 5075.16C6714.63 5083.16 6716.45 5091.63 6716.45 5100.55V5164.27C6716.45 5173.2 6714.63 5181.51 6711 5189.21C6707.7 5196.9 6702.91 5203.67 6696.63 5209.52C6690.69 5215.37 6683.58 5220.14 6675.33 5223.84C6667.4 5227.53 6658.81 5229.69 6649.56 5230.3H6597.05V5346.66H6580.7V5034.52H6646.1ZM6700.1 5100.55C6700.1 5093.78 6698.61 5087.32 6695.64 5081.16C6692.67 5075 6688.7 5069.62 6683.75 5065C6678.8 5060.38 6673.02 5056.69 6666.41 5053.92C6659.8 5051.15 6652.7 5049.76 6645.11 5049.76H6597.05V5215.06H6646.1C6653.69 5215.06 6660.79 5213.68 6667.4 5210.91C6674.01 5208.14 6679.62 5204.44 6684.25 5199.83C6689.2 5195.21 6693 5189.98 6695.64 5184.13C6698.61 5177.97 6700.1 5171.35 6700.1 5164.27V5100.55Z" stroke="#21AF9C" stroke-width="6" mask="url(#path-5-outside-1_126_69)"/>
<path d="M6891.22 5346.66H6874.87V5034.52H6891.22V5346.66Z" stroke="#21AF9C" stroke-width="6" mask="url(#path-5-outside-1_126_69)"/>
<path d="M7199.16 5346.66L7175.87 5248.77H7079.75L7056.47 5346.66H7039.62L7113.94 5034.52H7141.68L7216 5346.66H7199.16ZM7083.22 5233.53H7172.4L7127.81 5046.99L7083.22 5233.53Z" stroke="#21AF9C" stroke-width="6" mask="url(#path-5-outside-1_126_69)"/>
<defs>
<linearGradient id="paint0_linear_126_69" x1="1294.72" y1="1660.73" x2="4165.04" y2="1970.11" gradientUnits="userSpaceOnUse">
<stop stop-color="#21AF9C"/>
<stop offset="1" stop-color="#D1126B"/>
</linearGradient>
<linearGradient id="paint1_linear_126_69" x1="1739.45" y1="1120.4" x2="3853.45" y2="2119.36" gradientUnits="userSpaceOnUse">
<stop offset="0.44" stop-color="#21AF9C"/>
<stop offset="1" stop-color="#D1126B"/>
</linearGradient>
</defs>
</svg>
